<svg width="567" height="612" viewBox="0 0 567 612" fill="none" xmlns="http://www.w3.org/2000/svg">
<circle cx="464" cy="22.5" r="2.5" fill="#EF3A45"/>
<circle cx="464" cy="62.5" r="2.5" fill="#EF3A45"/>
<circle cx="464" cy="102.5" r="2.5" fill="#EF3A45"/>
<circle cx="464" cy="2.5" r="2.5" fill="#EF3A45"/>
<circle cx="464" cy="42.5" r="2.5" fill="#EF3A45"/>
<circle cx="464" cy="82.5" r="2.5" fill="#EF3A45"/>
<circle cx="484" cy="22.5" r="2.5" fill="#EF3A45"/>
<circle cx="484" cy="62.5" r="2.5" fill="#EF3A45"/>
<circle cx="484" cy="102.5" r="2.5" fill="#EF3A45"/>
<circle cx="484" cy="2.5" r="2.5" fill="#EF3A45"/>
<circle cx="484" cy="42.5" r="2.5" fill="#EF3A45"/>
<circle cx="484" cy="82.5" r="2.5" fill="#EF3A45"/>
<circle cx="504" cy="22.5" r="2.5" fill="#EF3A45"/>
<circle cx="504" cy="62.5" r="2.5" fill="#EF3A45"/>
<circle cx="504" cy="102.5" r="2.5" fill="#EF3A45"/>
<circle cx="504" cy="2.5" r="2.5" fill="#EF3A45"/>
<circle cx="504" cy="42.5" r="2.5" fill="#EF3A45"/>
<circle cx="504" cy="82.5" r="2.5" fill="#EF3A45"/>
<circle cx="524" cy="22.5" r="2.5" fill="#EF3A45"/>
<circle cx="524" cy="62.5" r="2.5" fill="#EF3A45"/>
<circle cx="524" cy="102.5" r="2.5" fill="#EF3A45"/>
<circle cx="524" cy="2.5" r="2.5" fill="#EF3A45"/>
<circle cx="524" cy="42.5" r="2.5" fill="#EF3A45"/>
<circle cx="524" cy="82.5" r="2.5" fill="#EF3A45"/>
<circle cx="544" cy="22.5" r="2.5" fill="#EF3A45"/>
<circle cx="544" cy="62.5" r="2.5" fill="#EF3A45"/>
<circle cx="544" cy="102.5" r="2.5" fill="#EF3A45"/>
<circle cx="544" cy="2.5" r="2.5" fill="#EF3A45"/>
<circle cx="544" cy="42.5" r="2.5" fill="#EF3A45"/>
<circle cx="544" cy="82.5" r="2.5" fill="#EF3A45"/>
<circle cx="564" cy="22.5" r="2.5" fill="#EF3A45"/>
<circle cx="564" cy="62.5" r="2.5" fill="#EF3A45"/>
<circle cx="564" cy="102.5" r="2.5" fill="#EF3A45"/>
<circle cx="564" cy="2.5" r="2.5" fill="#EF3A45"/>
<circle cx="564" cy="42.5" r="2.5" fill="#EF3A45"/>
<circle cx="564" cy="82.5" r="2.5" fill="#EF3A45"/>
<rect x="29.5001" y="39" width="498" height="545" fill="#F0F5FD"/>
<path d="M557.5 145V611H223.5" stroke="#8FB3F2"/>
<path d="M0.5 408L0.499965 10L334.5 10" stroke="#8FB3F2"/>
</svg>
