<svg width="32" height="33" viewBox="0 0 32 33" fill="none" xmlns="http://www.w3.org/2000/svg">
<g id="Icon" clip-path="url(#clip0_96_1629)">
<path id="Vector" d="M15.9867 3.16699C8.62675 3.16699 2.66675 9.14033 2.66675 16.5003C2.66675 23.8603 8.62675 29.8337 15.9867 29.8337C23.3601 29.8337 29.3334 23.8603 29.3334 16.5003C29.3334 9.14033 23.3601 3.16699 15.9867 3.16699ZM25.2267 11.167H21.2934C20.8667 9.50033 20.2534 7.90033 19.4534 6.42033C21.9067 7.26033 23.9467 8.96699 25.2267 11.167ZM16.0001 5.88699C17.1067 7.48699 17.9734 9.26033 18.5467 11.167H13.4534C14.0267 9.26033 14.8934 7.48699 16.0001 5.88699ZM5.68008 19.167C5.46675 18.3137 5.33341 17.4203 5.33341 16.5003C5.33341 15.5803 5.46675 14.687 5.68008 13.8337H10.1867C10.0801 14.7137 10.0001 15.5937 10.0001 16.5003C10.0001 17.407 10.0801 18.287 10.1867 19.167H5.68008ZM6.77341 21.8337H10.7067C11.1334 23.5003 11.7467 25.1003 12.5467 26.5803C10.0934 25.7403 8.05341 24.047 6.77341 21.8337ZM10.7067 11.167H6.77341C8.05341 8.95366 10.0934 7.26033 12.5467 6.42033C11.7467 7.90033 11.1334 9.50033 10.7067 11.167ZM16.0001 27.1137C14.8934 25.5137 14.0267 23.7403 13.4534 21.8337H18.5467C17.9734 23.7403 17.1067 25.5137 16.0001 27.1137ZM19.1201 19.167H12.8801C12.7601 18.287 12.6667 17.407 12.6667 16.5003C12.6667 15.5937 12.7601 14.7003 12.8801 13.8337H19.1201C19.2401 14.7003 19.3334 15.5937 19.3334 16.5003C19.3334 17.407 19.2401 18.287 19.1201 19.167ZM19.4534 26.5803C20.2534 25.1003 20.8667 23.5003 21.2934 21.8337H25.2267C23.9467 24.0337 21.9067 25.7403 19.4534 26.5803ZM21.8134 19.167C21.9201 18.287 22.0001 17.407 22.0001 16.5003C22.0001 15.5937 21.9201 14.7137 21.8134 13.8337H26.3201C26.5334 14.687 26.6667 15.5803 26.6667 16.5003C26.6667 17.4203 26.5334 18.3137 26.3201 19.167H21.8134Z" fill="white"/>
</g>
<defs>
<clipPath id="clip0_96_1629">
<rect width="32" height="32" fill="white" transform="translate(0 0.5)"/>
</clipPath>
</defs>
</svg>
