<svg width="32" height="33" viewBox="0 0 32 33" fill="none" xmlns="http://www.w3.org/2000/svg">
<g id="Icon">
<g id="Group">
<path id="Vector" d="M15.8933 10.5266L16.68 12.3666C16.7333 12.5266 16.88 12.62 17.0267 12.6333L19.0267 12.82C19.4533 12.86 19.6133 13.38 19.3067 13.66L17.8 14.98C17.68 15.0866 17.6267 15.2466 17.6667 15.3933L18.1067 17.3533C18.2 17.7666 17.76 18.0866 17.3867 17.8733L15.6667 16.8466C15.5333 16.7666 15.36 16.7666 15.2267 16.8466L13.5067 17.8733C13.1467 18.0866 12.6933 17.7666 12.7867 17.3533L13.2267 15.3933C13.2667 15.2466 13.2133 15.0866 13.0933 14.98L11.5867 13.66C11.2667 13.38 11.44 12.86 11.8667 12.82L13.8667 12.6333C14.0267 12.62 14.16 12.5266 14.2267 12.38L15.0133 10.54C15.1733 10.14 15.72 10.14 15.8933 10.5266Z" stroke="white" stroke-miterlimit="10" stroke-linecap="round" stroke-linejoin="round"/>
<path id="Vector_2" d="M24.5165 14.4263C24.551 9.41891 20.5196 5.33169 15.5123 5.29723C10.5049 5.26277 6.41766 9.29412 6.3832 14.3015C6.34874 19.3089 10.3801 23.3961 15.3875 23.4306C20.3948 23.465 24.4821 19.4337 24.5165 14.4263Z" stroke="white" stroke-miterlimit="10" stroke-linecap="round" stroke-linejoin="round"/>
<g id="Group_2">
<path id="Vector_3" d="M14.2134 23.3398L11.96 29.0065L9.10672 25.7398L4.80005 26.1398L7.65338 18.9932" stroke="white" stroke-miterlimit="10" stroke-linecap="round" stroke-linejoin="round"/>
<path id="Vector_4" d="M16.6667 23.3398L18.9333 29.0065L21.7733 25.7398L26.0933 26.1398L23.2267 18.9932" stroke="white" stroke-miterlimit="10" stroke-linecap="round" stroke-linejoin="round"/>
</g>
</g>
</g>
</svg>
