<svg width="32" height="33" viewBox="0 0 32 33" fill="none" xmlns="http://www.w3.org/2000/svg">
<g id="9">
<g id="Group">
<path id="Vector" d="M18.3867 12.0869C18.3867 12.0869 17.0267 10.8869 14.64 11.7269C12.44 12.4869 12.5467 15.5002 15.88 16.3002" stroke="white" stroke-width="1.2" stroke-miterlimit="10" stroke-linecap="round" stroke-linejoin="round"/>
<path id="Vector_2" d="M13.16 20.4603C13.16 20.4603 14.52 21.6603 16.9066 20.8203C19.12 20.047 19.0133 17.0336 15.6666 16.2336" stroke="white" stroke-width="1.2" stroke-miterlimit="10" stroke-linecap="round" stroke-linejoin="round"/>
<path id="Vector_3" d="M16.0133 11.4336V9.47363" stroke="white" stroke-width="1.2" stroke-miterlimit="10" stroke-linecap="round" stroke-linejoin="round"/>
<path id="Vector_4" d="M16.0134 23.0733V21.1133" stroke="white" stroke-width="1.2" stroke-miterlimit="10" stroke-linecap="round" stroke-linejoin="round"/>
</g>
<path id="Vector_5" d="M15.7733 28.5799C22.5701 28.5799 28.08 23.07 28.08 16.2732C28.08 9.47643 22.5701 3.96655 15.7733 3.96655C8.97656 3.96655 3.46667 9.47643 3.46667 16.2732C3.46667 23.07 8.97656 28.5799 15.7733 28.5799Z" stroke="white" stroke-width="1.2" stroke-miterlimit="10" stroke-linecap="round" stroke-linejoin="round"/>
</g>
</svg>
