<svg width="60" height="61" viewBox="0 0 60 61" fill="none" xmlns="http://www.w3.org/2000/svg">
<path d="M52.5 25.9409C52.5 43.4409 30 58.4409 30 58.4409C30 58.4409 7.5 43.4409 7.5 25.9409C7.5 19.9735 9.87053 14.2506 14.0901 10.031C18.3097 5.81145 24.0326 3.44092 30 3.44092C35.9674 3.44092 41.6903 5.81145 45.9099 10.031C50.1295 14.2506 52.5 19.9735 52.5 25.9409Z" fill="#58A6A0" stroke="#58A6A0" stroke-width="2" stroke-linecap="round" stroke-linejoin="round"/>
<path d="M30 33.4409C34.1421 33.4409 37.5 30.0831 37.5 25.9409C37.5 21.7988 34.1421 18.4409 30 18.4409C25.8579 18.4409 22.5 21.7988 22.5 25.9409C22.5 30.0831 25.8579 33.4409 30 33.4409Z" fill="white" stroke="#58A6A0" stroke-width="2" stroke-linecap="round" stroke-linejoin="round"/>
</svg>
