<svg width="111" height="125" viewBox="0 0 111 125" fill="none" xmlns="http://www.w3.org/2000/svg">
<g clip-path="url(#clip0_235_3213)">
<path d="M55.4958 122.923C86.1453 122.923 110.992 98.109 110.992 67.4998C110.992 36.8906 86.1453 12.077 55.4958 12.077C24.8463 12.077 0 36.8906 0 67.4998C0 98.109 24.8463 122.923 55.4958 122.923Z" fill="#58A6A0"/>
<path d="M53.9292 0H55.706L57.5335 0.302778L58.7629 0.672827L59.7398 1.03446L60.9019 1.64841L61.8114 2.25394L62.4262 2.75013L63.0409 3.29679L63.8325 4.08734L64.4388 4.88629L65.1125 5.92075L65.8452 7.44298L66.3336 8.97363L66.5189 9.57916L67.8073 10.252L69.0874 11.093L69.879 11.6985L70.7211 12.4302L72.0011 13.7169L72.5569 14.3898L73.2895 15.3653L74.0222 16.5259L74.8643 18.208L75.4201 19.604L75.8496 21.0085L76.1527 22.413L76.338 23.8764L76.397 25.1043L76.4559 32.6734L77.0707 33.2201L77.677 34.0611L78.1065 34.9778L78.2917 35.7095L78.3507 36.3234V38.3334L78.2328 39.5613L77.9212 40.7135L77.5591 41.6302L77.0707 42.5469L76.5149 43.2786L75.8496 44.0775L75.0075 44.742L74.1654 45.297L71.5969 46.5754L71.2937 46.6342L71.1085 47.1893L70.4348 48.6527L69.82 49.8133L69.1547 50.8477L68.54 51.6887L67.8663 52.4793L67.4368 52.967L66.2157 54.2538L65.542 54.8005L64.7504 55.406L64.6915 61.0829L65.3567 61.2679L82.595 67.0036L83.8161 67.5587L84.7929 68.1642L85.4077 68.652L86.014 69.1987L86.5698 69.7537L87.3025 70.7293L87.8498 71.646L88.3382 72.8066L88.6414 73.7821L88.8856 75.1194L91.9425 96.4812L92.0015 96.8512V97.339L91.092 97.524L90.1741 97.6418L90.5362 100.165L90.6625 101.267L90.7804 101.443L92.1278 101.267H92.6162L93.0457 104.134L93.8373 109.685L93.9636 110.728L94.0226 111.636V113.966L93.8963 115.429L93.5931 116.775L93.231 117.868L92.5573 119.273L92.1278 119.945L91.5131 120.786L90.6709 121.703L90.1825 122.191L89.3404 122.855L88.3635 123.469L87.4456 123.957L86.1656 124.445L84.8182 124.815L83.7824 124.992H81.5171L79.8328 124.63L78.4854 124.201L76.9612 123.469L76.0433 122.855L75.3696 122.376L74.7548 121.829L73.9632 121.039L73.5338 120.551L72.978 119.937L72.6159 119.449L72.4895 119.39V123.217L72.3716 123.705L72.0685 124.251L71.58 124.68L70.9653 124.983H38.7794L38.0383 124.563L37.6173 124.134L37.3731 123.587L37.3057 123.032L33.4572 123.091L32.8509 123.461L31.8656 123.949L31.0235 124.319L29.5582 124.739L28.2697 124.983H26.0128L24.3286 124.621L22.6444 124.075L21.4149 123.461L20.8675 123.091L20.5054 123.032H7.99987L7.88197 123.646L7.32617 123.52L4.6398 122.603L4.15137 122.359L4.33663 121.754L5.25456 119.071L6.16405 116.438L7.08196 113.756L7.99987 111.132L9.28831 107.406L10.1978 104.782L10.8715 102.89L11.242 102.957L12.7073 103.445L12.9515 102.831L13.9284 99.9629L14.0547 99.534L13.381 99.349L12.3368 98.9874L12.2778 98.8023L12.8926 97.0362L13.8105 94.3449L14.72 91.721L16.0084 88.0037L16.5558 86.4731L17.1706 84.707L18.2064 81.6541L18.998 79.3917L20.4043 75.3044L20.9601 73.841L21.3222 73.1093L21.878 71.831L22.4254 70.847L23.0317 70.006L23.8739 69.0893L24.4886 68.5426L25.3307 67.9287L26.3076 67.382L27.4697 66.8943L43.9753 61.4024L44.9522 61.0913L45.0111 61.0324V55.4817L44.4637 54.9939L43.849 54.5061L43.0574 53.766L41.8953 52.6138L41.2216 51.7728L40.6068 50.9823L39.8742 49.8217L39.032 48.1397L38.4173 46.7352L35.4867 45.2718L34.6446 44.6578L34.1056 44.1617L33.7941 43.9178L33.2467 43.245L32.7582 42.5721L32.0845 41.2938L31.7224 40.1921L31.5372 39.2754L31.4782 38.7876V36.1048L31.6551 35.188L32.0256 34.2713L32.514 33.5396L33.2467 32.7491L33.373 32.6229L33.4319 24.4483L33.5498 23.1615L33.7351 22.0682L34.1056 20.5376L34.5941 19.0742L35.2678 17.552L35.933 16.3325L36.7752 15.0458L37.2046 14.4991L37.4489 14.558L38.291 15.2308L38.7205 15.5335L38.9647 15.4158L39.3942 14.8607H39.5205L39.6384 14.6168L40.5563 13.7085L40.371 13.3974L39.6973 12.6657L39.3942 12.304L39.5205 12.0601L40.43 11.3285L41.4742 10.5884L42.7542 9.85669L43.31 9.55393L43.4869 9.00728L43.7985 7.9644L44.4048 6.50105L45.0785 5.34044L45.8111 4.36486L46.3585 3.75933L46.788 3.27156L47.2764 2.84263L48.0764 2.22871L48.9859 1.62318L49.9712 1.13537L50.8133 0.765326L51.9754 0.403696L53.4997 0.0925249L53.9292 0Z" fill="#020202"/>
<path d="M49.0453 57.5506L49.5927 57.6768L51.1169 58.1057L52.4054 58.3496L53.4749 58.4589L54.3928 58.5262H55.4286L56.9613 58.4L58.4265 58.1562L59.6476 57.8534L60.5655 57.5422H60.8097V61.7472L60.8687 62.849L61.1129 63.5218L61.4834 63.9423L62.3256 64.3713L81.2143 70.662L82.1912 71.1498L82.8059 71.5787L83.4123 72.1254L83.9007 72.6721L84.4565 73.5887L84.8186 74.5643L85.0628 75.8511L86.225 83.9669V84.5303L83.6986 85.3714L81.0712 86.2124L78.3848 87.1291L78.1406 87.0113L76.9195 84.564L76.3048 83.2857L75.8837 82.6128L75.269 82.1839L74.4268 81.6961L72.7426 80.7205L71.2773 79.8795L69.5089 78.8451L68.1615 78.0545L66.9993 77.3817L64.6161 75.9772L63.3951 75.2456L59.8497 73.1682L58.9318 72.6216L58.755 72.6804L57.9128 74.1438L57.3655 75.0605L56.936 75.7333V75.9184L57.7781 76.4062L58.4518 76.835L59.0076 77.1378L60.4729 77.9789L62.1571 78.9544L62.9993 79.4422L64.6835 80.4178L66.1488 81.2588L67.0667 81.8139L68.1109 82.4194L68.8436 82.7894V82.9072L69.1467 82.9745V83.0922L69.4499 83.2184L70.1236 83.58L70.4941 83.765V83.8827L70.7973 84.0089L71.1678 84.1939L71.8331 84.6228L72.5658 84.9845V85.1106L72.8773 85.2284L73.1215 85.4723L73.8542 86.8768L75.3195 89.8035L75.5637 90.3586L75.8079 91.0314L76.0521 91.8724L76.1784 92.2424L76.3553 93.0834L76.4816 94.6141V95.7747L76.3553 96.9942L76.0521 98.3987L75.69 99.492L75.1932 100.653L74.89 101.267L74.5869 101.199L73.3658 100.358L73.1805 100.299V100.173L72.9363 100.114L72.4479 99.7443L72.1447 99.5677L71.7152 99.2565L71.412 99.0715L70.4268 98.4071L70.1236 98.0959L69.5173 96.6914L69.2057 95.9597L68.7762 95.043L68.2288 93.7647L67.9846 93.2769L67.7994 92.7891L67.4962 92.0574L66.8225 90.5941L65.9046 88.4579L65.113 86.6833L64.1951 84.5472L63.5887 82.9661L63.1003 81.982L62.6119 81.1915L61.9971 80.401L61.3234 79.7281L60.4055 79.0553L59.3697 78.5675L58.696 78.3237L57.7192 78.1387H56.4391L55.6981 78.3237L55.0328 78.6937L54.7886 78.6264L53.9885 78.2648L53.3822 78.1387H52.1612L50.999 78.3825L50.0811 78.7526L49.239 79.2404L48.6327 79.7281L48.0179 80.2748L47.3442 81.1158L46.7379 82.0914L46.1905 83.252L45.8789 84.1603L45.5168 85.0013L45.3315 85.4302L45.0873 85.9769L44.7842 86.7086L44.2957 87.8691L43.8663 88.7859L43.622 89.3914L43.3189 90.0054L43.0747 90.6109L42.0304 92.9321L41.7273 93.731L41.483 94.2188L40.8094 95.7411L40.5062 96.5316L40.1946 96.5989L39.3525 96.1111L38.6198 95.6822L37.643 95.1944L35.7482 94.2777L34.9482 93.9077L32.725 92.9405L31.8071 92.5789L30.2239 92.0322L28.9354 91.6032L27.3438 91.1155L26.308 90.8716L25.3312 90.6277L23.7396 90.2576L22.7627 90.0138L22.8216 89.4082L24.5985 77.079L24.9017 75.0605L25.1459 74.1438L25.6343 73.1094L26.1901 72.3777L26.7375 71.7638L27.4702 71.2171L28.447 70.7293L29.5502 70.3004L33.9461 68.837L34.9903 68.5342L35.5377 68.3492L35.9672 68.1642L37.003 67.8614L38.4683 67.3736L39.083 67.1298L40.7673 66.5747L41.1967 66.642L41.7441 67.0036L42.5862 67.4914L43.5041 68.0465L44.0515 68.3492L44.4136 68.5342V68.652L44.7252 68.7782L45.7021 69.3248L46.62 69.8715H46.8642L47.2263 69.2659L47.5379 68.7109H47.6558L47.7148 68.467L48.6748 66.869L48.7337 66.6252L46.3505 65.2206L45.9884 64.9768V64.8506L47.9421 64.1778L48.4895 63.8162L48.8011 63.3284L48.9779 62.7144L49.0453 57.5506Z" fill="#FCB649"/>
<path d="M54.8473 24.9025L55.1505 25.0875L56.1358 26.0631L56.8011 26.6097L57.8453 27.4003L58.7632 28.0142L59.9169 28.687L60.9022 29.1748L61.8117 29.6037L63.2854 30.1504L64.8096 30.5793L66.7044 30.9409L68.5402 31.1848L68.5992 31.2521V33.7752L68.5402 41.8321L68.355 43.1188L68.0518 44.3972L67.6813 45.4989L67.0076 47.0211L66.216 48.3668L65.4833 49.3423L64.6917 50.2591L63.9507 50.9907L63.2854 51.5374L62.4854 52.1513L61.6938 52.6391L60.3464 53.3708L59.1253 53.8586L57.66 54.2875L55.9758 54.5903L55.1842 54.6491H54.5105L53.2894 54.5314L51.6052 54.1614L50.3252 53.7324L49.1041 53.1858L48.0682 52.6391L47.3356 52.1513L46.5356 51.5374L45.6935 50.8057L44.8514 49.9647L44.304 49.2919L43.6303 48.3752L43.1419 47.5342L42.4092 46.1381L41.8534 44.6663L41.4913 43.2029L41.306 41.9246L41.2471 41.1256V31.1175L41.365 31.0587L42.6534 30.9409L44.4808 30.6298L46.1651 30.2008L47.8493 29.5953L49.0704 29.0487L50.2325 28.4347L51.4536 27.703L51.6304 27.6442V27.518L52.1862 27.1564L52.9189 26.6013L53.7105 25.9285L54.5105 25.1968L54.8473 24.9025Z" fill="#FDDFC1"/>
<path d="M56.9272 82.0073L57.6599 82.0746L58.3925 82.4362L59.0073 82.9241L59.5547 83.6557L60.0431 84.6397L60.6578 86.3217L61.4494 88.0963L62.4852 90.4175L63.5884 92.9405L64.8095 95.7495L65.9127 98.2726L66.7548 100.224L67.0664 100.77L67.3695 101.082L68.0432 101.569L84.1867 112.284L85.0288 112.831H85.1551L85.5762 112.158L86.0646 111.426L87.1089 109.904L87.1678 109.66L84.5404 107.885L82.014 106.245L78.8897 104.168L78.0476 103.554L78.1066 103.251L78.7213 102.091L79.3277 100.569L79.7571 99.0967L80.0603 97.5745L80.1277 96.9017L80.4308 96.7167L81.6519 96.2962L86.1152 94.6141L87.3952 94.1263L87.6394 94.1936L88.1278 97.8521L88.9278 97.7932L90.0815 97.667L90.2668 98.3987L90.6373 101.334L90.6963 101.578L88.7426 101.881L90.0226 111.039L90.0815 111.947V113.84L89.9636 115.126L89.6605 116.22L89.231 117.137L88.8015 117.868L88.3131 118.482L87.7657 119.096L87.2099 119.584L86.1741 120.248L85.012 120.736L83.7909 121.047L83.2435 121.106H81.9551L80.8603 120.921L79.8834 120.618L78.8982 120.131L78.2329 119.702L77.5592 119.155L76.8266 118.423L76.2708 117.75L75.4792 116.909L74.9318 116.237L74.1991 115.446L73.6434 114.773L72.9696 114.042L72.5486 113.554L71.8159 112.713L71.2601 112.099L70.8306 111.611L70.098 110.77L69.5506 110.164L69.1211 109.677L68.3885 108.836L67.8411 108.23L67.4116 107.734L66.679 106.893L66.1316 106.279L65.82 105.976L65.2642 105.556L64.9611 105.488L61.8368 105.43L60.7421 105.186L59.7652 104.698L59.2094 104.269L58.4178 103.478L57.8031 102.562L57.382 101.645L57.1967 101.216L57.0115 100.552L56.8936 99.3911V82.1503L56.9272 82.0073Z" fill="#FDDFC1"/>
<path d="M52.6328 82.0073H52.877L52.9359 82.1335V98.8529L52.877 100.013L52.6328 101.115L52.2622 102.091L51.7907 103.033L51.3022 103.638L50.4601 104.479L49.618 104.967L48.8853 105.27L47.9674 105.455L44.9105 105.514L44.3631 105.64L43.8747 105.943L43.6895 106.01L43.5715 106.254L42.7715 107.095L42.2242 107.768L41.4915 108.558L40.9441 109.231L40.1441 110.072L39.5967 110.745L38.9904 111.409L38.5609 111.897L36.9693 113.73L36.3546 114.403L35.8072 115.076L35.0156 115.917L34.4682 116.59L33.8535 117.263L33.424 117.75L32.6324 118.667L32.0176 119.281L31.285 119.828L30.3081 120.374L29.3313 120.744L28.2955 120.988L27.7397 121.047H26.527L25.4238 120.862L24.1438 120.433L23.2259 119.945L22.4932 119.399L21.8785 118.852L21.2048 118.12L20.5395 117.019L20.0511 115.858L19.79 114.807L19.7227 114.311V111.325L20.0342 109.004L21.988 95.3963L22.2322 93.9918L22.9059 94.0507L24.8007 94.4207L26.6954 94.9085L28.8934 95.6402L29.4997 95.8841L29.5671 96.0018L29.7439 97.6838L30.1144 99.4584L30.485 100.619L30.9734 101.897L31.5208 102.932L31.765 103.42V103.605L30.6618 104.336L28.0344 106.111L25.348 107.877L24.1859 108.676L23.0827 109.408L22.6617 109.651L22.7206 109.954L23.3943 110.93L24.127 112.032L24.6743 112.873L24.9775 112.755L27.3607 111.165L29.9881 109.399L32.6829 107.625L35.3103 105.858L37.9967 104.084L40.6241 102.318L42.0305 101.401L42.5778 100.972L42.8894 100.611L43.4958 99.2649L44.2958 97.4315L45.3905 94.9085L46.2327 92.9489L47.3358 90.4259L48.1779 88.4747L49.2138 86.0946L49.8285 84.5051L50.3759 83.4707L50.9317 82.7979L51.597 82.3101L52.1528 82.0662L52.6328 82.0073Z" fill="#FDDFC1"/>
<path d="M49.0451 57.5506L49.5925 57.6768L51.1167 58.1057L52.4051 58.3496L53.4746 58.4589L54.3925 58.5262H55.4283L56.961 58.4L58.4263 58.1562L59.6474 57.8534L60.5653 57.5422H60.8095V61.7472L60.8684 62.849L61.1127 63.5218L61.4832 63.9423L62.3253 64.3713L81.2141 70.662L82.1909 71.1498L82.8057 71.5787L83.412 72.1254L83.9004 72.6721L84.4562 73.5887L84.8184 74.5644L85.0626 75.8511L86.2247 83.9669V84.5304L83.6983 85.3714L81.0709 86.2124L78.3845 87.1291L78.1403 87.0114L76.9193 84.564L76.3045 83.2857L75.8834 82.6128L75.2687 82.1839L74.4266 81.6961L72.7423 80.7205L71.2771 79.8795L69.5086 78.8451L68.1612 78.0545L66.9991 77.3817L64.6159 75.9773L63.3948 75.2456L59.8495 73.1682L58.9316 72.6216L58.7547 72.6804L57.9126 74.1438H57.6852L57.3821 73.9672L56.9526 73.7822L55.6052 72.9412L55.302 72.6973L54.9315 72.5795L54.7546 72.4534L54.4431 72.3945L54.6283 71.9067L54.9315 71.4189L55.4199 70.6284L55.361 70.4434L53.7694 69.5266L52.4304 68.7361L52.1272 68.6688L51.2851 70.1995L51.0998 70.2584V70.2331H50.7967V70.1069L50.5525 70.0481L49.5756 69.5014L48.2282 68.6604L47.925 68.4165L47.984 68.1726L48.7166 66.8943L48.7756 66.6504L46.3924 65.2459L46.0303 65.002V64.8758L47.984 64.203L48.5314 63.8414L48.843 63.3536L49.0198 62.7397L49.0451 57.5506Z" fill="#FDDFC1"/>
<path d="M49.9633 11.7153H59.3698L60.9024 11.8415L62.4856 12.2031L63.9509 12.6909L65.2394 13.3048L66.4604 14.0365L67.1931 14.5832L67.8668 15.1382L68.7089 15.9288L69.1384 16.4166L69.7531 17.1483L70.4268 18.1239L70.9153 18.9649L71.4626 20.1255L71.8921 21.2861L72.2542 22.7494L72.4395 23.9689L72.4984 24.8099V28.5272L72.3806 28.6534L72.1363 28.0983L71.6479 27.6778L71.3447 27.4928L70.73 27.3666L68.4057 27.19L66.3931 26.8788L65.1046 26.576L63.2772 25.9621L61.8035 25.2977L60.4056 24.4987L59.5635 23.8932L58.8898 23.3381L58.0982 22.6065L57.5424 22.0009L56.8097 20.8992L56.3213 20.2264L55.8918 19.8647L55.4707 19.6797H54.2497L53.8791 19.8647L53.2644 20.4703L52.9023 20.9581L52.4728 21.1431L52.1696 21.5132L51.3696 22.0598L50.3338 22.6738L48.6495 23.4054L46.4516 24.1371L45.0453 24.4987L43.0326 24.8688L39.0578 25.4154L38.3167 25.6593L37.8283 26.021L37.6514 26.3321L37.4662 26.6938H37.4072V23.8848L37.6514 22.4214L38.0725 20.8992L38.5609 19.6797L39.1757 18.4603L39.6641 17.7286L40.3378 16.8119L40.0346 16.6857L38.9904 15.8447L38.9315 15.6597L38.8136 15.6008L39.361 14.9869L39.4199 14.8607H39.5462L39.6641 14.6168L40.582 13.7085L40.8262 13.8263L41.7442 14.8018L41.9884 15.0457L42.3505 14.8018L43.0916 14.2552L43.3947 14.0702L44.001 13.6412L44.8432 13.1535L46.1232 12.6068L47.4116 12.1779L48.818 11.8751L49.9633 11.7153Z" fill="#414951"/>
<path d="M57.6849 82.2091L58.0555 82.2764L58.6028 82.638L58.9734 82.9408L59.5208 83.6725L60.0092 84.6565L60.6239 86.3385L61.4155 88.113L62.485 90.4174L63.5882 92.9405L64.8093 95.7495L65.9125 98.2725L66.7546 100.224L67.0662 100.77L67.3693 101.081L68.043 101.569L84.1865 112.284L85.0286 112.83H85.1549L85.576 112.158L86.0644 111.426L87.1087 109.904L87.1676 109.66L84.5402 107.885L82.0138 106.245L78.8895 104.168L78.0474 103.554L78.1064 103.251L78.7211 102.091L79.3275 100.568L79.7569 99.0967L80.0601 97.5745L80.1275 96.9017L80.4306 96.7166L81.6517 96.2961L86.115 94.6141L87.395 94.1263L87.6392 94.1936L88.1276 97.852L88.9277 97.7931L90.0814 97.667L90.2666 98.3986L90.6372 101.334L90.6961 101.578L88.7424 101.88L90.0224 111.039L90.0814 111.947V113.84L89.9634 115.126L89.6603 116.22L89.2308 117.136L88.8013 117.868H88.6834L88.6161 117.692V117.019L88.3718 116.834L88.0097 116.649L87.1676 116.102L86.4939 115.673L85.3992 114.941L82.5949 113.125L81.2475 112.284L80.0264 111.443L78.5022 110.467L76.2116 109.004L75.5379 108.575L73.281 107.112L71.9336 106.271L70.9568 105.657L70.1147 105.11L68.961 104.378L68.1188 103.823L66.7714 102.982L66.1651 102.553L65.4325 102.007L65.003 101.578L64.5145 100.846L63.8998 99.4415L62.5608 95.7158L61.9461 94.0338L61.1545 91.9565L60.725 90.737L59.8829 88.542L59.2766 86.7758L58.5439 84.7574L58.2997 84.1434L57.8112 82.8062L57.626 82.2596L57.6849 82.2091Z" fill="#FFF1DE"/>
<path d="M51.2429 82.5792L51.4282 82.638L51.184 83.1847L51.1166 83.4959H50.9987L50.8134 84.2864L50.5692 85.0181L50.2071 86.2964L49.466 88.5588L48.9776 90.0222L48.5565 91.3678L47.9418 93.26L47.2091 95.3962L46.5944 97.1624L45.8617 99.3574L45.4407 100.585L44.9438 101.376L44.6407 101.746L43.967 102.293L42.5269 103.268L41.4911 103.941L41.0616 104.185L40.0258 104.858L38.6784 105.699L37.7016 106.313L36.4805 107.103L35.8068 107.532L34.6447 108.264L33.6678 108.878L32.2362 109.761L31.4446 110.257L30.4004 110.921L28.9351 111.838L27.8993 112.511L25.5161 114.1L24.5392 114.773L23.8655 115.194L23.495 115.438H23.3771V115.564L22.5771 116.052L21.0528 116.968L20.9265 117.212H20.6318L20.2023 116.371L19.8991 115.396L19.7139 114.294V111.308L20.0254 108.987L21.9792 95.3794L22.2234 93.9749L22.8971 94.0338L24.7919 94.4038L26.6866 94.8916L28.8846 95.6233L29.4909 95.8672L29.5583 95.9849L29.7351 97.667L30.1056 99.4415L30.4762 100.602L30.9646 101.88L31.512 102.915L31.7562 103.403V103.588L30.653 104.319L28.0256 106.094L25.3392 107.86L24.1771 108.659L23.0739 109.391L22.6529 109.635L22.7118 109.937L23.3855 110.913L24.1182 112.015L24.6655 112.856L24.9687 112.738L27.3519 111.148L29.9793 109.382L32.6741 107.608L35.3015 105.842L37.9879 104.067L40.6153 102.301L42.0217 101.384L42.569 100.955L42.8806 100.594L43.487 99.2481L44.287 97.4147L45.3817 94.8916L46.2239 92.932L47.327 90.409L48.1692 88.4578L49.205 86.0778L49.8197 84.4883L50.3671 83.4538L50.9229 82.781L51.2429 82.5792Z" fill="#FFEFDD"/>
<path d="M18.2401 93.7816H18.3664L18.299 94.3282L17.9959 95.9177L17.8106 97.0111L17.6927 98.1716L17.4485 99.7023L17.019 102.629L16.8337 103.848L16.7158 104.824L16.4042 106.96L16.2274 108.491L16.0421 109.525L15.9832 110.257L15.8569 110.871V114.714L15.9832 115.631L16.2863 116.909L16.5306 117.641L16.7748 118.255L17.5074 119.601L17.9959 120.332L18.4843 120.938L19.158 121.67L19.6464 122.157L20.438 122.771L20.6822 122.956L20.6233 123.074H7.99987L7.88197 123.688L7.32617 123.562L4.6398 122.645L4.15137 122.401L4.33664 121.796L5.25456 119.113L6.16405 116.481L7.08196 113.798L7.99987 111.174L9.28832 107.448L10.1978 104.824L10.8715 102.932L11.242 102.999L12.7073 103.487L12.9516 102.873L13.9284 100.005L14.0547 99.6434L14.6611 99.82L15.2169 100.005L15.6379 100.131H15.9495L16.3116 99.0884L16.5558 98.4829L16.9264 97.3811L17.1706 96.7671L17.659 95.2449L17.8443 94.816L18.0885 94.0254L18.2401 93.7816Z" fill="#EF7422"/>
<path d="M50.9482 108.575H51.2514V108.701L51.4956 108.76L52.1104 109.307L52.7756 109.862L53.6936 110.652L54.4936 111.384L55.2262 112.057L55.8325 112.603L57.3652 114.134L57.7863 114.622L58.46 115.354L59.0157 116.026L59.681 116.817L60.5231 117.977L61.1379 118.894L62.0474 120.475L62.2327 120.845V121.089H41.1796L41.1207 118.827L40.8091 117.792L40.5649 116.876L40.2617 115.959L40.3207 115.715L41.0533 114.925L41.6091 114.252L42.4007 113.411L42.9481 112.738L43.5628 112.065L43.9923 111.577L44.5397 110.963L44.7249 110.72H44.8429L44.9692 110.417L45.7018 109.626L45.8871 109.382L48.2029 109.315L49.3061 109.138L50.224 108.894L50.9482 108.575Z" fill="#F58C84"/>
<path d="M49.2643 11.7826H54.8813L54.9486 14.3056V15.4662L54.8813 17.7286L54.7044 18.4014L54.216 19.3097L54.0307 19.4947L53.9044 19.8059L53.2307 20.4703L52.8686 20.9581L52.4391 21.1431L52.1359 21.5131L51.3359 22.0598L50.3001 22.6737L48.6159 23.4054L46.4179 24.1371L45.0116 24.4987L42.9989 24.8688L39.0241 25.4154L38.3167 25.6593L37.8283 26.021L37.6514 26.3321L37.4662 26.6938H37.4072V23.8848L37.6514 22.4214L38.0725 20.8992L38.5609 19.6797L39.1757 18.4603L39.6641 17.7286L40.3378 16.8119L40.0346 16.6857L38.9904 15.8447L38.9315 15.6597L38.8136 15.6008L39.361 14.9869L39.4199 14.8607H39.5462L39.6641 14.6168L40.582 13.7085L40.8262 13.8263L41.7442 14.8018L41.9884 15.0457L42.3505 14.8018L43.0916 14.2552L43.3947 14.0702L44.001 13.6412L44.8432 13.1535L46.1232 12.6068L47.4116 12.1779L48.818 11.8751L49.2643 11.7826Z" fill="#575A65"/>
<path d="M61.3909 79.3414H61.8119L62.974 79.8291L63.8162 80.3842L64.6078 80.9308L65.2815 81.3598L66.3846 82.0242L67.7236 82.8652L72.0016 85.3883L72.49 85.7499L72.8605 86.1788L73.1637 86.6666L73.5343 86.8516L73.5932 87.1544L73.7784 86.9105L75.2438 89.8372L75.488 90.3923L75.7322 91.0651L75.9764 91.9061L76.1027 92.2762L76.2795 93.1172L76.4059 94.6479V95.8084L76.2795 97.0279L75.9764 98.4324L75.6143 99.5257L75.1174 100.686L74.8143 101.3L74.5111 101.233L73.29 100.392L73.1048 100.333V100.207L72.8605 100.148L72.3721 99.778L72.0689 99.6014L71.6395 99.2902L71.3363 99.1052L70.351 98.4408L70.0479 98.1296L69.4415 96.7251L69.13 95.9935L68.7005 95.0767L68.1531 93.7984L67.9089 93.3106L67.7236 92.8228L67.4204 92.0911L66.7468 90.6278L65.8289 88.4916L65.0373 86.717L64.1193 84.5809L63.513 82.9998L63.0246 82.0158L62.5362 81.2252L62.4688 81.1075H62.5951V80.7374L62.3509 80.6197V80.4936L62.1656 80.4347L61.7361 79.8796L61.6182 79.8208V79.6357L61.3066 79.5768L61.3909 79.3414Z" fill="#FCB64A"/>
<path d="M23.6218 94.2357L24.2281 94.2946L26.6787 94.9086L28.8766 95.6402L29.4829 95.8841L29.5503 96.0019L29.7271 97.6839L30.0977 99.4584L30.4682 100.619L30.9566 101.897L31.504 102.932L31.7482 103.42V103.605L30.6451 104.336L28.0176 106.111L25.3313 107.877L24.1691 108.676L23.066 109.408L22.6449 109.652L22.7039 109.954L23.3775 110.93L23.807 111.603H23.3102L22.4681 112.032L21.9207 112.393L21.0786 112.881L20.8343 112.822L20.7754 112.763V111.964L21.0196 110.686L21.3817 108.432L21.6344 107.145L22.1228 104.219L22.7881 100.249L23.3439 96.7672L23.7733 94.5133L23.8912 94.4544L23.5881 94.3283L23.6218 94.2357Z" fill="#FDDFC1"/>
<path d="M85.8286 94.7234L85.9549 94.7823V94.9673L86.1402 95.0851L86.5696 97.8352L87.8497 105.16L88.5233 109.13L88.8855 111.266L89.1971 113.158V113.461L88.9528 113.579L88.1528 112.973L87.4202 112.301L87.0581 112.057L86.8138 111.813L86.6286 111.687V111.569H86.5023L86.5696 111.081L86.9907 110.711L87.2349 110.223L87.3612 109.921V109.761H87.2349L86.9318 109.458L84.2454 107.692L78.9232 104.151L78.0811 103.537L78.14 103.235L78.7547 102.074L79.3611 100.552L79.7906 99.0799L80.0937 97.5577L80.1611 96.8849L80.4642 96.6998L81.6853 96.2793L83.7654 95.4383L85.8286 94.7234Z" fill="#FBDFC1"/>
<path d="M10.9057 102.898L11.2762 102.965L13.112 103.571L13.7184 103.815L14.451 104L14.5773 104.126V104.488L14.3921 104.858L14.2068 105.522L14.0215 105.951L13.6005 107.17L13.0447 108.852L12.8004 109.458L12.4973 110.434L12.2531 111.048L11.9499 111.889L11.7646 112.444L11.3352 113.781L11.1499 114.21L10.973 114.765L10.6025 115.917L10.3583 116.531L10.0551 117.507L9.81091 118.12L9.19617 119.887L8.83406 121.047L8.58984 121.661L8.09299 122.998L7.91614 123.612L7.36035 123.486L4.67398 122.569L4.18555 122.326L4.37081 121.72L5.28872 119.037L6.19822 116.405L7.11613 113.722L8.03404 111.098L9.32249 107.372L10.232 104.748L10.9057 102.898Z" fill="#020202"/>
<path d="M54.8477 24.9025L55.1508 25.0875L56.1361 26.0631L56.8014 26.6097L57.8456 27.4003L58.7635 28.0142L59.9172 28.687L60.9025 29.1748L61.812 29.6037L63.2857 30.1504L64.81 30.5793L66.7047 30.9409L68.5406 31.1848L68.5995 31.2521V33.7752L68.5406 41.8321L68.3553 43.1188L68.0521 44.3972L67.6816 45.4989L67.0079 47.0211L66.2163 48.3668L65.4837 49.3423L64.6921 50.259L63.951 50.9907L63.2857 51.5374L62.4857 52.1513L62.1826 52.2691V51.9075L62.3678 51.2935L62.671 50.8057H62.7973L62.9152 50.5618L63.3447 50.074H63.4626L63.5889 49.7713L63.8331 49.4601L64.3805 48.5518L64.9363 47.5089L65.2395 46.8361L65.669 45.8017L65.9131 45.1877L66.3342 43.5477L66.5195 42.631L66.5784 41.79L66.6458 40.6967L66.7047 38.6783L66.6458 36.4243L66.5784 33.8004V33.0014L66.5195 32.8248L66.2163 32.6987L65.2984 32.5136L63.8331 32.0847L62.4857 31.5969L61.2057 31.0503L59.5215 30.1336L58.9067 29.7047L58.7888 29.6458V29.528L58.5446 29.4019L58.1741 29.158L57.5677 28.6113L57.0793 28.1824L56.2793 27.3919V27.3414L56.1024 27.2825L55.6729 26.7947L55.3614 26.4247L55.1172 25.8192L55.0582 25.508L54.814 25.5753L54.3256 26.1808L53.7108 27.1564L53.0455 27.8881L52.3718 28.5609L51.6982 29.1159L51.2687 29.4776H51.1508V29.6037L50.2329 30.2093L49.3149 30.7643L48.3381 31.2521L47.3612 31.6726L46.1991 32.1015L44.6075 32.5305L43.2685 32.8332L42.1064 33.0183L42.039 33.0771H41.3064L41.2474 35.6422H41.1885V31.1848L41.3064 31.126L42.5948 31.0082L44.4222 30.697L46.1065 30.2681L47.7907 29.6626L49.0118 29.1159L50.1739 28.502L51.395 27.7703L51.5718 27.7115V27.5853L52.1276 27.2236L52.8603 26.6686L53.6519 25.9958L54.4519 25.2641L54.8477 24.9025Z" fill="#FFDAAC"/>
<path d="M54.8475 105.278L55.0917 105.404L55.4622 105.951L56.0096 106.565L56.3127 106.927L56.9865 107.482L57.6601 107.969L58.8223 108.575L60.2286 109.063L61.2055 109.248L61.8118 109.307L63.7739 109.374L64.0771 109.618L64.3803 110.038L64.6919 110.35L65.1129 110.837L65.3571 111.14L65.6687 111.443V111.569H65.7866L66.0898 111.998L66.4014 112.301L66.8308 112.788L67.075 113.091L67.3782 113.402L67.8077 113.949L68.1109 114.252L68.953 115.227V115.354H69.0709V115.471H69.1972V115.597H69.3151V115.715H69.4751L69.4077 116.085L68.6751 118.768L68.5572 121.03L68.4898 121.089H66.4182L65.7445 119.323L65.1297 118.036L64.3382 116.691L63.5466 115.539L62.5697 114.252L62.0139 113.579L61.2812 112.738L59.597 110.905L58.6201 109.929L58.4938 109.87V109.761H58.3759V109.643L58.1317 109.517L57.2896 108.676L56.6833 108.121L56.1949 107.692L55.5801 107.145L55.1506 106.843L54.8475 106.54L54.418 106.17L54.4769 105.926L54.7211 105.497H54.8475V105.278Z" fill="#FCB649"/>
<path d="M40.7926 66.5831L41.2221 66.6504L41.7695 67.0121L42.3842 67.3821L42.5021 67.626L42.4432 67.7437L41.34 68.0549L39.3273 68.7193L37.6431 69.2071L33.6093 70.435L32.5735 70.7377L31.5798 71.0742L30.7377 71.4442L29.9377 71.932L29.3314 72.4198L28.7166 72.9665L27.925 74.0093L27.4366 74.926L27.0661 75.8427L26.704 77.3649L26.2155 80.2328L25.845 82.369L24.6239 89.812V90.2997H24.0765L22.7881 89.997L22.847 89.3915L24.6239 77.0622L24.9271 75.0437L25.1713 74.1271L25.6597 73.0926L26.2155 72.3609L26.7629 71.747L27.4955 71.2003L28.4724 70.7125L29.5756 70.2836L33.9715 68.8203L35.0157 68.5175L35.5631 68.3325L35.9925 68.1475L37.0284 67.8447L38.4936 67.3569L39.1084 67.113L40.7926 66.5831Z" fill="#FEDA74"/>
<path d="M62.6709 64.632L63.4035 64.7581L81.1891 70.6452L82.166 71.133L82.7807 71.5619L83.3871 72.1085L83.8755 72.6552L84.4313 73.5719L84.7934 74.5475L85.0376 75.8342L86.1997 83.95V84.5303L84.6082 85.077L84.3639 85.0181L84.1197 85.077L84.305 84.7742L84.1871 83.7398L83.6902 80.7458L83.2018 77.9368L82.7807 75.9268L82.2923 74.7073L81.7365 73.7906L81.4923 73.4794V73.3616H81.3744L81.0039 72.9328V72.815H80.886V72.6888L80.6418 72.5711L79.9091 71.9572L79.067 71.4694L78.1491 71.0405L76.987 70.6116L74.789 69.9471L73.3237 69.5182L71.37 68.9632L69.7784 68.4753L68.431 68.1137L66.9068 67.626L65.2225 67.0709L64.3804 66.6504L63.833 66.0953L63.5299 65.4898L63.0414 65.0608L62.6709 64.7581V64.632Z" fill="#FFEFDD"/>
<path d="M35.1669 71.6545L35.8995 71.7134L36.5143 71.8984L37.129 72.3273L37.6174 72.874L37.8617 73.4795L37.9206 73.6645V75.1279L37.6174 76.0446L37.188 76.8856H37.0616L37.0027 77.1295H36.8848L36.7585 77.4322H36.6322L36.5058 77.6761L36.0764 78.1639L35.3437 78.719L34.3079 79.2657L33.39 79.5096H32.2279L31.4952 79.2657L30.8805 78.8367L30.5184 78.4078L30.2152 77.8023L30.0889 77.3734V76.4567L30.3331 75.4222L30.8215 74.4467L31.251 73.8327L31.7984 73.2188L32.4131 72.6721L32.9605 72.3104L33.5753 72.1254V71.9993L34.3079 71.7554L35.1669 71.6545Z" fill="#FDFDFC"/>
<path d="M42.9313 32.9005L43.1166 32.9594L43.1755 39.5529L43.2345 41.235L43.3608 42.7067L43.664 44.3888L43.9671 45.4821L44.2787 46.3988L44.5229 47.0128L45.0114 48.1733L45.6851 49.3928L46.1735 50.1245L46.4177 50.4273V50.6123H46.5356L46.9061 51.1001L47.083 51.2851V51.4028H47.2093V51.529H47.3356V51.6468L47.6388 51.7729L48.3125 52.3869L48.4304 52.4457V52.5719L48.6746 52.698L49.3483 53.1269L49.4072 53.3035L49.1041 53.2447L48.0682 52.698L47.3356 52.2102L46.5356 51.5963L45.6935 50.8646L44.8514 50.0236L44.304 49.3508L43.6303 48.4341L43.1419 47.593L42.4092 46.197L41.8534 44.7252L41.4913 43.2618L41.306 41.9835L41.2471 41.1845V35.6338L41.306 33.0098H42.2829L42.9313 32.9005Z" fill="#FFEFDD"/>
<path d="M52.6324 20.9917H52.8177L52.6914 21.3617L52.144 22.0934L51.5882 22.7073L50.9229 23.3718L50.0808 24.0446L49.1629 24.6585L48.0681 25.264L47.0828 25.7518L45.4996 26.3658L44.2112 26.7358L42.6869 27.0386L40.6658 27.2825L38.9816 27.4002L38.3753 27.5852L37.8195 27.9553L37.5163 28.5019L37.3984 28.7458L37.3311 28.1992V24.5996H37.3984L37.4574 26.6097L37.7016 26.063L38.19 25.6341L38.7374 25.4491L41.3648 25.0874L43.8154 24.7174L45.2807 24.4146L46.9649 23.9857L48.7334 23.3718L50.0218 22.8251L51.2429 22.1523L52.0345 21.6056L52.3377 21.3029L52.6324 20.9917Z" fill="#30363D"/>
<path d="M56.9868 21.1179L57.231 21.2356V21.3618L57.6605 21.4795L58.3931 22.0934L59.2353 22.5812L60.0774 23.0101L60.9195 23.3129L61.4669 23.5568L62.7553 23.9857L64.3385 24.4146L66.7891 24.9024L68.5576 25.1463L69.5344 25.2641L71.126 25.508L71.9681 25.8191L72.2797 26.063L72.3387 26.4919L72.3976 24.8099H72.4566V28.5272L72.3387 28.6533L72.0944 28.0983L71.606 27.6778L71.3029 27.4927L70.6881 27.3666L68.3639 27.19L66.3512 26.8788L65.0628 26.576L63.2353 25.9621L61.7616 25.2977L60.3637 24.4987L59.5216 23.8932L58.8479 23.3381L58.0563 22.6064L57.5005 22.0009L56.9531 21.202L56.9868 21.1179Z" fill="#30363D"/>
<path d="M63.3447 64.817L63.7742 64.8758L81.1893 70.6789L82.1661 71.1666L82.7809 71.5955L83.3872 72.1422L83.8756 72.6888L84.4314 73.6056L84.7936 74.5811L85.0378 75.8679L86.1999 83.9837V84.5303L84.6083 85.077L84.3641 85.0181L84.1199 85.077L84.3051 84.7742L84.4314 84.0425L84.7346 83.9837L85.0967 83.8575L85.1641 83.7398V82.4531L85.0967 81.9064L85.0378 81.7802L84.9788 80.8046L84.6083 78.3657L84.2462 76.4734L83.9346 75.1278L83.6314 74.2868L83.4462 74.2279L83.0251 73.614L82.9577 73.3701L82.5956 73.2439L82.2925 73.0673L82.2251 72.8234L81.7956 72.6973L81.6188 72.5123L81.6777 72.3945H81.863L81.6188 71.9067L80.9451 71.4778L79.9682 71.0488L78.7471 70.62L77.905 70.1995L76.8692 69.8294L74.5449 69.0389L71.6733 68.1221L70.4522 67.6932L69.408 67.3905L68.4901 67.0793L67.269 66.7177L66.2332 66.3476L65.0711 65.9271L64.2795 65.5571L63.6647 65.2543L63.3616 64.9431L63.3447 64.817Z" fill="#FEF5E0"/>
<path d="M53.8706 3.9696H55.8832L56.8685 4.14624L58.0222 4.57514L59.1254 5.18909L59.7991 5.67686L60.5318 6.34969L61.0791 6.95522L61.5086 7.56915L61.7528 7.9308V8.05695L61.2055 7.99807L60.6581 7.75417L59.5549 7.14025L58.3928 6.59357L57.1128 6.16467L56.1359 5.97964L55.5211 5.92077H54.1148L52.6495 6.16467L51.1842 6.65244L50.0221 7.1991L49.1042 7.81305L48.4305 7.99807H48.0684L48.1863 7.75417L48.9189 6.71132L49.9631 5.67686L50.94 5.00406L51.8579 4.51626L52.9527 4.14624L53.8706 3.9696Z" fill="#30363D"/>
<path d="M66.334 100.4L66.8308 100.644L67.193 100.947L68.0351 101.561L84.187 112.284L85.0291 112.831H85.1554L85.5765 112.158L86.0649 111.426L87.1091 109.904L87.3534 109.778L87.4123 110.022L87.1091 110.518L86.9828 110.762H86.8649L86.7386 111.006L86.6207 111.064L86.5618 111.426L86.4944 111.552H86.6207L86.806 111.914H86.6796V112.284L86.3175 112.587H86.1912V112.713L85.4754 113.125L85.2312 113.369H84.6838L84.1954 113.184L83.5806 112.755L83.2101 112.511L82.7217 112.267L81.8796 111.653L81.509 111.409L81.2059 111.35L80.4732 110.804L79.4964 110.131L77.6437 108.92L77.0289 108.491L76.2373 108.003L75.631 107.574L75.0752 107.271L75.2015 107.145H75.0163L74.831 107.086L74.7721 106.901L74.0983 106.481L73.6689 106.17L73.6099 106.111L72.9362 105.741L72.8436 105.556L72.2288 105.127L71.9846 104.942L71.4962 104.639V104.513L71.193 104.454L70.8225 104.151L70.6457 104.092L70.5193 103.966H70.3341L69.972 103.596L69.6014 103.352H69.4751L69.4077 103.235L68.9193 102.806H68.734L68.6751 102.562L68.313 102.444L68.1867 102.318L67.6982 101.956L67.1508 101.527L66.4772 100.855L66.3508 100.611L66.334 100.4Z" fill="#FEF5E0"/>
<path d="M86.3845 95.3374H86.5698L86.6877 95.4552H86.814L86.9908 96.128H87.1592L87.2182 96.2457L87.3445 97.1624L87.5214 97.8352L88.0098 98.138V98.2642L88.4393 98.2053L88.5066 98.138H88.8098L88.8688 98.2053L89.3572 98.2642V98.4492L89.5424 98.9958L89.6014 99.2986H89.6856L89.8035 99.9714H89.6856L89.5593 100.098L89.5003 100.274L89.6183 100.644V100.829L89.6856 100.947L89.1972 101.132L88.7677 101.317L88.4645 101.435L88.3972 101.805L88.2793 102.108L88.3382 103.571L88.3972 104.412L88.4645 104.471L88.5824 105.808L88.6414 105.993V107.154L88.5235 107.339V107.154H88.3972V107.768L88.4645 107.885H88.5824V107.456L88.7677 107.7L88.8267 107.885V108.684L88.5824 108.743V109.416L88.4645 109.172L88.0351 106.649L87.4203 102.991L87.1761 101.645L86.2582 96.3046L86.1992 95.4636L86.3845 95.3374Z" fill="#FFF0DE"/>
<path d="M52.1019 68.6604L52.4051 68.7193L53.9967 69.636L55.3946 70.477L55.462 70.662L54.5441 72.1843L54.2999 72.6132L53.8704 73.286L53.6851 73.6476L53.5672 73.8327L53.2556 73.7738L52.1609 73.1598L50.4766 72.1254L50.2324 71.9992L50.2914 71.6965L50.7798 70.9059L51.5125 69.6864L52.1019 68.6604Z" fill="#040404"/>
<path d="M44.0343 98.5669L44.1522 98.6258L44.0933 98.9369L43.7228 100.274L43.5459 100.644L43.3017 101.073H43.1754L43.1164 101.25L42.2743 101.805L41.7859 101.99L41.1795 102.41L40.3795 103.024H40.2616V103.142L39.3437 103.815L38.5437 104.37L37.5669 105.034L36.1016 106.018L35.6131 106.38L35.4952 106.506H35.3689L35.1247 106.75L35.0658 106.683L34.9394 106.868H34.7626L34.6363 107.112H34.5184L34.2068 107.482L34.0215 107.414L33.9036 107.599V107.482H33.7773L33.7184 107.784L32.8004 108.398L32.3794 108.642L31.3941 109.248L30.552 109.794L28.8677 110.896H28.7414V111.022L27.8235 111.569L26.914 112.175L26.2403 112.671L25.8108 112.915L25.6256 112.847L25.0782 113.091H24.9519V113.217H24.8424V113.125H24.354L23.8655 113.007L23.2508 112.334L23.0655 112.393L22.8887 112.275L22.9476 111.964L23.1329 111.72V111.603L23.6803 111.544L23.9834 111.847L24.4719 112.578L24.6571 112.881L24.9603 112.763L27.3435 111.174L29.9709 109.408L32.6657 107.633L35.2931 105.867L37.9795 104.092L40.6069 102.326L42.0133 101.41L42.5606 100.981L42.8722 100.619L43.4785 99.2734L43.5459 99.0883L43.967 98.9033L44.0343 98.5669Z" fill="#FEF4DE"/>
<path d="M86.6883 88.4327H86.8146L86.8736 88.7439L87.0589 90.0811L86.5704 90.325L85.1641 90.8801L84.4314 91.124L83.8756 91.3679L83.0335 91.6706L82.3009 91.9734L81.5598 92.2173L80.8945 92.5285L80.4061 92.7051H80.0945L79.7914 91.1828L79.665 90.8128L79.8503 90.6951L80.6924 90.4511L81.1808 90.2661L82.284 89.9045L82.8904 89.6606L83.6819 89.4167L85.3662 88.8617L86.5283 88.5L86.6883 88.4327Z" fill="#F58E82"/>
<path d="M42.0728 17.0305H42.8054L43.3023 17.2744L43.7234 17.7622L43.7907 17.9472V18.7882L43.5465 19.4022L43.176 19.9488L42.6876 20.4366L41.8454 20.8655L41.6686 20.9244H40.8265L40.2201 20.6217L39.9086 20.1339L39.8496 19.9488V19.1583L40.0938 18.5444L40.5823 17.8715L41.0707 17.4426L41.8033 17.081L42.0728 17.0305Z" fill="#FDFBF8"/>
<path d="M49.0449 57.5506L49.5923 57.6768L51.1166 58.1057L52.405 58.3496L53.4745 58.4589L54.3924 58.5262H55.4282L56.9609 58.4L58.4262 58.1562L59.6472 57.8534L60.5652 57.5422H60.8094V61.7472L60.8683 62.849L61.1125 63.5218L61.4831 63.9423L62.3252 64.3713L63.0663 64.6151V64.674H62.7378L63.0494 64.9852L63.2262 65.4141L63.1084 65.5318L63.0494 65.2879L62.6789 65.1702L61.4578 64.4974L60.9694 64.0685L60.5988 63.5807L60.2957 62.9667L60.1104 61.5034V59.4261L60.1694 59.0644V58.4589L59.9925 58.2739H59.5041L58.5272 58.5262L57.0535 58.829L56.4472 58.9467L55.403 59.0728H54.1229L52.7166 58.8878L50.8808 58.5262L50.5776 58.4L50.0302 58.215L49.6597 58.2739L49.5418 58.5262V61.1502L49.4155 61.0829L49.3565 60.5951L49.2976 60.3512V59.2999L49.2302 59.1737V59.7877L49.1713 60.1494H49.1123L49.0449 57.5506Z" fill="#FEE7BF"/>
<path d="M37.0031 35.1544L37.3063 35.2133L37.3736 41.748L37.1294 41.6218L36.4557 41.0163L35.8999 40.2173L35.5968 39.6118L35.4115 38.939L35.3525 38.4512V36.3739L35.5378 35.945L35.9673 35.5245L36.3884 35.2806L37.0031 35.1544Z" fill="#FDE0C2"/>
<path d="M72.5739 35.1544L73.1213 35.2133L73.7361 35.4572L74.2834 35.945L74.4014 36.13L74.4687 36.4328V38.0223L74.3424 39.124L73.9803 40.0996L73.5508 40.7724L72.995 41.3779L72.5739 41.6891L72.3887 41.6218L72.4476 40.949L72.5066 35.2133L72.5739 35.1544Z" fill="#FEE5BC"/>
<path d="M58.1484 76.8435L58.6958 76.9613L62.9738 79.4843L64.658 80.4599L66.1233 81.3009L67.0412 81.856L68.0855 82.4615L68.8181 82.8315V82.9493L69.1213 83.0166V83.1343L69.4244 83.2605L70.0981 83.6221L70.4687 83.8071V83.9249L70.7718 84.051L71.1424 84.2361L71.8076 84.6649L72.5403 85.0266V85.1527L72.8519 85.2705L73.0961 85.5144L73.7698 86.8011L73.7024 87.2217L73.5256 87.045V86.86L73.155 86.675L72.7255 86.0022L72.2371 85.5732L67.9592 83.0502L66.6118 82.2092L65.0286 81.2336L64.2959 80.7458L63.6812 80.3169L63.0075 79.888L61.8454 79.4002H61.4243L61.3569 79.5852L61.6685 79.6441V79.8291L61.9127 79.9553L62.2748 80.4431L62.6454 80.7458V81.1159L62.4012 80.9897L61.9127 80.3842L61.298 79.7703L60.3801 79.0974L59.3443 78.6097L59.159 78.4919L59.7064 78.3657L59.6474 78.063H59.5295L59.3443 77.878L58.7295 77.3902V77.264L58.4264 77.1463L58.1484 76.8435Z" fill="#F9BA44"/>
<path d="M57.8457 82.2765L58.2078 82.3354L58.7636 82.7643L59.0668 83.067L59.4289 83.496L59.8584 84.2276L60.7005 86.4227L61.4331 88.1047L62.4858 90.4175L63.589 92.9405L64.81 95.7496L65.7869 98.0119V98.2558H65.4837L65.2985 97.768L64.9363 97.154L64.6921 96.6074L64.5658 96.3635V96.1784H64.4227L63.8753 95.0767L63.2016 93.6806L62.5952 92.335L62.0395 91.1156L61.2479 89.2822L60.4058 87.2048L60.3384 87.0282L60.2205 86.9021L60.1531 86.717L59.9763 86.5404L59.9089 86.1115L59.732 85.9265L59.6647 85.6237H59.5468L59.1173 84.337L58.6878 83.6641L58.6289 83.4876H58.5278L58.0983 82.8736L57.8541 82.5119L57.8457 82.2765Z" fill="#FEF4DD"/>
<path d="M56.8428 82.1503H56.9017L56.9607 88.4999L57.0196 98.0202L57.087 99.1136L57.5081 100.341L57.9965 101.435L58.426 102.108L58.7375 102.478V102.595H58.8555L58.9818 102.898H59.0997L59.2849 103.142V103.268H59.4028L59.7734 103.697L60.6913 104.37V104.488L60.9944 104.546L61.9123 104.917L63.4366 105.219L64.1692 105.278V105.404H66.0051L66.4345 105.522V105.892L66.3082 106.018L66.1314 105.951L66.064 106.077L65.5166 105.707L64.9103 105.522L61.786 105.463L60.6913 105.219L59.7144 104.732L59.1586 104.303L58.367 103.512L57.7523 102.595L57.3312 101.679L57.1459 101.25L56.9607 100.585L56.8428 99.4247V82.1503Z" fill="#FED29A"/>
<path d="M52.8939 82.1503H52.9528V98.8696L52.8939 100.03L52.6496 101.132L52.2791 102.108L51.7907 103.033L51.3023 103.638L50.4601 104.479L49.618 104.967L48.8854 105.27L47.9674 105.455H45.0537V105.396L46.2748 105.337L47.1927 105.211L48.1106 104.908L48.658 104.664L49.2054 104.361L49.8791 103.806L50.5528 103.134L51.1001 102.469L51.5886 101.738L51.9591 101.065L52.3886 100.451L52.8096 99.1724L52.877 98.6174V85.5648L52.8939 82.1503Z" fill="#FFD7A3"/>
<path d="M33.6426 97.6501L33.9457 97.7174L34.99 98.2052L36.3879 98.8696L37.0616 99.2397L37.6174 99.5424L37.55 99.7275L37.2469 99.9125L35.5626 101.073L35.1921 101.317H35.0152L34.5268 100.4L34.2152 99.5593L33.971 98.9538L33.7268 97.9109L33.6426 97.6501Z" fill="#F58D81"/>
<path d="M52.6323 82.0073H52.8765V85.548L52.8175 98.1211L52.5733 98.1884L52.5059 97.8184L52.388 95.1944L52.3291 92.0827V87.7515L52.388 84.3874V82.184L52.6323 82.0073Z" fill="#FEEAC3"/>
<path d="M37.1879 119.382H37.3058V122.923L37.2469 123.04H34.5605L33.6426 122.981L33.8868 122.738L34.6784 122.124L35.8995 120.904L36.4553 120.231L37.0026 119.626L37.1879 119.382Z" fill="#EA7424"/>
<path d="M50.1066 78.4246H50.595L50.4182 78.6097L49.4329 79.0974L48.8855 79.4675L48.0939 80.1403L47.3613 80.9813L46.6876 82.0831L46.1402 83.2436L45.8287 84.1519L45.4665 84.9929L45.2813 85.4219L45.0371 85.9685L44.7339 86.7002L44.2455 87.8608L43.816 88.7775L43.5718 89.3831L43.2686 89.997L43.0244 90.6025L41.9802 92.9237L41.677 93.7227L41.4328 94.2105L40.7591 95.7327L40.4559 96.5233L40.1443 96.5906L39.8412 96.4055L39.7822 96.1616L40.0854 96.0355L40.6328 95.0599L40.9443 94.5132L41.2475 93.7227L41.8623 92.5621L42.2244 91.5192L42.5275 90.9137L42.8391 90.182L43.0244 89.6942L43.4454 88.8532L43.6307 88.4243L43.757 87.9954L44.2118 87.0534L44.5234 86.3806L44.7676 85.7667L45.256 84.7911L45.5592 83.8744L45.8034 83.3278L46.1739 82.411L46.595 81.57L47.2097 80.6617L47.4539 80.3506L47.9424 79.9217L48.1866 79.6188L49.1635 78.8872L49.8961 78.5255L50.1066 78.4246Z" fill="#FBB940"/>
<path d="M61.6348 109.374L63.8327 109.433L64.1359 109.736L64.3801 110.038L64.6917 110.35L65.1127 110.837L65.3569 111.14L65.6685 111.443V111.569H65.7864L66.0896 111.998L66.4012 112.301L66.8306 112.788L67.0749 113.091L67.378 113.402L67.8075 113.949L68.1107 114.252L68.9528 115.227V115.354H69.0707V115.471H69.197V115.597H69.3149V115.715H69.4749L69.4076 116.085L68.6749 118.768L68.557 121.03L68.4896 121.089H66.418V121.03L67.757 120.963V120.787L68.0686 120.543L68.2454 119.811V118.97L68.4307 117.877L68.6749 117.036L68.9191 116.422V116.001L68.8012 115.69L68.4896 115.328L67.5128 114.353L67.1507 113.798L66.7801 113.31L66.2917 112.889L65.7443 112.275L65.2559 111.544V111.443H65.1296V111.325H65.0117V111.199L64.8264 111.14L64.5232 110.778V110.652H64.4222L64.0601 110.165L63.5716 109.862L63.1422 109.677L61.98 109.551L61.6769 109.492L61.6348 109.374Z" fill="#F9BA42"/>
<path d="M41.4664 42.4797L41.7106 42.5974L42.0138 43.8842L42.1991 44.557L42.4433 45.2887V45.5326H42.5275L42.7128 46.1381L42.898 46.567V46.6847H43.0244L43.1423 47.0464L43.4454 47.1725L43.6896 47.6603L43.8749 47.7781L44.1191 48.207L44.3044 48.392V48.5098H44.4223L44.6665 48.9387L45.037 49.4265L45.3402 49.7292L45.4665 49.9815L45.6518 50.0404L46.0728 50.5282L46.1991 50.7721L46.4434 50.8898L46.9318 51.3187L47.6644 51.9915L48.1529 52.3616L48.3381 52.5382L48.456 52.6055V52.7232L48.8855 52.7821L49.374 53.1522V53.2699L49.0708 53.211L48.035 52.6643L47.3023 52.1766L46.5023 51.5626L45.6602 50.8309L44.8181 49.9899L44.2707 49.3171L43.597 48.4004L43.1086 47.5594L42.3759 46.1633L41.8201 44.6915L41.458 43.2282L41.4664 42.4797Z" fill="#FEF3DB"/>
<path d="M37.0031 35.1544L37.3063 35.2133L37.3736 41.748L37.1294 41.6218L36.4557 41.0163L35.8999 40.2173L35.5968 39.6118V39.1829L35.7231 39.124L35.782 38.6362H35.841L35.9673 39.4268L36.2115 39.9734L36.4557 40.2846H36.7589L36.8178 39.8557V36.4916L36.6999 35.8188H36.2705L35.9673 36.0627L35.7905 36.5925V38.4848L35.6641 38.3671L35.6052 37.0215V36.4748L35.4199 36.2309L35.5462 35.9197L35.9757 35.4992L36.3968 35.2553L37.0031 35.1544Z" fill="#FEE5BA"/>
<path d="M61.8955 74.2195L62.2576 74.2784L62.8134 74.5811L63.4197 74.9512L64.2618 75.3717L64.6239 75.6828L65.424 76.0445L65.9124 76.4145L67.0072 76.9612V77.0874L67.3187 77.2051L67.6219 77.3901L67.9251 77.449L68.1103 77.634L68.6577 78.004L69.1461 78.1807L69.9462 78.6685L70.7883 79.0974L71.7651 79.7113L72.6073 80.1991L73.3989 80.6869L75.0831 81.6625L75.6979 82.0241L75.8831 82.2091L75.9421 82.5203L75.7568 82.4531H75.5799L74.662 81.9064L71.5462 80.073L67.083 77.449L65.6177 76.608L64.5734 75.994L61.8281 74.312L61.8955 74.2195Z" fill="#FEE3B7"/>
<path d="M41.2811 33.0182L41.3401 33.1444H41.6853L41.8622 33.321L41.7443 34.4228L41.8032 37.1729V39.0567L41.7443 40.0996V42.0507L41.6853 42.2358L41.4411 42.2946V41.9919H41.3148L41.2559 41.1929V35.6422L41.2811 33.0182Z" fill="#FEF3D9"/>
<path d="M50.9485 82.9408L51.0075 83.1847L50.7043 83.7986L50.3927 84.8331L50.0306 86.3637L49.6601 87.5243L49.4748 88.071L48.7422 89.4755L48.4979 90.081L48.0095 90.88L47.8916 90.8127V90.3249L48.0095 90.266L48.1948 89.6605L48.439 89.1054L48.5653 89.0466L48.439 88.8027L48.6242 88.4999L48.6832 88.0121H48.8095V87.8944H48.9274L48.8685 87.6505L48.9274 87.4066H49.0537L49.1716 86.8599L49.2306 86.5571L49.3569 86.1283L49.4158 85.6405L49.9043 84.421L50.3927 83.5043L50.7632 83.0754L50.9485 82.9408Z" fill="#FEF6E0"/>
<path d="M79.9089 104.185L80.1531 104.303L81.13 105.034L82.8142 106.136L86.4775 108.575L87.1511 109.13L87.3954 109.492L87.6396 109.618V109.761L87.1511 109.702L84.5237 107.927L81.9974 106.287L80.1026 105.001L80.0352 104.698L79.791 104.572V104.269L79.9089 104.185Z" fill="#FEE7BF"/>
<path d="M73.1801 35.886L73.5506 35.9449L73.6096 36.1299H73.7359L73.9127 36.5L73.9801 36.9878V38.2745L73.8538 39.0651L73.6685 39.8052L73.3654 40.2257L73.0622 40.3518L72.9359 40.293L72.877 39.7379L72.9359 36.1972L73.0622 35.9533L73.1801 35.886Z" fill="#FDE0C2"/>
<path d="M54.8478 105.278L55.092 105.404L55.4626 105.951L56.01 106.565L56.3131 106.927L56.9868 107.482L57.6605 107.969L58.8816 108.642V108.819L58.3342 108.945L57.8458 108.819L57.5342 108.76L57.1131 108.516L56.4394 107.969L56.1363 107.658L55.5215 107.112L55.092 106.809L54.7889 106.506L54.3594 106.136L54.4183 105.892L54.6626 105.463H54.7889L54.8478 105.278Z" fill="#FCBB43"/>
<path d="M26.7374 95.0262L27.2847 95.0851L29.4237 95.8252L29.55 96.0019L29.7269 97.6839L30.0974 99.4584L30.4679 100.619V100.796L30.0974 100.678L29.9121 100.375L29.9711 99.9462H29.8953L29.6511 99.2734L29.4658 98.5417L29.3479 98.2978L29.0532 97.1456L28.809 96.3551L28.3205 95.9261L27.5205 95.7411L26.9142 95.4383L26.4847 95.3206L26.3584 95.1356L26.7374 95.0262Z" fill="#FEE7BE"/>
<path d="M29.668 104.429L29.9122 104.488L30.0975 104.547L30.0386 104.732L27.3438 106.506L24.7164 108.272L23.0321 109.374L22.7289 109.551L22.4258 109.492L22.4847 109.248L22.9732 108.886L23.5879 108.516L24.1942 108.087L24.8679 107.658L25.6006 107.17L25.9122 106.927L26.3332 106.683L27.0069 106.262L27.5543 105.892L28.169 105.463L29.2722 104.732L29.668 104.429Z" fill="#FEE7BF"/>
<path d="M86.6883 88.4327H86.8146L86.8736 88.7439L87.0588 90.0811L86.5704 90.325L85.4672 90.7539L85.223 90.6951L85.4083 90.51L85.223 90.0811L85.1641 89.7783V88.9373L86.503 88.5084L86.6883 88.4327Z" fill="#FFD8A9"/>
<path d="M84.2461 84.5303H84.364V84.9004L84.2461 85.0181L84.4314 84.9593L84.364 85.1443L82.2251 85.8759L79.5976 86.717L78.3766 87.1459L78.1323 87.0281L77.5176 85.8003V85.6236L77.8292 85.6825V85.8676L78.0734 85.9853L78.3176 86.3553L78.5029 86.8431L78.806 86.717V86.5992L79.2355 86.5404L79.9682 86.1703L81.1303 85.7414L82.8145 85.1358L83.244 84.9508L84.1619 84.5808L84.2461 84.5303Z" fill="#FEE7BF"/>
<path d="M79.2348 100.888L79.2937 101.132L79.3527 101.561L79.4116 102.595L79.7232 104.185L79.7821 104.547L80.0853 104.673L80.1527 104.917L79.8411 104.79L78.9232 104.185L78.0811 103.571L78.14 103.268L78.7547 102.108L79.2348 100.888Z" fill="#FDD7A8"/>
<path d="M30.5265 101.351L30.7707 101.41L31.377 102.696L31.7476 103.361V103.546L30.6444 104.277L30.2233 104.589L29.9707 104.462L30.2233 103.428L30.3412 102.999L30.4002 102.326V101.536L30.5265 101.351Z" fill="#FFD8A8"/>
<path d="M61.0534 52.7316L61.2976 52.7905V52.9166L60.3797 53.4044L59.1586 53.8922L57.6933 54.3212L56.0091 54.6239H54.6617V54.5062L54.4848 54.565L53.3816 54.5062L53.1964 54.4389V54.3212L52.9521 54.2623H53.4743L53.7774 54.38H54.8806L55.8575 54.195L56.4722 54.0772L57.4491 53.8922L58.8554 53.5222L59.5881 53.2783L60.0175 53.1017L60.6239 52.8578L61.0534 52.7316Z" fill="#FEE8BF"/>
<path d="M44.7673 13.1787H45.0536L45.2389 13.5488V14.0954L44.8683 14.6505L44.3799 15.0121L44.1946 15.071H43.7062L43.403 14.8944L43.2178 14.3393V14.1627L43.6472 13.7927L44.7673 13.1787Z" fill="#FDF8F1"/>
<path d="M34.9481 115.471L35.1334 115.539L34.9481 115.782H35.1334L35.0155 116.085L34.2744 116.876L33.727 117.549L32.9944 118.339L32.5649 118.827L32.0765 119.323L31.3438 119.87L30.367 120.416L29.9375 120.475L30.1817 120.114L30.8554 119.685L32.0765 118.768L32.7502 117.978L33.1797 117.549L33.6092 117.061L34.2155 116.388L34.645 115.841L34.9481 115.471Z" fill="#FEE7BF"/>
<path d="M43.5464 106.018H43.6644L43.6054 106.262L42.8054 107.103L42.258 107.776L41.5254 108.567L40.978 109.239L40.178 110.08L39.6306 110.753L39.0243 111.418L38.9569 111.544L38.4095 111.729L38.2832 111.603L38.5948 111.418L38.7127 111.485L38.6537 111.241L39.1422 110.753L39.6895 110.013L40.0011 109.651H40.119L40.2453 109.408L40.5485 109.105H40.6664L40.7927 108.861L41.2812 108.188H41.4075L41.5254 107.944L42.0727 107.389L42.4433 107.213L42.6285 106.901L42.8728 106.481L43.3022 106.052L43.5464 106.018Z" fill="#FEE6BD"/>
<path d="M42.3844 67.3821L42.9318 67.6849L43.5465 68.0549L44.0939 68.3577L44.456 68.5427V68.6605L44.7676 68.7867L45.7445 69.3333L46.4182 69.7622V69.88H46.5361V70.0061L46.3508 70.1239H45.8961L44.3718 69.1483L42.8392 68.2316L42.477 68.0549L41.9297 67.9877L41.8623 67.8699L42.1739 67.7438H42.477L42.3844 67.3821Z" fill="#FABB44"/>
<path d="M88.5239 117.002L88.6418 117.12L88.7092 117.734L88.7681 117.919L88.3387 118.465L87.7913 119.079L87.2355 119.567L86.1997 120.231L85.0376 120.719H84.7344V120.602L85.0376 120.358L85.3407 120.231L85.526 120.055L86.0733 119.744L86.8144 119.197L87.4207 118.709L87.7239 118.28H87.8502L87.9681 118.036L88.3387 117.608L88.465 117.364L88.5239 117.002Z" fill="#FEE8C1"/>
<path d="M85.8289 94.7234L85.9552 94.7823V94.9673L86.1404 95.0851V95.3963L85.8289 95.3374L84.5488 95.7579L84.0604 95.9429L83.1425 96.2457L82.1067 96.6157L81.9804 96.6746H81.3066V96.5569L81.4919 96.3719L84.5488 95.2113L85.8289 94.7234Z" fill="#FEE6BE"/>
<path d="M49.2637 85.9938L49.3816 86.1788H49.2637V86.2965L49.3816 86.3638H49.2637V86.7927L49.0195 87.3983H48.8932V87.8945H48.7753V88.0206H48.649V88.5084L48.4637 88.87V89.114L48.0426 90.1568V90.3334H47.8574L47.7984 90.2157H47.6721L47.5542 90.6446L47.3689 90.7623V91.0735L47.1837 91.2501H47.0574L46.9984 91.4352L46.9395 91.3174L47.8574 89.1813L48.649 87.4067L49.2637 85.9938Z" fill="#FDEBD3"/>
<path d="M46.2329 92.9406L46.3508 93.1256L46.2918 93.4368L46.1739 93.5545V93.9834L45.9297 94.345L45.7445 94.959L45.6855 95.2029L45.3739 95.2618V95.3879L45.5002 95.4468L45.4413 95.6907L45.256 95.7496L45.1971 96.1784L44.9444 96.4812L44.8855 96.7924L44.7002 97.2129V97.3979L44.3971 97.4652V97.9866H44.2792L44.2118 98.2305L44.2792 98.3483L44.035 98.7183L43.9676 98.9622L43.6055 99.0799L43.7907 98.5333L44.9444 95.9094L45.9887 93.5293L46.2329 92.9406Z" fill="#FDE5C8"/>
<path d="M54.8476 18.0902L55.0329 18.2752L55.336 19.0069L55.6392 19.5536L56.0098 19.8647L55.8834 19.9236L55.4624 19.7386H54.2413L53.9971 19.7975L54.056 19.4358L54.2413 19.3685L54.3592 19.0658L54.8476 18.0902Z" fill="#30363D"/>
<path d="M50.0225 72.0834H50.452L53.1973 73.7654V73.8832L53.012 74.0093H52.633L51.6562 73.3954L51.1004 73.0253L50.3677 72.6048V72.4786L50.1235 72.3609L50.0225 72.0834Z" fill="#FDBB44"/>
<path d="M76.2119 117.49L76.7593 117.851L77.374 118.465L77.7446 118.894L77.8625 118.953V119.079H77.9888V119.197L78.292 119.323L78.6541 119.567V119.685L78.9656 119.811L79.6983 120.231L80.3046 120.543L80.6751 120.602L80.8604 120.845L80.431 120.787L79.4541 120.416L78.4772 119.87L77.6351 119.197L76.8435 118.406L76.2877 117.734L76.2119 117.49Z" fill="#FEE3B7"/>
<path d="M47.8237 90.0811H47.8826V90.4175L47.5795 91.0903H47.4531L47.3942 91.5192L46.7794 92.9826L46.4763 93.4115L46.291 93.3442V92.7976L46.9058 91.393L47.3352 91.0314V90.6614L47.5795 90.5352L47.6384 90.2913L47.6974 90.1736H47.8237V90.0811Z" fill="#FEF3DD"/>
<path d="M76.0524 97.2213H76.2124V97.6502L75.9093 98.8697L75.4208 100.156L74.9913 101.073L74.865 101.317L74.5619 101.25L74.4355 100.947L74.9913 100.274L75.4208 99.4331L75.8419 98.0875H75.9682L75.9093 97.7259L76.0524 97.2213Z" fill="#FBB843"/>
<path d="M47.942 51.941H48.1273V52.0588L48.3715 52.1849L48.6746 52.4288L49.3484 52.8578L49.5926 52.9755V53.1016L49.8957 53.2194L50.6284 53.4633L51.1168 53.7072L51.6726 53.9511L51.6052 54.1361L50.9989 54.01L49.4662 53.4044L49.3484 53.2783V53.1605L48.9189 52.8578L48.6157 52.6727L48.422 52.5718V52.454L48.1778 52.3279L47.9336 52.084L47.942 51.941Z" fill="#FEE7C0"/>
<path d="M21.0534 102.536H21.1123L21.0534 103.327L20.3207 108.331L20.1944 109.004L20.0765 109.307H20.0176L20.0765 108.575L20.9186 102.688L21.0534 102.536Z" fill="#FDD39B"/>
<path d="M72.5742 35.1544L73.1216 35.2133L73.0627 35.5245L72.8774 35.8861L72.8184 36.4328L72.6921 39.6118L72.6332 40.2173H72.5742V35.1544Z" fill="#FFF3E0"/>
<path d="M46.2326 93.4451L46.4179 93.504L46.2915 94.0507L45.9884 94.7824L45.8031 95.0851L45.6179 95.6402L45.1968 96.6746L44.8263 97.2886L44.582 97.3475L44.6999 97.1625L44.9441 96.4308L45.1294 96.128L45.1968 95.8841L45.441 95.6402L45.3736 95.3963V95.2702H45.4999L45.5589 95.1524L45.6852 94.9674L45.9294 94.2357L46.1063 93.9329V93.5629L46.2326 93.4451Z" fill="#FFF7E4"/>
<path d="M56.9277 82.0914L57.3572 82.1503V82.2765L57.0456 82.5204L57.172 82.882L57.2309 84.8331L57.172 85.7499L56.9867 85.9938L56.9277 85.1527V82.0914Z" fill="#FEEAC5"/>
<path d="M38.2238 111.754L38.527 111.872L38.4091 112.175L37.6764 113.016L37.1291 113.688L36.8848 113.806V113.621L36.6406 113.688V113.562L36.8175 113.377H36.9438L37.0617 113.133L37.3733 112.831L37.9796 112.04L38.2238 111.754Z" fill="#FEE7BF"/>
<path d="M36.6326 113.705L36.6916 113.823H36.8095L36.6916 114.134L35.9589 114.925L35.4031 115.597H35.2263L35.3442 115.412H35.041L35.4031 114.984L35.9589 114.378L36.38 113.823L36.6326 113.705Z" fill="#FEE7BF"/>
<path d="M22.3164 94.0507H22.9312L23.6638 94.1768V94.2945L24.0933 94.3534L23.967 94.4796H23.7227V94.7235L23.4196 94.7823L23.1754 94.4796H22.8048L22.6196 94.6646H22.5017V94.8412L22.3754 94.7823L22.3164 94.7235V94.0507Z" fill="#FEF3DD"/>
<path d="M79.6564 100.4L79.7827 100.459V101.073L79.7238 101.435L79.7827 101.746L79.6564 102.234L79.4796 102.41L79.4122 102.049H79.2943V101.494L79.2354 101.132L79.3533 100.703L79.6564 100.4Z" fill="#FEEAC3"/>
<path d="M41.2217 31.1848H41.7691L41.4659 31.6726V32.2865L41.5248 32.7155V32.9593L42.0722 33.0182V33.0771H41.3396L41.2806 35.6422H41.2217V31.1848Z" fill="#FDD8A5"/>
<path d="M37.1884 40.2173H37.2474L37.3063 40.5285L37.3737 41.7479L37.1295 41.6218L36.4558 41.0163L36.2705 40.7724L36.3294 40.5285L36.5147 40.6462V40.7976L37.0031 40.7303L37.1295 40.5537L37.1884 40.2173Z" fill="#FEECCB"/>
<path d="M73.1807 35.3395L73.6102 35.3983L74.0986 35.7684L74.4017 36.13L74.4691 36.4328V38.0223H74.4017L74.3428 37.1056L74.2249 37.0467L73.9807 36.2057L73.9133 35.9618H73.7954L73.4922 35.6591L73.248 35.5413L73.1807 35.3395Z" fill="#FDE2BD"/>
<path d="M21.6677 117.919L21.9708 118.221L22.0887 118.524L22.333 118.65L22.7624 119.138L22.8888 119.441L23.3098 119.744L23.2509 119.87L22.9477 119.811L22.7624 119.685L22.5772 119.382L22.5182 119.197H22.4003V119.079L22.1561 118.953V118.827L21.9119 118.709V118.583H21.7856V118.465H21.6677L21.415 118.163V117.978L21.6677 117.919Z" fill="#FEE9C2"/>
<path d="M77.5176 85.6321L77.8292 85.691V85.876L78.0734 85.9937L78.3176 86.3638L78.5618 86.9104L78.7471 87.0366L78.2586 87.1543L77.9471 86.6665L77.5176 85.8255V85.6321Z" fill="#FEE5BB"/>
<path d="M36.7589 77.264V77.4491H36.6326L36.5063 77.693L36.0768 78.1808L35.3442 78.7358L34.3084 79.2825L33.3904 79.5264H32.2283L31.7988 79.4002L32.0431 79.3414L32.2873 79.4002H33.2052L34.241 79.0974L35.2852 78.5508L36.2621 77.8191L36.5652 77.3902L36.7589 77.264Z" fill="#FDDFB4"/>
<path d="M49.4075 61.7642L49.5338 61.8903V62.437L49.4075 63.278L49.2222 63.6396L49.1632 63.3957L49.2896 63.093L49.2222 62.9079L49.1043 62.8491V63.3957L48.8601 63.6396L48.6748 63.6985L48.8601 63.1519L49.1043 62.2351L49.3485 62.1762L49.4075 61.7642Z" fill="#FEE9C1"/>
<path d="M46.2321 92.9406L46.35 93.1256L46.291 93.4368L46.1731 93.5545V93.9834L45.9289 94.345L45.7437 94.959L45.6847 95.2029L45.3731 95.3291L45.1963 95.4468L45.3731 94.9001L46.2321 92.9406Z" fill="#FDE4C6"/>
<path d="M48.8007 67.3821L48.9186 67.441L48.6744 67.7438L48.5565 68.4166L48.4302 68.6605L48.127 68.6016L47.8828 68.4166L47.9418 68.1727L48.2449 67.6261L48.6155 67.4999L48.8007 67.3821Z" fill="#FEE7C0"/>
<path d="M88.583 109.374H88.642L88.7683 109.862L88.8272 109.618L88.9535 109.374L89.0714 109.677L88.8862 110.223H88.7683L88.8862 110.652L88.9535 111.199L89.0714 111.384L89.2567 112.788V113.125L89.1304 113.192L88.7683 110.989L88.583 109.828V109.374Z" fill="#FFF0DE"/>
<path d="M87.235 109.761H87.3614L87.4203 110.005L87.1172 110.501L86.9908 110.745H86.8729L86.7466 110.989L86.6287 111.048L86.5698 111.409L86.4434 111.535L86.3256 111.291L86.1992 111.233L87.1172 109.887L87.235 109.761Z" fill="#FDEAD3"/>
<path d="M37.0025 35.1544H37.2467V37.4756H37.1878L37.1288 36.6346V35.9029H37.0025L36.6994 35.4151L36.3878 35.5413L36.1436 35.474L36.3878 35.2974L37.0025 35.1544Z" fill="#FEEED9"/>
<path d="M57.2301 73.9083L57.7186 74.1522L57.7775 74.3373L57.2891 75.1278L56.9859 75.3128H56.8428L56.9101 75.0689L57.087 74.7662L57.3312 74.2784L57.2301 73.9083Z" fill="#FEBE48"/>
<path d="M65.424 105.404H66.0303L66.4598 105.522V105.892L66.3335 106.018L66.1566 105.951L66.0893 106.077L65.5419 105.707L64.9355 105.522V105.463L65.424 105.404Z" fill="#FDD5A3"/>
<path d="M50.6281 70.0649H50.7544V70.2332L51.0576 70.292V70.5359L50.6955 71.1415L50.3839 71.3265H50.207L50.3249 70.8387H50.4513L50.5691 70.5359L50.6281 70.0649Z" fill="#FEC047"/>
<path d="M47.6386 89.7194L47.8238 89.7782V89.9633L48.068 89.9044L48.127 89.7782L48.068 90.3249H47.8828L47.8238 90.2072H47.6975L47.5796 90.6361L47.3943 90.7538V91.065L47.2091 91.2416H47.0828L47.0238 91.4266L46.9648 91.3089L47.6386 89.7194Z" fill="#FDE9CF"/>
<path d="M43.5458 106.018H43.6637L43.6048 106.262L42.8047 107.103L42.5605 107.347V107.103L42.8047 106.557L43.3016 106.069L43.5458 106.018Z" fill="#FEE3B7"/>
<path d="M72.6921 36.4327H72.7511V38.1148L72.6921 39.6454L72.6332 40.251H72.5742V37.7279L72.6332 36.5084L72.6921 36.4327Z" fill="#FFF0DE"/>
<path d="M20.0766 109.374H20.1355L20.0766 110.038L19.8913 111.384L19.7734 112.545H19.7061V111.325L19.9503 109.433L20.0766 109.374Z" fill="#FECF8E"/>
<path d="M44.2792 97.4063L44.3971 97.5914L44.456 97.8941L44.2792 97.9614L44.2118 98.2053L44.2792 98.323L44.035 98.6931L43.9676 98.937L43.6055 99.0547L43.7907 98.508L44.2792 97.4063Z" fill="#FDE4C6"/>
<path d="M55.218 71.4694L55.3359 71.5956L55.1506 71.8395L55.0327 72.1423L54.9738 72.5039L54.418 72.445L54.6032 71.9572L54.8475 71.5956L55.218 71.4694Z" fill="#FCE2BC"/>
<path d="M49.2642 85.9938L49.3821 86.1788H49.2642V86.2965L49.3821 86.3638H49.2642V86.7927L49.0199 87.3983H48.8936L48.8347 87.5244H48.6494L48.8347 86.9694L49.2642 85.9938Z" fill="#FDE9CE"/>
<path d="M61.4492 112.545L61.6934 112.671L62.1819 113.091L62.5524 113.705L62.485 113.823L62.1229 113.52V113.402L61.8787 113.276L61.6345 113.091V112.788L61.4492 112.73V112.545Z" fill="#FEC246"/>
<path d="M72.6921 40.7976L73.1216 40.9154H73.2479L73.1805 41.1592L72.6921 41.5882H72.5068V41.1004H72.6331L72.6921 40.7976Z" fill="#FEEFD2"/>
<path d="M23.1582 119.853H23.5203L24.6824 120.459L24.7414 120.644L24.1351 120.459L23.2172 119.971L23.1582 119.853Z" fill="#FEE1B1"/>
<path d="M46.5357 64.6909H46.8388L46.7209 65.3048L46.3504 65.246L45.9883 65.0021V64.8759L46.5357 64.6909Z" fill="#FDE3C2"/>
<path d="M68.4135 31.1848H68.5398V32.3875L68.4135 32.4463L68.2282 31.7819L68.1104 31.4119L68.4135 31.1848Z" fill="#FDE1C2"/>
<path d="M44.6997 97.3475H44.8261L44.6408 97.8942L44.3966 98.3819L44.2113 98.4492L44.1523 98.2053L44.2787 97.9614L44.3966 97.8942L44.3376 97.7764L44.3966 97.4736L44.6997 97.3475Z" fill="#FEF7E5"/>
<path d="M46.78 64.7581H46.9063L47.0242 65.187L47.2684 65.4898L47.4537 65.6748L47.3358 65.7337L46.9063 65.5487L46.5947 65.3637L46.7211 65.3048V64.817L46.78 64.7581Z" fill="#FEE5BE"/>
<path d="M37.1884 40.2173H37.2474V40.7976L37.1295 40.9742L36.7 41.0415L36.5737 40.9742L36.5147 41.1003L36.2705 40.7976L36.3294 40.5537L36.5147 40.6714V40.7976L37.0031 40.7303L37.1295 40.5537L37.1884 40.2173Z" fill="#FFEED8"/>
<path d="M44.8263 96.4895L44.9442 96.7334L44.8263 96.8596L44.7 97.2212V97.4062L44.3968 97.4735L44.3379 97.5913L44.3968 97.1035L44.6411 96.6157L44.8263 96.4895Z" fill="#FDE7CD"/>
<path d="M64.3216 116.203L64.6248 116.514L64.869 116.817L64.9364 117.187L64.81 117.246V117.002L64.4395 116.876L64.1953 116.514L64.2627 116.329L64.3216 116.203Z" fill="#FDB948"/>
<path d="M60.5906 60.0569H60.6579L60.7169 62.008L60.5906 62.1342L60.4727 61.4025V60.7886L60.5906 60.0569Z" fill="#FFF0DE"/>
<path d="M35.4115 36.2561L35.5378 36.4327L35.4789 38.4511H35.3525V36.3738L35.4115 36.2561Z" fill="#FFD89B"/>
<path d="M22.3158 109.862L22.5011 109.921L22.7453 110.038L22.9305 110.165L22.8632 110.535H22.619L22.2568 110.106L22.3158 109.862Z" fill="#FEE9C0"/>
<path d="M60.5313 57.5507H60.7166V58.8374H60.6576L60.5903 58.1646L60.3461 58.0385L60.2871 57.7946L60.3461 57.618L60.5313 57.5507Z" fill="#FEEFDB"/>
<path d="M62.6709 114.008L62.974 114.134L63.1593 114.311L63.3446 114.622L63.4035 114.925L63.1004 114.74H62.9151L62.7972 114.437L62.7298 114.193L62.6709 114.008Z" fill="#FEC24B"/>
<path d="M21.7856 97.4063H21.8445L21.7856 98.0202L21.6677 98.9958L21.4824 99.1808L21.5414 98.3819L21.6677 97.5409L21.7856 97.4063Z" fill="#FDD199"/>
<path d="M19.7061 113.217L19.8324 113.402L19.9503 114.925L19.8324 115.169L19.7061 114.327V113.217Z" fill="#FECE8B"/>
<path d="M52.9522 54.3212H53.1965V54.4389L54.6617 54.5062V54.6239H55.2175V54.6828H54.5438L53.3228 54.565L52.708 54.4389L52.9522 54.3212Z" fill="#FED095"/>
<path d="M21.0532 102.536H21.1121L21.0532 103.327L20.9269 103.941L20.809 104.244H20.75L20.809 103.512L20.9269 102.671L21.0532 102.536Z" fill="#FFD296"/>
<path d="M70.4353 98.138L70.4942 98.2642L70.7974 98.3819L70.9826 98.4492L71.109 98.8108L70.7974 98.7519L70.25 98.3231V98.2053L70.4353 98.138Z" fill="#FDBD47"/>
<path d="M21.9708 95.3963L22.0887 95.6402L22.0297 96.3719L21.9118 97.0447L21.7855 97.3475H21.7266L21.7855 96.6747L21.9708 95.3963Z" fill="#FED08F"/>
<path d="M21.2973 100.829H21.3563L21.2973 101.494L21.171 102.234L21.0531 102.536H20.9941L21.0531 101.805L21.171 100.964L21.2973 100.829Z" fill="#FED194"/>
<path d="M51.6728 53.951L52.2792 54.0772L52.6497 54.1949V54.38L52.1023 54.3211L51.6055 54.1949L51.6728 53.951Z" fill="#FEE1B3"/>
<path d="M63.4619 114.984L63.8914 115.354L64.1356 115.782L64.0767 115.9L63.6472 115.715L63.5293 115.412L63.4619 114.984Z" fill="#FEC04A"/>
<path d="M20.3207 107.658H20.3797L20.3207 108.331L20.1944 109.004L20.0765 109.307H20.0176L20.0765 108.575L20.1944 107.784L20.3207 107.658Z" fill="#FED196"/>
<path d="M58.2753 73.2355L58.3342 73.4205L57.8458 74.2615L57.6016 74.1943L57.6605 73.8915L57.9047 73.7065H58.09L58.2079 73.3449L58.2753 73.2355Z" fill="#FEE3B6"/>
<path d="M75.934 92.3434L76.1192 92.5284L76.1782 92.705V93.2012L76.0518 93.319L75.875 93.0162V92.5284L75.934 92.3434Z" fill="#FEBE44"/>
<path d="M38.6536 25.3903H39.0241V25.4491L38.3167 25.6594L37.8283 26.021L37.6514 26.3322L37.4662 26.6938H37.4072V26.3911L37.4662 26.206H37.5841L37.7104 25.9621L38.1399 25.6005L38.6536 25.3903Z" fill="#424A52"/>
<path d="M47.7566 68.4753L47.824 68.6015L48.0682 68.6604L47.883 68.7193L47.7566 69.0304L47.5798 69.2071L47.3945 69.1482L47.5124 68.8454L47.5798 68.7193H47.6977L47.7566 68.4753Z" fill="#F0AF44"/>
<path d="M49.0449 57.5507L49.5923 57.6768V57.8618H49.4071V57.9796L49.1039 58.1058L49.0449 57.5507Z" fill="#FEECD1"/>
<path d="M43.5459 105.556H44.0933V105.682L44.2785 105.741L43.908 105.985L43.7901 106.052V105.867L43.5459 105.741V105.556Z" fill="#FFD7A5"/>
<path d="M21.4147 99.2397H21.4737L21.5327 99.7275L21.4063 100.518L21.2884 100.829H21.2295L21.2884 100.098L21.4147 99.2397Z" fill="#FECD88"/>
<path d="M52.9521 54.2538H53.4743L53.7774 54.3716L54.6953 54.4305L54.5185 54.5566L53.4153 54.4977L53.23 54.4305V54.3127L52.9521 54.2538Z" fill="#FFECC5"/>
<path d="M49.0453 62.7985H49.1043V63.4125L48.8601 63.6564L48.6748 63.7153L48.919 62.9836H49.0453V62.7985Z" fill="#FDE5C7"/>
<path d="M72.5742 35.1544L73.1216 35.2133L73.0627 35.3983L72.7511 35.5833H72.5742V35.1544Z" fill="#FEF2DB"/>
<path d="M63.041 114.622L63.4621 114.984L63.5884 115.227L63.5295 115.471L63.2852 115.227L63.041 114.866V114.622Z" fill="#FBB148"/>
<path d="M54.7298 78.3658L55.3362 78.4247L55.092 78.6686L54.7888 78.7358L54.6035 78.5508V78.4247L54.7298 78.3658Z" fill="#FCB63D"/>
<path d="M49.8368 104.614L50.081 104.732L49.2894 105.16H49.1631L49.222 104.975L49.6515 104.673L49.8368 104.614Z" fill="#FDD273"/>
<path d="M48.8005 52.7905L49.1037 52.9166L49.4068 53.1605V53.2783L49.1037 53.2194L48.6152 52.9755V52.8578L48.8005 52.7905Z" fill="#FFEED9"/>
<path d="M87.16 110.711H87.3452L86.9747 111.443L86.7305 111.384L86.7894 111.14H86.9157L87.0336 110.896L87.16 110.711Z" fill="#FEEAC3"/>
<path d="M49.2641 85.9938L49.382 86.1788H49.2641V86.2965L49.382 86.3638H49.2641V86.7927L48.8936 86.9105L49.0788 86.3638L49.2641 85.9938Z" fill="#FDE3BF"/>
<path d="M65.2646 86.8516L65.4499 87.0954L65.812 87.9365V88.0626H65.6941L65.2646 87.1459V86.8516Z" fill="#F7BE5F"/>
<path d="M20.5648 116.632H20.6827V116.758L20.9269 116.691V116.876L20.809 117.061L20.4385 116.943V116.691L20.5648 116.632Z" fill="#FEF6DF"/>
<path d="M72.6921 40.7976L73.1216 40.9826L73.0626 41.1004H72.9363L72.8774 41.2265L72.5068 41.2854V41.1004H72.6331L72.6921 40.7976Z" fill="#FFF0DE"/>
<path d="M46.7374 64.6909L46.8554 64.7582L46.7964 65.0021L46.7374 65.3048L46.3669 65.246L46.249 65.1198H46.4932L46.6111 64.817L46.7374 64.6909Z" fill="#FDEAD1"/>
<path d="M80.8855 96.6158L81.2476 96.6747L81.1886 96.8597L80.8855 96.9774L80.7002 96.9185V96.6747L80.8855 96.6158Z" fill="#FEE5BA"/>
<path d="M88.5828 117.919L88.6418 118.095L88.2123 118.583L88.1533 118.406L88.3386 118.036L88.5828 117.919Z" fill="#FEECD0"/>
<path d="M54.4178 72.5038H54.662L54.5441 72.7477H54.4178L54.2999 72.9916L54.0557 73.1178L54.1735 72.6888H54.3588L54.4178 72.5038Z" fill="#F8BB4A"/>
<path d="M20.0759 109.374H20.1348L20.0759 110.038L19.9496 110.291H19.8906L19.9496 109.45L20.0759 109.374Z" fill="#FDD39C"/>
<path d="M46.2324 92.9406L46.3503 93.1256L46.2913 93.4368L46.0471 93.7395H45.8955L46.0723 93.1928L46.2324 92.9406Z" fill="#FDDFBA"/>
<path d="M76.0523 97.2213H76.2123V97.6502L76.0271 97.8941L75.9092 97.8352L76.0271 97.2886L76.0523 97.2213Z" fill="#FDBB43"/>
<path d="M47.268 90.5689H47.3354L47.3943 91.0651L47.2091 91.2417H47.0828L47.0238 91.4268L46.9648 91.309L47.268 90.5689Z" fill="#FDDEB7"/>
<path d="M21.1117 117.431L21.4148 117.607L21.5412 117.919L21.3559 117.851L21.2969 117.978L21.1117 117.792L21.0527 117.549L21.1117 117.431Z" fill="#FEEAC3"/>
<path d="M36.759 77.264V77.4491H36.6327L36.5064 77.693L36.0769 78.1808H35.959L36.0769 77.9368L36.6916 77.3313L36.759 77.264Z" fill="#FEDDA4"/>
<path d="M65.1133 117.851L65.2985 118.095V118.221H65.5427L65.6017 118.465L65.4249 118.65L65.1133 118.036V117.851Z" fill="#FDC05C"/>
<path d="M65.2644 117.734L65.5086 117.978L65.5675 118.221H65.2644L65.1465 117.919L65.2644 117.734Z" fill="#FEC145"/>
<path d="M63.892 83.6893H63.9509V84.0005H64.0772L64.3215 84.6061V84.7322H64.1951L63.892 84.0594L63.833 83.7566L63.892 83.6893Z" fill="#F6B760"/>
<path d="M35.2344 115.354L35.4113 115.412L35.2934 115.597L35.1671 115.841L34.9229 115.782L35.0492 115.539L35.2344 115.354Z" fill="#FDE1C3"/>
<path d="M20.8679 103.941L20.9268 104.185L20.8679 104.673L20.6826 104.79V104.37L20.8679 103.941Z" fill="#FDD9AD"/>
<path d="M71.4121 98.937L71.7153 98.9958L71.8416 99.1136L71.7742 99.2986L71.4121 99.1808V98.937Z" fill="#F8B643"/>
<path d="M85.8286 94.7234L85.9549 94.7823V94.9673L86.1401 95.0851L86.0728 95.2701L85.7696 95.0851V94.9673L85.5254 94.8412L85.8286 94.7234Z" fill="#FDDDB7"/>
<path d="M84.2463 84.7743L84.3641 84.9005L84.002 85.1443L83.7578 85.2032V84.9593L84.2463 84.7743Z" fill="#FDE0C2"/>
<path d="M72.8431 36.3738H72.9021V37.2905L72.7842 37.2317V36.8028L72.7168 36.4327L72.8431 36.3738Z" fill="#FEEAC3"/>
<path d="M35.5964 35.886L35.7227 35.9449L35.6553 36.4327L35.4785 36.3738L35.4111 36.1299L35.5964 35.886Z" fill="#FDE4C6"/>
<path d="M29.8957 120.416L30.081 120.543L29.4073 120.786H29.1631V120.694L29.8957 120.416Z" fill="#FFE0AF"/>
<path d="M25.8193 94.8412H26.3667L26.3078 95.0851H25.9456V94.9085L25.8193 94.8412Z" fill="#FEEAC3"/>
<path d="M86.0147 83.7987L86.141 84.0426V84.5304L86.0737 84.5893H85.7705L85.9558 84.4126L86.0147 83.7987Z" fill="#FDF8F1"/>
<path d="M52.6323 20.9917H52.8175L52.6912 21.3617L52.5059 21.3029L52.2617 21.3617L52.5059 21.059L52.6323 20.9917Z" fill="#3E454D"/>
<path d="M23.2508 111.325L23.6213 111.384L23.4361 111.51L22.8887 111.687L23.1329 111.384L23.2508 111.325Z" fill="#FEEAC3"/>
<path d="M64.3216 116.203L64.6248 116.514L64.6922 116.691L64.3806 116.573L64.1953 116.514L64.2627 116.329L64.3216 116.203Z" fill="#FFC54A"/>
<path d="M34.9483 115.471L35.1336 115.539L34.9483 115.782H35.1336L35.0746 115.959H34.9483L34.7715 115.715L34.9483 115.471Z" fill="#FEE9C9"/>
<path d="M30.1562 104.126L30.2236 104.244H30.6447L30.4005 104.488L30.2236 104.546L30.1562 104.488V104.126Z" fill="#FFD478"/>
<path d="M35.8403 78.1218H35.9667L35.8403 78.3657L35.5372 78.6096L35.293 78.5508L35.8403 78.1218Z" fill="#FDE0BB"/>
<path d="M51.4288 69.5183H51.5467L51.4877 69.8211L51.3025 70.0061V69.8799H51.1846V69.7033L51.4288 69.5183Z" fill="#FEE2B4"/>
</g>
<defs>
<clipPath id="clip0_235_3213">
<rect width="111" height="125" fill="white"/>
</clipPath>
</defs>
</svg>
