<svg width="111" height="125" viewBox="0 0 111 125" fill="none" xmlns="http://www.w3.org/2000/svg">
<g id="toursara_logo" clip-path="url(#clip0_264_3187)">
<path id="Vector" d="M55.4958 122.923C86.1453 122.923 110.992 98.109 110.992 67.4998C110.992 36.8906 86.1453 12.077 55.4958 12.077C24.8463 12.077 0 36.8906 0 67.4998C0 98.109 24.8463 122.923 55.4958 122.923Z" fill="#EF3A45"/>
<path id="Vector_2" d="M53.9294 -7.62939e-06H55.7063L57.5337 0.302771L58.7632 0.672819L59.7401 1.03445L60.9022 1.6484L61.8117 2.25393L62.4264 2.75012L63.0412 3.29678L63.8328 4.08733L64.4391 4.88628L65.1128 5.92074L65.8454 7.44297L66.3339 8.97362L66.5191 9.57915L67.8076 10.252L69.0876 11.093L69.8792 11.6985L70.7213 12.4302L72.0013 13.7169L72.5571 14.3898L73.2898 15.3653L74.0224 16.5259L74.8645 18.208L75.4203 19.604L75.8498 21.0085L76.153 22.413L76.3383 23.8764L76.3972 25.1043L76.4562 32.6734L77.0709 33.22L77.6772 34.0611L78.1067 34.9778L78.292 35.7095L78.3509 36.3234V38.3334L78.233 39.5613L77.9215 40.7135L77.5593 41.6302L77.0709 42.5469L76.5151 43.2786L75.8498 44.0775L75.0077 44.7419L74.1656 45.297L71.5971 46.5754L71.294 46.6342L71.1087 47.1893L70.435 48.6527L69.8203 49.8133L69.155 50.8477L68.5402 51.6887L67.8665 52.4793L67.437 52.967L66.216 54.2538L65.5423 54.8005L64.7507 55.406L64.6917 61.0828L65.357 61.2679L82.5952 67.0036L83.8163 67.5587L84.7932 68.1642L85.4079 68.652L86.0143 69.1987L86.57 69.7537L87.3027 70.7293L87.8501 71.646L88.3385 72.8066L88.6417 73.7821L88.8859 75.1194L91.9428 96.4811L92.0017 96.8512V97.339L91.0922 97.524L90.1743 97.6418L90.5364 100.165L90.6628 101.267L90.7806 101.443L92.128 101.267H92.6165L93.0459 104.134L93.8375 109.685L93.9639 110.728L94.0228 111.636V113.966L93.8965 115.429L93.5933 116.775L93.2312 117.868L92.5575 119.273L92.128 119.945L91.5133 120.786L90.6712 121.703L90.1827 122.191L89.3406 122.855L88.3638 123.469L87.4458 123.957L86.1658 124.445L84.8184 124.815L83.7826 124.991H81.5173L79.8331 124.63L78.4857 124.201L76.9614 123.469L76.0435 122.855L75.3698 122.376L74.7551 121.829L73.9635 121.039L73.534 120.551L72.9782 119.937L72.6161 119.449L72.4898 119.39V123.217L72.3719 123.705L72.0687 124.251L71.5803 124.68L70.9655 124.983H38.7797L38.0386 124.563L37.6175 124.134L37.3733 123.587L37.3059 123.032L33.4574 123.091L32.8511 123.461L31.8658 123.949L31.0237 124.319L29.5584 124.739L28.27 124.983H26.0131L24.3288 124.621L22.6446 124.075L21.4151 123.461L20.8677 123.091L20.5056 123.032H8.00011L7.88222 123.646L7.32641 123.52L4.64004 122.603L4.15161 122.359L4.33688 121.754L5.2548 119.071L6.16429 116.438L7.0822 113.756L8.00011 111.132L9.28856 107.406L10.1981 104.782L10.8717 102.89L11.2423 102.957L12.7076 103.445L12.9518 102.831L13.9286 99.9629L14.055 99.534L13.3813 99.349L12.337 98.9874L12.2781 98.8023L12.8928 97.0362L13.8107 94.3449L14.7202 91.721L16.0087 88.0037L16.5561 86.4731L17.1708 84.707L18.2066 81.6541L18.9982 79.3917L20.4046 75.3044L20.9604 73.841L21.3225 73.1093L21.8783 71.831L22.4257 70.847L23.032 70.006L23.8741 69.0893L24.4889 68.5426L25.331 67.9287L26.3078 67.382L27.47 66.8943L43.9755 61.4024L44.9524 61.0913L45.0114 61.0324V55.4817L44.464 54.9939L43.8492 54.5061L43.0576 53.766L41.8955 52.6138L41.2218 51.7728L40.6071 50.9823L39.8744 49.8217L39.0323 48.1397L38.4175 46.7351L35.487 45.2718L34.6448 44.6578L34.1059 44.1616L33.7943 43.9177L33.2469 43.2449L32.7585 42.5721L32.0848 41.2938L31.7227 40.1921L31.5374 39.2754L31.4785 38.7876V36.1047L31.6553 35.188L32.0258 34.2713L32.5143 33.5396L33.2469 32.7491L33.3732 32.6229L33.4322 24.4483L33.5501 23.1615L33.7353 22.0682L34.1059 20.5376L34.5943 19.0742L35.268 17.552L35.9333 16.3325L36.7754 15.0457L37.2049 14.4991L37.4491 14.5579L38.2912 15.2308L38.7207 15.5335L38.9649 15.4158L39.3944 14.8607H39.5207L39.6386 14.6168L40.5565 13.7085L40.3713 13.3974L39.6976 12.6657L39.3944 12.304L39.5207 12.0601L40.4302 11.3285L41.4744 10.5884L42.7545 9.85668L43.3103 9.55393L43.4871 9.00727L43.7987 7.9644L44.405 6.50104L45.0787 5.34044L45.8114 4.36486L46.3587 3.75933L46.7882 3.27155L47.2767 2.84262L48.0767 2.2287L48.9862 1.62317L49.9714 1.13537L50.8136 0.765318L51.9757 0.403688L53.4999 0.0925173L53.9294 -7.62939e-06Z" fill="#020202"/>
<path id="Vector_3" d="M49.0452 57.5506L49.5926 57.6768L51.1168 58.1057L52.4053 58.3496L53.4747 58.4589L54.3926 58.5262H55.4285L56.9611 58.4L58.4264 58.1562L59.6475 57.8534L60.5654 57.5422H60.8096V61.7473L60.8686 62.849L61.1128 63.5218L61.4833 63.9423L62.3254 64.3713L81.2142 70.662L82.1911 71.1498L82.8058 71.5787L83.4121 72.1254L83.9006 72.6721L84.4564 73.5888L84.8185 74.5644L85.0627 75.8511L86.2249 83.9669V84.5304L83.6985 85.3714L81.071 86.2124L78.3847 87.1291L78.1405 87.0114L76.9194 84.564L76.3046 83.2857L75.8836 82.6128L75.2688 82.1839L74.4267 81.6961L72.7425 80.7205L71.2772 79.8795L69.5087 78.8451L68.1613 78.0545L66.9992 77.3817L64.616 75.9773L63.3949 75.2456L59.8496 73.1682L58.9317 72.6216L58.7548 72.6804L57.9127 74.1439L57.3653 75.0605L56.9358 75.7333V75.9184L57.778 76.4062L58.4517 76.8351L59.0075 77.1379L60.4728 77.9789L62.157 78.9544L62.9991 79.4422L64.6834 80.4178L66.1487 81.2588L67.0666 81.8139L68.1108 82.4194L68.8435 82.7895V82.9072L69.1466 82.9745V83.0922L69.4498 83.2184L70.1235 83.58L70.494 83.7651V83.8828L70.7972 84.0089L71.1677 84.1939L71.833 84.6229L72.5656 84.9845V85.1107L72.8772 85.2284L73.1214 85.4723L73.8541 86.8768L75.3194 89.8035L75.5636 90.3586L75.8078 91.0314L76.052 91.8724L76.1783 92.2424L76.3552 93.0835L76.4815 94.6141V95.7747L76.3552 96.9942L76.052 98.3987L75.6899 99.492L75.1931 100.653L74.8899 101.267L74.5867 101.199L73.3656 100.358L73.1804 100.299V100.173L72.9362 100.114L72.4477 99.7443L72.1446 99.5677L71.7151 99.2565L71.4119 99.0715L70.4266 98.4071L70.1235 98.0959L69.5171 96.6914L69.2056 95.9598L68.7761 95.043L68.2287 93.7647L67.9845 93.2769L67.7992 92.7891L67.4961 92.0574L66.8224 90.5941L65.9045 88.4579L65.1129 86.6834L64.195 84.5472L63.5886 82.9661L63.1002 81.9821L62.6118 81.1916L61.997 80.401L61.3233 79.7281L60.4054 79.0553L59.3696 78.5675L58.6959 78.3237L57.719 78.1387H56.439L55.698 78.3237L55.0327 78.6937L54.7884 78.6264L53.9884 78.2648L53.3821 78.1387H52.161L50.9989 78.3825L50.081 78.7526L49.2389 79.2404L48.6325 79.7281L48.0178 80.2748L47.3441 81.1158L46.7378 82.0914L46.1904 83.252L45.8788 84.1603L45.5167 85.0013L45.3314 85.4302L45.0872 85.9769L44.784 86.7086L44.2956 87.8692L43.8661 88.7859L43.6219 89.3914L43.3188 90.0054L43.0745 90.6109L42.0303 92.9321L41.7271 93.7311L41.4829 94.2189L40.8092 95.7411L40.5061 96.5316L40.1945 96.5989L39.3524 96.1111L38.6197 95.6822L37.6429 95.1944L35.7481 94.2777L34.9481 93.9077L32.7249 92.9405L31.807 92.5789L30.2238 92.0322L28.9353 91.6033L27.3437 91.1155L26.3079 90.8716L25.331 90.6277L23.7394 90.2577L22.7626 90.0138L22.8215 89.4082L24.5984 77.079L24.9016 75.0605L25.1458 74.1439L25.6342 73.1094L26.19 72.3777L26.7374 71.7638L27.47 71.2171L28.4469 70.7293L29.5501 70.3004L33.9459 68.8371L34.9902 68.5343L35.5376 68.3493L35.967 68.1642L37.0028 67.8615L38.4681 67.3736L39.0829 67.1298L40.7671 66.5747L41.1966 66.642L41.744 67.0036L42.5861 67.4914L43.504 68.0465L44.0514 68.3493L44.4135 68.5343V68.652L44.7251 68.7782L45.702 69.3248L46.6199 69.8715H46.8641L47.2262 69.2659L47.5378 68.7109H47.6557L47.7146 68.467L48.6746 66.8691L48.7336 66.6252L46.3504 65.2207L45.9883 64.9768V64.8506L47.942 64.1778L48.4894 63.8162L48.801 63.3284L48.9778 62.7144L49.0452 57.5506Z" fill="#FCB649"/>
<path id="Vector_4" d="M54.8473 24.9025L55.1505 25.0875L56.1358 26.0631L56.8011 26.6097L57.8453 27.4003L58.7632 28.0142L59.9169 28.687L60.9022 29.1748L61.8117 29.6037L63.2854 30.1504L64.8096 30.5793L66.7044 30.9409L68.5402 31.1848L68.5992 31.2521V33.7752L68.5402 41.8321L68.355 43.1188L68.0518 44.3972L67.6813 45.4989L67.0076 47.0211L66.216 48.3668L65.4833 49.3423L64.6917 50.259L63.9507 50.9907L63.2854 51.5374L62.4854 52.1513L61.6938 52.6391L60.3464 53.3708L59.1253 53.8586L57.66 54.2875L55.9758 54.5903L55.1842 54.6491H54.5105L53.2894 54.5314L51.6052 54.1614L50.3252 53.7324L49.1041 53.1858L48.0682 52.6391L47.3356 52.1513L46.5356 51.5374L45.6935 50.8057L44.8514 49.9647L44.304 49.2919L43.6303 48.3752L43.1419 47.5342L42.4092 46.1381L41.8534 44.6663L41.4913 43.2029L41.306 41.9246L41.2471 41.1256V31.1175L41.365 31.0587L42.6534 30.9409L44.4808 30.6298L46.1651 30.2008L47.8493 29.5953L49.0704 29.0487L50.2325 28.4347L51.4536 27.703L51.6304 27.6441V27.518L52.1862 27.1564L52.9189 26.6013L53.7105 25.9285L54.5105 25.1968L54.8473 24.9025Z" fill="#FDDFC1"/>
<path id="Vector_5" d="M56.9274 82.0073L57.66 82.0746L58.3927 82.4362L59.0074 82.9241L59.5548 83.6557L60.0432 84.6397L60.658 86.3217L61.4496 88.0963L62.4854 90.4175L63.5885 92.9405L64.8096 95.7495L65.9128 98.2726L66.7549 100.224L67.0665 100.77L67.3697 101.082L68.0433 101.569L84.1868 112.284L85.0289 112.831H85.1553L85.5763 112.158L86.0648 111.426L87.109 109.904L87.1679 109.66L84.5405 107.885L82.0142 106.245L78.8899 104.168L78.0477 103.554L78.1067 103.251L78.7215 102.091L79.3278 100.569L79.7573 99.0967L80.0604 97.5745L80.1278 96.9017L80.431 96.7167L81.652 96.2962L86.1153 94.6141L87.3953 94.1263L87.6395 94.1936L88.1279 97.8521L88.928 97.7932L90.0817 97.667L90.2669 98.3987L90.6375 101.334L90.6964 101.578L88.7427 101.881L90.0227 111.039L90.0817 111.947V113.84L89.9638 115.126L89.6606 116.22L89.2311 117.137L88.8016 117.868L88.3132 118.482L87.7658 119.096L87.21 119.584L86.1742 120.248L85.0121 120.736L83.791 121.047L83.2436 121.106H81.9552L80.8604 120.921L79.8836 120.618L78.8983 120.131L78.233 119.702L77.5593 119.155L76.8267 118.423L76.2709 117.75L75.4793 116.909L74.9319 116.237L74.1992 115.446L73.6435 114.773L72.9698 114.042L72.5487 113.554L71.8161 112.713L71.2603 112.099L70.8308 111.611L70.0981 110.77L69.5508 110.164L69.1213 109.677L68.3886 108.836L67.8412 108.23L67.4118 107.734L66.6791 106.893L66.1317 106.279L65.8202 105.976L65.2644 105.556L64.9612 105.488L61.8369 105.43L60.7422 105.186L59.7653 104.698L59.2095 104.269L58.4179 103.478L57.8032 102.562L57.3821 101.645L57.1969 101.216L57.0116 100.552L56.8937 99.3911V82.1503L56.9274 82.0073Z" fill="#FDDFC1"/>
<path id="Vector_6" d="M52.6327 82.0073H52.8769L52.9358 82.1335V98.8529L52.8769 100.013L52.6327 101.115L52.2621 102.091L51.7905 103.033L51.3021 103.638L50.46 104.479L49.6179 104.967L48.8852 105.27L47.9673 105.455L44.9104 105.514L44.363 105.64L43.8746 105.943L43.6893 106.01L43.5714 106.254L42.7714 107.095L42.224 107.768L41.4914 108.558L40.944 109.231L40.144 110.072L39.5966 110.745L38.9903 111.409L38.5608 111.897L36.9692 113.73L36.3544 114.403L35.8071 115.076L35.0155 115.917L34.4681 116.59L33.8533 117.263L33.4239 117.75L32.6323 118.667L32.0175 119.281L31.2849 119.828L30.308 120.374L29.3311 120.744L28.2953 120.988L27.7395 121.047H26.5269L25.4237 120.862L24.1437 120.433L23.2258 119.945L22.4931 119.399L21.8784 118.852L21.2047 118.12L20.5394 117.019L20.051 115.858L19.7899 114.807L19.7225 114.311V111.325L20.0341 109.004L21.9878 95.3963L22.2321 93.9918L22.9058 94.0507L24.8005 94.4207L26.6953 94.9085L28.8932 95.6402L29.4996 95.8841L29.5669 96.0018L29.7438 97.6838L30.1143 99.4584L30.4849 100.619L30.9733 101.897L31.5207 102.932L31.7649 103.42V103.605L30.6617 104.336L28.0343 106.111L25.3479 107.877L24.1858 108.676L23.0826 109.408L22.6615 109.651L22.7205 109.954L23.3942 110.93L24.1268 112.032L24.6742 112.873L24.9774 112.755L27.3606 111.165L29.988 109.399L32.6828 107.625L35.3102 105.858L37.9966 104.084L40.624 102.318L42.0303 101.401L42.5777 100.972L42.8893 100.611L43.4956 99.2649L44.2957 97.4315L45.3904 94.9085L46.2325 92.9489L47.3357 90.4259L48.1778 88.4747L49.2136 86.0946L49.8284 84.5051L50.3758 83.4707L50.9316 82.7979L51.5968 82.3101L52.1526 82.0662L52.6327 82.0073Z" fill="#FDDFC1"/>
<path id="Vector_7" d="M49.0452 57.5506L49.5926 57.6768L51.1168 58.1057L52.4053 58.3496L53.4747 58.4589L54.3926 58.5262H55.4285L56.9611 58.4L58.4264 58.1562L59.6475 57.8534L60.5654 57.5422H60.8096V61.7473L60.8686 62.849L61.1128 63.5218L61.4833 63.9424L62.3254 64.3713L81.2142 70.662L82.1911 71.1499L82.8058 71.5787L83.4121 72.1254L83.9006 72.6721L84.4564 73.5888L84.8185 74.5644L85.0627 75.8511L86.2248 83.9669V84.5304L83.6985 85.3714L81.071 86.2124L78.3847 87.1291L78.1405 87.0114L76.9194 84.564L76.3046 83.2857L75.8836 82.6128L75.2688 82.184L74.4267 81.6962L72.7425 80.7206L71.2772 79.8795L69.5087 78.8451L68.1613 78.0546L66.9992 77.3817L64.616 75.9773L63.3949 75.2456L59.8496 73.1683L58.9317 72.6216L58.7548 72.6805L57.9127 74.1439H57.6853L57.3822 73.9672L56.9527 73.7822L55.6053 72.9412L55.3022 72.6973L54.9316 72.5795L54.7548 72.4534L54.4432 72.3945L54.6284 71.9067L54.9316 71.4189L55.42 70.6284L55.3611 70.4434L53.7695 69.5266L52.4305 68.7361L52.1273 68.6688L51.2852 70.1995L51.1 70.2584V70.2331H50.7968V70.107L50.5526 70.0481L49.5757 69.5014L48.2283 68.6604L47.9252 68.4166L47.9841 68.1726L48.7168 66.8943L48.7757 66.6504L46.3925 65.2459L46.0304 65.002V64.8759L47.9841 64.2031L48.5315 63.8414L48.8431 63.3536L49.0199 62.7397L49.0452 57.5506Z" fill="#FDDFC1"/>
<path id="Vector_8" d="M49.963 11.7153H59.3695L60.9022 11.8415L62.4854 12.2031L63.9507 12.6909L65.2391 13.3049L66.4602 14.0365L67.1928 14.5832L67.8665 15.1383L68.7087 15.9288L69.1381 16.4166L69.7529 17.1483L70.4266 18.1239L70.915 18.9649L71.4624 20.1255L71.8919 21.2861L72.254 22.7495L72.4392 23.9689L72.4982 24.8099V28.5272L72.3803 28.6534L72.1361 28.0983L71.6477 27.6778L71.3445 27.4928L70.7297 27.3666L68.4055 27.19L66.3928 26.8788L65.1044 26.5761L63.277 25.9621L61.8033 25.2977L60.4053 24.4988L59.5632 23.8932L58.8895 23.3382L58.0979 22.6065L57.5421 22.0009L56.8095 20.8992L56.321 20.2264L55.8916 19.8648L55.4705 19.6798H54.2494L53.8789 19.8648L53.2641 20.4703L52.902 20.9581L52.4725 21.1431L52.1694 21.5132L51.3694 22.0598L50.3335 22.6738L48.6493 23.4054L46.4514 24.1371L45.045 24.4988L43.0324 24.8688L39.0575 25.4155L38.3165 25.6594L37.828 26.021L37.6512 26.3322L37.4659 26.6938H37.407V23.8848L37.6512 22.4214L38.0723 20.8992L38.5607 19.6798L39.1754 18.4603L39.6639 17.7286L40.3376 16.8119L40.0344 16.6857L38.9902 15.8447L38.9312 15.6597L38.8133 15.6008L39.3607 14.9869L39.4197 14.8607H39.546L39.6639 14.6168L40.5818 13.7085L40.826 13.8263L41.7439 14.8019L41.9881 15.0458L42.3502 14.8019L43.0913 14.2552L43.3945 14.0702L44.0008 13.6413L44.8429 13.1535L46.1229 12.6068L47.4114 12.1779L48.8177 11.8751L49.963 11.7153Z" fill="#414951"/>
<path id="Vector_9" d="M57.6853 82.2091L58.0558 82.2764L58.6032 82.6381L58.9737 82.9408L59.5211 83.6725L60.0096 84.6565L60.6243 86.3385L61.4159 88.1131L62.4854 90.4174L63.5886 92.9405L64.8096 95.7495L65.9128 98.2725L66.7549 100.224L67.0665 100.77L67.3697 101.082L68.0434 101.569L84.1869 112.284L85.029 112.831H85.1553L85.5764 112.158L86.0648 111.426L87.109 109.904L87.168 109.66L84.5406 107.885L82.0142 106.245L78.8899 104.168L78.0478 103.554L78.1067 103.251L78.7215 102.091L79.3278 100.569L79.7573 99.0967L80.0605 97.5745L80.1278 96.9017L80.431 96.7166L81.6521 96.2961L86.1153 94.6141L87.3953 94.1263L87.6396 94.1936L88.128 97.852L88.928 97.7932L90.0817 97.667L90.267 98.3987L90.6375 101.334L90.6965 101.578L88.7427 101.88L90.0228 111.039L90.0817 111.947V113.84L89.9638 115.126L89.6607 116.22L89.2312 117.137L88.8017 117.868H88.6838L88.6164 117.692V117.019L88.3722 116.834L88.0101 116.649L87.168 116.102L86.4943 115.673L85.3995 114.941L82.5952 113.125L81.2479 112.284L80.0268 111.443L78.5025 110.467L76.212 109.004L75.5383 108.575L73.2814 107.112L71.934 106.271L70.9571 105.657L70.115 105.11L68.9613 104.378L68.1192 103.823L66.7718 102.982L66.1655 102.553L65.4328 102.007L65.0033 101.578L64.5149 100.846L63.9002 99.4415L62.5612 95.7158L61.9464 94.0338L61.1548 91.9565L60.7253 90.737L59.8832 88.542L59.2769 86.7758L58.5443 84.7574L58.3001 84.1435L57.8116 82.8063L57.6263 82.2596L57.6853 82.2091Z" fill="#FFF1DE"/>
<path id="Vector_10" d="M51.2431 82.5792L51.4284 82.6381L51.1842 83.1847L51.1168 83.4959H50.9989L50.8137 84.2865L50.5694 85.0181L50.2073 86.2964L49.4663 88.5588L48.9778 90.0222L48.5568 91.3678L47.942 93.2601L47.2094 95.3962L46.5946 97.1624L45.862 99.3574L45.4409 100.585L44.9441 101.376L44.6409 101.746L43.9672 102.293L42.5272 103.268L41.4914 103.941L41.0619 104.185L40.0261 104.858L38.6787 105.699L37.7018 106.313L36.4808 107.103L35.8071 107.532L34.6449 108.264L33.6681 108.878L32.2365 109.761L31.4449 110.257L30.4006 110.921L28.9353 111.838L27.8995 112.511L25.5163 114.1L24.5395 114.773L23.8658 115.194L23.4952 115.438H23.3773V115.564L22.5773 116.052L21.0531 116.968L20.9268 117.212H20.632L20.2025 116.371L19.8994 115.396L19.7141 114.294V111.308L20.0257 108.987L21.9794 95.3794L22.2236 93.9749L22.8973 94.0338L24.7921 94.4038L26.6869 94.8916L28.8848 95.6233L29.4911 95.8672L29.5585 95.9849L29.7354 97.667L30.1059 99.4415L30.4764 100.602L30.9649 101.88L31.5122 102.915L31.7565 103.403V103.588L30.6533 104.319L28.0258 106.094L25.3395 107.86L24.1774 108.659L23.0742 109.391L22.6531 109.635L22.7121 109.937L23.3858 110.913L24.1184 112.015L24.6658 112.856L24.9689 112.738L27.3521 111.148L29.9796 109.382L32.6744 107.608L35.3018 105.842L37.9881 104.067L40.6156 102.301L42.0219 101.384L42.5693 100.955L42.8809 100.594L43.4872 99.2481L44.2872 97.4147L45.382 94.8916L46.2241 92.9321L47.3273 90.409L48.1694 88.4579L49.2052 86.0778L49.82 84.4883L50.3673 83.4538L50.9231 82.781L51.2431 82.5792Z" fill="#FFEFDD"/>
<path id="Vector_11" d="M18.2403 93.7815H18.3666L18.2993 94.3282L17.9961 95.9177L17.8108 97.0111L17.6929 98.1716L17.4487 99.7023L17.0192 102.629L16.834 103.848L16.7161 104.824L16.4045 106.96L16.2276 108.491L16.0424 109.525L15.9834 110.257L15.8571 110.871V114.714L15.9834 115.631L16.2866 116.909L16.5308 117.641L16.775 118.255L17.5077 119.601L17.9961 120.332L18.4845 120.938L19.1582 121.67L19.6467 122.157L20.4383 122.771L20.6825 122.956L20.6235 123.074H8.00011L7.88222 123.688L7.32641 123.562L4.64004 122.645L4.15161 122.401L4.33688 121.796L5.2548 119.113L6.16429 116.481L7.0822 113.798L8.00011 111.174L9.28856 107.448L10.1981 104.824L10.8718 102.932L11.2423 102.999L12.7076 103.487L12.9518 102.873L13.9286 100.005L14.055 99.6434L14.6613 99.82L15.2171 100.005L15.6382 100.131H15.9497L16.3119 99.0883L16.5561 98.4828L16.9266 97.3811L17.1708 96.7671L17.6593 95.2449L17.8445 94.816L18.0887 94.0254L18.2403 93.7815Z" fill="#EF7422"/>
<path id="Vector_12" d="M50.9484 108.575H51.2515V108.701L51.4957 108.76L52.1105 109.307L52.7758 109.862L53.6937 110.652L54.4937 111.384L55.2263 112.057L55.8326 112.603L57.3653 114.134L57.7864 114.622L58.4601 115.354L59.0159 116.026L59.6811 116.817L60.5233 117.978L61.138 118.894L62.0475 120.475L62.2328 120.845V121.089H41.1797L41.1208 118.827L40.8092 117.792L40.565 116.876L40.2618 115.959L40.3208 115.715L41.0534 114.925L41.6092 114.252L42.4008 113.411L42.9482 112.738L43.563 112.065L43.9924 111.577L44.5398 110.963L44.7251 110.72H44.843L44.9693 110.417L45.7019 109.626L45.8872 109.382L48.203 109.315L49.3062 109.138L50.2241 108.895L50.9484 108.575Z" fill="#F58C84"/>
<path id="Vector_13" d="M49.2641 11.7826H54.881L54.9484 14.3057V15.4663L54.881 17.7286L54.7041 18.4014L54.2157 19.3097L54.0305 19.4947L53.9041 19.8059L53.2304 20.4703L52.8683 20.9581L52.4388 21.1431L52.1357 21.5132L51.3357 22.0598L50.2999 22.6738L48.6156 23.4054L46.4177 24.1371L45.0113 24.4988L42.9987 24.8688L39.0239 25.4155L38.3165 25.6594L37.828 26.021L37.6512 26.3322L37.4659 26.6938H37.407V23.8848L37.6512 22.4214L38.0723 20.8992L38.5607 19.6798L39.1754 18.4603L39.6639 17.7286L40.3376 16.8119L40.0344 16.6857L38.9902 15.8447L38.9312 15.6597L38.8133 15.6008L39.3607 14.9869L39.4197 14.8607H39.546L39.6639 14.6168L40.5818 13.7085L40.826 13.8263L41.7439 14.8019L41.9881 15.0458L42.3502 14.8019L43.0913 14.2552L43.3945 14.0702L44.0008 13.6412L44.8429 13.1535L46.1229 12.6068L47.4114 12.1779L48.8177 11.8751L49.2641 11.7826Z" fill="#575A65"/>
<path id="Vector_14" d="M61.3906 79.3414H61.8117L62.9738 79.8291L63.8159 80.3842L64.6075 80.9308L65.2812 81.3598L66.3844 82.0242L67.7234 82.8652L72.0013 85.3883L72.4898 85.7499L72.8603 86.1788L73.1635 86.6666L73.534 86.8516L73.593 87.1544L73.7782 86.9105L75.2435 89.8372L75.4877 90.3923L75.7319 91.0651L75.9762 91.9061L76.1025 92.2762L76.2793 93.1172L76.4056 94.6479V95.8084L76.2793 97.0279L75.9762 98.4324L75.614 99.5257L75.1172 100.686L74.814 101.3L74.5109 101.233L73.2898 100.392L73.1045 100.333V100.207L72.8603 100.148L72.3719 99.778L72.0687 99.6014L71.6392 99.2902L71.3361 99.1052L70.3508 98.4408L70.0476 98.1296L69.4413 96.7251L69.1297 95.9935L68.7002 95.0767L68.1528 93.7984L67.9086 93.3106L67.7234 92.8228L67.4202 92.0911L66.7465 90.6278L65.8286 88.4916L65.037 86.717L64.1191 84.5809L63.5128 82.9998L63.0243 82.0158L62.5359 81.2252L62.4685 81.1075H62.5948V80.7374L62.3506 80.6197V80.4936L62.1654 80.4347L61.7359 79.8796L61.618 79.8208V79.6357L61.3064 79.5768L61.3906 79.3414Z" fill="#FCB64A"/>
<path id="Vector_15" d="M23.6215 94.2357L24.2279 94.2946L26.6784 94.9085L28.8764 95.6402L29.4827 95.8841L29.5501 96.0019L29.7269 97.6839L30.0974 99.4584L30.468 100.619L30.9564 101.897L31.5038 102.932L31.748 103.42V103.605L30.6448 104.336L28.0174 106.111L25.331 107.877L24.1689 108.676L23.0657 109.408L22.6447 109.652L22.7036 109.954L23.3773 110.93L23.8068 111.603H23.3099L22.4678 112.032L21.9204 112.393L21.0783 112.881L20.8341 112.822L20.7751 112.763V111.964L21.0194 110.686L21.3815 108.432L21.6341 107.145L22.1225 104.219L22.7878 100.249L23.3436 96.7672L23.7731 94.5132L23.891 94.4544L23.5878 94.3282L23.6215 94.2357Z" fill="#FDDFC1"/>
<path id="Vector_16" d="M85.8289 94.7234L85.9553 94.7823V94.9673L86.1405 95.0851L86.57 97.8352L87.85 105.16L88.5237 109.13L88.8858 111.266L89.1974 113.158V113.461L88.9532 113.579L88.1532 112.973L87.4205 112.301L87.0584 112.057L86.8142 111.813L86.6289 111.687V111.569H86.5026L86.57 111.081L86.991 110.711L87.2353 110.223L87.3616 109.921V109.761H87.2353L86.9321 109.458L84.2458 107.692L78.9235 104.151L78.0814 103.537L78.1404 103.235L78.7551 102.074L79.3614 100.552L79.7909 99.0799L80.0941 97.5577L80.1615 96.8849L80.4646 96.6998L81.6857 96.2793L83.7657 95.4383L85.8289 94.7234Z" fill="#FBDFC1"/>
<path id="Vector_17" d="M10.9054 102.898L11.276 102.965L13.1118 103.571L13.7181 103.815L14.4508 104L14.5771 104.126V104.488L14.3918 104.858L14.2065 105.522L14.0213 105.951L13.6002 107.17L13.0444 108.852L12.8002 109.458L12.497 110.434L12.2528 111.048L11.9497 111.889L11.7644 112.444L11.3349 113.781L11.1497 114.21L10.9728 114.765L10.6023 115.917L10.3581 116.531L10.0549 117.507L9.81067 118.12L9.19592 119.887L8.83382 121.047L8.58959 121.661L8.09275 122.998L7.91589 123.612L7.3601 123.486L4.67373 122.569L4.1853 122.326L4.37057 121.72L5.28848 119.037L6.19797 116.405L7.11588 113.722L8.03379 111.098L9.32225 107.372L10.2317 104.748L10.9054 102.898Z" fill="#020202"/>
<path id="Vector_18" d="M54.8473 24.9025L55.1505 25.0875L56.1358 26.0631L56.801 26.6097L57.8453 27.4003L58.7632 28.0142L59.9169 28.687L60.9022 29.1748L61.8117 29.6037L63.2854 30.1504L64.8096 30.5793L66.7044 30.9409L68.5402 31.1848L68.5992 31.2521V33.7752L68.5402 41.8321L68.355 43.1188L68.0518 44.3972L67.6812 45.4989L67.0076 47.0211L66.216 48.3668L65.4833 49.3423L64.6917 50.259L63.9507 50.9907L63.2854 51.5374L62.4854 52.1513L62.1822 52.2691V51.9074L62.3675 51.2935L62.6706 50.8057H62.7969L62.9148 50.5618L63.3443 50.074H63.4622L63.5885 49.7713L63.8327 49.4601L64.3801 48.5518L64.9359 47.5089L65.2391 46.8361L65.6686 45.8017L65.9128 45.1877L66.3338 43.5477L66.5191 42.631L66.5781 41.79L66.6455 40.6967L66.7044 38.6783L66.6455 36.4243L66.5781 33.8004V33.0014L66.5191 32.8248L66.216 32.6987L65.298 32.5136L63.8327 32.0847L62.4854 31.5969L61.2053 31.0503L59.5211 30.1336L58.9064 29.7046L58.7884 29.6458V29.528L58.5442 29.4019L58.1737 29.158L57.5674 28.6113L57.0789 28.1824L56.2789 27.3919V27.3414L56.1021 27.2825L55.6726 26.7947L55.361 26.4247L55.1168 25.8192L55.0579 25.508L54.8136 25.5753L54.3252 26.1808L53.7105 27.1564L53.0452 27.888L52.3715 28.5609L51.6978 29.1159L51.2683 29.4776H51.1504V29.6037L50.2325 30.2093L49.3146 30.7643L48.3377 31.2521L47.3608 31.6726L46.1987 32.1015L44.6071 32.5305L43.2682 32.8332L42.106 33.0182L42.0386 33.0771H41.306L41.2471 35.6422H41.1881V31.1848L41.306 31.126L42.5944 31.0082L44.4219 30.697L46.1061 30.2681L47.7903 29.6626L49.0114 29.1159L50.1735 28.502L51.3946 27.7703L51.5715 27.7114V27.5853L52.1273 27.2236L52.8599 26.6686L53.6515 25.9958L54.4515 25.2641L54.8473 24.9025Z" fill="#FFDAAC"/>
<path id="Vector_19" d="M54.8473 105.278L55.0916 105.404L55.4621 105.951L56.0095 106.565L56.3126 106.927L56.9863 107.482L57.66 107.969L58.8221 108.575L60.2285 109.063L61.2053 109.248L61.8117 109.307L63.7738 109.374L64.077 109.618L64.3802 110.038L64.6917 110.35L65.1128 110.837L65.357 111.14L65.6686 111.443V111.569H65.7865L66.0897 111.998L66.4012 112.301L66.8307 112.788L67.0749 113.091L67.3781 113.402L67.8076 113.949L68.1107 114.252L68.9529 115.227V115.354H69.0707V115.471H69.1971V115.598H69.315V115.715H69.475L69.4076 116.085L68.6749 118.768L68.5571 121.03L68.4897 121.089H66.4181L65.7444 119.323L65.1296 118.036L64.338 116.691L63.5464 115.539L62.5696 114.252L62.0138 113.579L61.2811 112.738L59.5969 110.905L58.62 109.929L58.4937 109.87V109.761H58.3758V109.643L58.1316 109.517L57.2895 108.676L56.6832 108.121L56.1947 107.692L55.58 107.145L55.1505 106.843L54.8473 106.54L54.4178 106.17L54.4768 105.926L54.721 105.497H54.8473V105.278Z" fill="#FCB649"/>
<path id="Vector_20" d="M40.7924 66.5831L41.2219 66.6504L41.7693 67.0121L42.384 67.3821L42.5019 67.626L42.4429 67.7437L41.3398 68.0549L39.3271 68.7194L37.6429 69.2072L33.6091 70.435L32.5733 70.7378L31.5796 71.0742L30.7375 71.4442L29.9375 71.932L29.3311 72.4198L28.7164 72.9665L27.9248 74.0093L27.4364 74.926L27.0658 75.8427L26.7037 77.365L26.2153 80.2328L25.8447 82.369L24.6237 89.812V90.2998H24.0763L22.7878 89.997L22.8468 89.3915L24.6237 77.0622L24.9268 75.0437L25.171 74.1271L25.6595 73.0926L26.2153 72.361L26.7627 71.747L27.4953 71.2004L28.4722 70.7126L29.5753 70.2836L33.9712 68.8203L35.0154 68.5175L35.5628 68.3325L35.9923 68.1475L37.0281 67.8447L38.4934 67.3569L39.1082 67.113L40.7924 66.5831Z" fill="#FEDA74"/>
<path id="Vector_21" d="M62.6707 64.632L63.4033 64.7581L81.1889 70.6452L82.1658 71.133L82.7805 71.5619L83.3868 72.1085L83.8753 72.6552L84.4311 73.5719L84.7932 74.5475L85.0374 75.8342L86.1995 83.95V84.5303L84.6079 85.077L84.3637 85.0181L84.1195 85.077L84.3047 84.7742L84.1868 83.7398L83.69 80.7458L83.2016 77.9368L82.7805 75.9268L82.2921 74.7073L81.7363 73.7906L81.492 73.4794V73.3616H81.3742L81.0036 72.9328V72.815H80.8857V72.6888L80.6415 72.5711L79.9089 71.9572L79.0668 71.4693L78.1488 71.0405L76.9867 70.6115L74.7888 69.9471L73.3235 69.5182L71.3698 68.9631L69.7781 68.4753L68.4308 68.1137L66.9065 67.626L65.2223 67.0709L64.3802 66.6504L63.8328 66.0953L63.5296 65.4898L63.0412 65.0608L62.6707 64.7581V64.632Z" fill="#FFEFDD"/>
<path id="Vector_22" d="M35.167 71.6545L35.8996 71.7133L36.5144 71.8983L37.1291 72.3273L37.6176 72.8739L37.8618 73.4795L37.9207 73.6645V75.1279L37.6176 76.0445L37.1881 76.8856H37.0618L37.0028 77.1295H36.8849L36.7586 77.4322H36.6323L36.506 77.6761L36.0765 78.1639L35.3438 78.719L34.308 79.2656L33.3901 79.5096H32.228L31.4953 79.2656L30.8806 78.8367L30.5185 78.4078L30.2153 77.8023L30.089 77.3734V76.4567L30.3332 75.4222L30.8216 74.4466L31.2511 73.8327L31.7985 73.2187L32.4133 72.6721L32.9606 72.3104L33.5754 72.1254V71.9993L34.308 71.7554L35.167 71.6545Z" fill="#FDFDFC"/>
<path id="Vector_23" d="M42.9313 32.9005L43.1166 32.9594L43.1755 39.5529L43.2345 41.2349L43.3608 42.7067L43.664 44.3888L43.9671 45.4821L44.2787 46.3988L44.5229 47.0127L45.0114 48.1733L45.6851 49.3928L46.1735 50.1245L46.4177 50.4273V50.6123H46.5356L46.9061 51.1001L47.083 51.2851V51.4028H47.2093V51.529H47.3356V51.6467L47.6388 51.7729L48.3125 52.3868L48.4304 52.4457V52.5718L48.6746 52.698L49.3483 53.1269L49.4072 53.3035L49.1041 53.2446L48.0682 52.698L47.3356 52.2102L46.5356 51.5963L45.6935 50.8646L44.8514 50.0236L44.304 49.3508L43.6303 48.434L43.1419 47.593L42.4092 46.197L41.8534 44.7252L41.4913 43.2618L41.306 41.9835L41.2471 41.1845V35.6338L41.306 33.0098H42.2829L42.9313 32.9005Z" fill="#FFEFDD"/>
<path id="Vector_24" d="M52.6325 20.9917H52.8178L52.6915 21.3618L52.1441 22.0935L51.5883 22.7074L50.923 23.3718L50.0809 24.0446L49.163 24.6585L48.0682 25.2641L47.0829 25.7518L45.4998 26.3658L44.2113 26.7358L42.6871 27.0386L40.666 27.2825L38.9817 27.4003L38.3754 27.5853L37.8196 27.9553L37.5164 28.502L37.3985 28.7459L37.3312 28.1992V24.5997H37.3985L37.4575 26.6097L37.7017 26.063L38.1901 25.6341L38.7375 25.4491L41.3649 25.0875L43.8155 24.7174L45.2808 24.4146L46.965 23.9857L48.7335 23.3718L50.0219 22.8251L51.243 22.1523L52.0346 21.6057L52.3378 21.3029L52.6325 20.9917Z" fill="#30363D"/>
<path id="Vector_25" d="M56.9863 21.1179L57.2305 21.2356V21.3618L57.66 21.4795L58.3927 22.0935L59.2348 22.5812L60.0769 23.0102L60.919 23.3129L61.4664 23.5568L62.7548 23.9857L64.338 24.4146L66.7886 24.9024L68.5571 25.1463L69.5339 25.2641L71.1255 25.508L71.9676 25.8191L72.2792 26.063L72.3382 26.4919L72.3971 24.8099H72.4561V28.5272L72.3382 28.6534L72.094 28.0983L71.6055 27.6778L71.3024 27.4928L70.6876 27.3666L68.3634 27.19L66.3507 26.8788L65.0623 26.5761L63.2349 25.9621L61.7611 25.2977L60.3632 24.4987L59.5211 23.8932L58.8474 23.3381L58.0558 22.6065L57.5 22.0009L56.9526 21.202L56.9863 21.1179Z" fill="#30363D"/>
<path id="Vector_26" d="M63.3444 64.817L63.7739 64.8758L81.1889 70.6789L82.1658 71.1666L82.7805 71.5955L83.3868 72.1422L83.8753 72.6888L84.4311 73.6056L84.7932 74.5811L85.0374 75.8679L86.1995 83.9837V84.5303L84.6079 85.077L84.3637 85.0181L84.1195 85.077L84.3047 84.7742L84.4311 84.0425L84.7342 83.9837L85.0963 83.8575L85.1637 83.7398V82.4531L85.0963 81.9064L85.0374 81.7802L84.9785 80.8046L84.6079 78.3657L84.2458 76.4734L83.9342 75.1278L83.6311 74.2868L83.4458 74.2279L83.0247 73.614L82.9574 73.3701L82.5952 73.2439L82.2921 73.0673L82.2247 72.8234L81.7952 72.6973L81.6184 72.5123L81.6773 72.3945H81.8626L81.6184 71.9067L80.9447 71.4778L79.9678 71.0488L78.7468 70.62L77.9046 70.1995L76.8688 69.8294L74.5446 69.0389L71.6729 68.1221L70.4519 67.6932L69.4076 67.3905L68.4897 67.0793L67.2686 66.7177L66.2328 66.3476L65.0707 65.9271L64.2791 65.5571L63.6644 65.2543L63.3612 64.9431L63.3444 64.817Z" fill="#FEF5E0"/>
<path id="Vector_27" d="M53.8705 3.96958H55.8831L56.8684 4.14621L58.0221 4.57511L59.1253 5.18906L59.799 5.67684L60.5316 6.34967L61.079 6.9552L61.5085 7.56912L61.7527 7.93078V8.05693L61.2053 7.99805L60.658 7.75415L59.5548 7.14022L58.3927 6.59354L57.1126 6.16464L56.1358 5.97962L55.521 5.92074H54.1147L52.6494 6.16464L51.1841 6.65242L50.022 7.19908L49.1041 7.81303L48.4304 7.99805H48.0682L48.1861 7.75415L48.9188 6.7113L49.963 5.67684L50.9399 5.00404L51.8578 4.51624L52.9526 4.14621L53.8705 3.96958Z" fill="#30363D"/>
<path id="Vector_28" d="M66.3339 100.4L66.8307 100.644L67.1928 100.947L68.035 101.561L84.1869 112.284L85.029 112.831H85.1553L85.5763 112.158L86.0648 111.426L87.109 109.904L87.3532 109.778L87.4122 110.022L87.109 110.518L86.9827 110.762H86.8648L86.7385 111.006L86.6206 111.064L86.5616 111.426L86.4943 111.552H86.6206L86.8058 111.914H86.6795V112.284L86.3174 112.587H86.1911V112.713L85.4753 113.125L85.2311 113.369H84.6837L84.1953 113.184L83.5805 112.755L83.21 112.511L82.7216 112.267L81.8794 111.653L81.5089 111.409L81.2057 111.35L80.4731 110.804L79.4962 110.131L77.6436 108.92L77.0288 108.491L76.2372 108.003L75.6309 107.574L75.0751 107.271L75.2014 107.145H75.0161L74.8309 107.086L74.7719 106.901L74.0982 106.481L73.6688 106.17L73.6098 106.111L72.9361 105.741L72.8435 105.556L72.2287 105.127L71.9845 104.942L71.4961 104.639V104.513L71.1929 104.454L70.8224 104.151L70.6455 104.092L70.5192 103.966H70.3339L69.9718 103.596L69.6013 103.352H69.475L69.4076 103.235L68.9192 102.806H68.7339L68.675 102.562L68.3129 102.444L68.1865 102.318L67.6981 101.956L67.1507 101.527L66.477 100.854L66.3507 100.611L66.3339 100.4Z" fill="#FEF5E0"/>
<path id="Vector_29" d="M86.3847 95.3374H86.57L86.6879 95.4551H86.8142L86.9911 96.1279H87.1595L87.2184 96.2457L87.3448 97.1624L87.5216 97.8352L88.01 98.138V98.2642L88.4395 98.2053L88.5069 98.138H88.81L88.869 98.2053L89.3574 98.2642V98.4492L89.5427 98.9958L89.6016 99.2986H89.6859L89.8038 99.9714H89.6859L89.5595 100.098L89.5006 100.274L89.6185 100.644V100.829L89.6859 100.947L89.1974 101.132L88.7679 101.317L88.4648 101.435L88.3974 101.805L88.2795 102.108L88.3385 103.571L88.3974 104.412L88.4648 104.471L88.5827 105.808L88.6416 105.993V107.154L88.5237 107.339V107.154H88.3974V107.768L88.4648 107.885H88.5827V107.456L88.7679 107.7L88.8269 107.885V108.684L88.5827 108.743V109.416L88.4648 109.172L88.0353 106.649L87.4205 102.991L87.1763 101.645L86.2584 96.3046L86.1995 95.4636L86.3847 95.3374Z" fill="#FFF0DE"/>
<path id="Vector_30" d="M52.1021 68.6604L52.4052 68.7193L53.9968 69.6359L55.3947 70.477L55.4621 70.662L54.5442 72.1842L54.3 72.6132L53.8705 73.286L53.6852 73.6476L53.5673 73.8326L53.2558 73.7738L52.161 73.1598L50.4768 72.1254L50.2325 71.9992L50.2915 71.6964L50.7799 70.9059L51.5126 69.6864L52.1021 68.6604Z" fill="#040404"/>
<path id="Vector_31" d="M44.0346 98.5669L44.1525 98.6258L44.0935 98.9369L43.723 100.274L43.5461 100.644L43.302 101.073H43.1756L43.1167 101.25L42.2745 101.805L41.7861 101.99L41.1798 102.41L40.3798 103.024H40.2619V103.142L39.344 103.815L38.544 104.37L37.5671 105.034L36.1018 106.018L35.6134 106.38L35.4955 106.506H35.3692L35.1249 106.75L35.066 106.683L34.9397 106.868H34.7628L34.6365 107.112H34.5186L34.207 107.482L34.0218 107.414L33.9039 107.599V107.482H33.7775L33.7186 107.784L32.8007 108.398L32.3796 108.642L31.3943 109.248L30.5522 109.794L28.868 110.896H28.7417V111.022L27.8237 111.569L26.9143 112.175L26.2406 112.671L25.8111 112.915L25.6258 112.847L25.0784 113.091H24.9521V113.217H24.8426V113.125H24.3542L23.8658 113.007L23.251 112.334L23.0658 112.393L22.8889 112.275L22.9479 111.964L23.1331 111.72V111.603L23.6805 111.544L23.9837 111.847L24.4721 112.578L24.6574 112.881L24.9605 112.763L27.3437 111.174L29.9712 109.408L32.6659 107.633L35.2934 105.867L37.9797 104.092L40.6072 102.326L42.0135 101.41L42.5609 100.981L42.8725 100.619L43.4788 99.2734L43.5461 99.0883L43.9672 98.9033L44.0346 98.5669Z" fill="#FEF4DE"/>
<path id="Vector_32" d="M86.688 88.4327H86.8143L86.8732 88.7439L87.0585 90.0811L86.5701 90.325L85.1637 90.8801L84.4311 91.124L83.8753 91.3679L83.0332 91.6706L82.3005 91.9734L81.5594 92.2173L80.8942 92.5285L80.4057 92.7051H80.0941L79.791 91.1828L79.6647 90.8128L79.8499 90.6951L80.6921 90.4511L81.1805 90.2661L82.2837 89.9045L82.89 89.6606L83.6816 89.4167L85.3658 88.8617L86.528 88.5L86.688 88.4327Z" fill="#F58E82"/>
<path id="Vector_33" d="M42.0724 17.0305H42.8051L43.3019 17.2744L43.723 17.7622L43.7904 17.9472V18.7883L43.5461 19.4022L43.1756 19.9489L42.6872 20.4367L41.8451 20.8656L41.6682 20.9244H40.8261L40.2198 20.6217L39.9082 20.1339L39.8492 19.9489V19.1583L40.0935 18.5444L40.5819 17.8716L41.0703 17.4427L41.803 17.081L42.0724 17.0305Z" fill="#FDFBF8"/>
<path id="Vector_34" d="M49.0452 57.5506L49.5926 57.6768L51.1168 58.1057L52.4052 58.3496L53.4747 58.4589L54.3926 58.5262H55.4285L56.9611 58.4L58.4264 58.1562L59.6475 57.8534L60.5654 57.5422H60.8096V61.7473L60.8686 62.849L61.1128 63.5218L61.4833 63.9423L62.3254 64.3713L63.0665 64.6152V64.674H62.7381L63.0496 64.9852L63.2265 65.4141L63.1086 65.5318L63.0496 65.288L62.6791 65.1702L61.458 64.4974L60.9696 64.0685L60.5991 63.5807L60.2959 62.9667L60.1106 61.5034V59.4261L60.1696 59.0644V58.4589L59.9927 58.2739H59.5043L58.5275 58.5262L57.0537 58.829L56.4474 58.9467L55.4032 59.0728H54.1232L52.7168 58.8878L50.881 58.5262L50.5778 58.4L50.0305 58.215L49.6599 58.2739L49.542 58.5262V61.1502L49.4157 61.0829L49.3567 60.5951L49.2978 60.3512V59.2999L49.2304 59.1738V59.7877L49.1715 60.1494H49.1126L49.0452 57.5506Z" fill="#FEE7BF"/>
<path id="Vector_35" d="M37.0029 35.1544L37.306 35.2133L37.3734 41.748L37.1292 41.6218L36.4555 41.0163L35.8997 40.2173L35.5965 39.6118L35.4112 38.939L35.3523 38.4512V36.3739L35.5376 35.945L35.9671 35.5245L36.3881 35.2806L37.0029 35.1544Z" fill="#FDE0C2"/>
<path id="Vector_36" d="M72.5739 35.1544L73.1213 35.2133L73.7361 35.4572L74.2834 35.945L74.4014 36.13L74.4687 36.4328V38.0223L74.3424 39.124L73.9803 40.0996L73.5508 40.7724L72.995 41.3779L72.5739 41.6891L72.3887 41.6218L72.4476 40.949L72.5066 35.2133L72.5739 35.1544Z" fill="#FEE5BC"/>
<path id="Vector_37" d="M58.1484 76.8435L58.6958 76.9613L62.9738 79.4843L64.658 80.4599L66.1233 81.3009L67.0412 81.856L68.0855 82.4615L68.8181 82.8315V82.9493L69.1213 83.0166V83.1343L69.4244 83.2605L70.0981 83.6221L70.4687 83.8071V83.9249L70.7718 84.051L71.1424 84.2361L71.8076 84.6649L72.5403 85.0266V85.1528L72.8519 85.2705L73.0961 85.5144L73.7698 86.8012L73.7024 87.2217L73.5256 87.045V86.86L73.155 86.675L72.7255 86.0022L72.2371 85.5733L67.9592 83.0502L66.6118 82.2092L65.0286 81.2336L64.2959 80.7458L63.6812 80.3169L63.0075 79.888L61.8454 79.4002H61.4243L61.3569 79.5852L61.6685 79.6441V79.8291L61.9127 79.9553L62.2748 80.4431L62.6454 80.7458V81.1159L62.4012 80.9897L61.9127 80.3842L61.298 79.7703L60.3801 79.0974L59.3443 78.6097L59.159 78.4919L59.7064 78.3658L59.6474 78.063H59.5295L59.3443 77.878L58.7295 77.3902V77.264L58.4264 77.1463L58.1484 76.8435Z" fill="#F9BA44"/>
<path id="Vector_38" d="M57.8453 82.2765L58.2074 82.3354L58.7632 82.7643L59.0664 83.067L59.4285 83.496L59.858 84.2276L60.7001 86.4227L61.4328 88.1047L62.4854 90.4175L63.5886 92.9405L64.8097 95.7496L65.7865 98.0119V98.2558H65.4834L65.2981 97.768L64.936 97.154L64.6918 96.6074L64.5655 96.3635V96.1784H64.4223L63.8749 95.0767L63.2012 93.6806L62.5949 92.335L62.0391 91.1156L61.2475 89.2822L60.4054 87.2048L60.338 87.0282L60.2201 86.9021L60.1527 86.717L59.9759 86.5404L59.9085 86.1115L59.7317 85.9265L59.6643 85.6237H59.5464L59.1169 84.337L58.6875 83.6641L58.6285 83.4876H58.5275L58.098 82.8736L57.8538 82.5119L57.8453 82.2765Z" fill="#FEF4DD"/>
<path id="Vector_39" d="M56.8431 82.1503H56.9021L56.961 88.4999L57.02 98.0202L57.0874 99.1136L57.5084 100.341L57.9968 101.435L58.4263 102.108L58.7379 102.478V102.595H58.8558L58.9821 102.898H59.1L59.2853 103.142V103.268H59.4032L59.7737 103.697L60.6916 104.37V104.488L60.9948 104.546L61.9127 104.917L63.4369 105.219L64.1696 105.278V105.404H66.0054L66.4349 105.522V105.892L66.3086 106.018L66.1317 105.951L66.0644 106.077L65.517 105.707L64.9107 105.522L61.7864 105.463L60.6916 105.219L59.7148 104.732L59.159 104.303L58.3674 103.512L57.7526 102.595L57.3316 101.679L57.1463 101.25L56.961 100.585L56.8431 99.4247V82.1503Z" fill="#FED29A"/>
<path id="Vector_40" d="M52.8936 82.1503H52.9526V98.8696L52.8936 100.03L52.6494 101.132L52.2789 102.108L51.7904 103.033L51.302 103.638L50.4599 104.479L49.6178 104.967L48.8851 105.27L47.9672 105.455H45.0535V105.396L46.2746 105.337L47.1925 105.211L48.1104 104.908L48.6577 104.664L49.2051 104.361L49.8788 103.806L50.5525 103.134L51.0999 102.469L51.5883 101.738L51.9589 101.065L52.3883 100.451L52.8094 99.1724L52.8768 98.6174V85.5648L52.8936 82.1503Z" fill="#FFD7A3"/>
<path id="Vector_41" d="M33.6427 97.6501L33.9459 97.7174L34.9901 98.2052L36.388 98.8696L37.0617 99.2397L37.6175 99.5424L37.5501 99.7275L37.247 99.9125L35.5627 101.073L35.1922 101.317H35.0154L34.5269 100.4L34.2153 99.5593L33.9711 98.9538L33.7269 97.9109L33.6427 97.6501Z" fill="#F58D81"/>
<path id="Vector_42" d="M52.6326 82.0073H52.8768V85.548L52.8179 98.1211L52.5737 98.1884L52.5063 97.8184L52.3884 95.1944L52.3295 92.0827V87.7515L52.3884 84.3874V82.184L52.6326 82.0073Z" fill="#FEEAC3"/>
<path id="Vector_43" d="M37.188 119.382H37.3059V122.923L37.247 123.04H34.5606L33.6427 122.982L33.8869 122.738L34.6785 122.124L35.8996 120.904L36.4554 120.231L37.0028 119.626L37.188 119.382Z" fill="#EA7424"/>
<path id="Vector_44" d="M50.1063 78.4246H50.5947L50.4178 78.6097L49.4326 79.0974L48.8852 79.4675L48.0936 80.1403L47.3609 80.9813L46.6873 82.0831L46.1399 83.2436L45.8283 84.1519L45.4662 84.9929L45.2809 85.4219L45.0367 85.9685L44.7335 86.7002L44.2451 87.8608L43.8156 88.7775L43.5714 89.3831L43.2682 89.997L43.024 90.6025L41.9798 92.9237L41.6766 93.7227L41.4324 94.2105L40.7587 95.7327L40.4555 96.5233L40.144 96.5906L39.8408 96.4055L39.7819 96.1616L40.085 96.0355L40.6324 95.0599L40.944 94.5132L41.2471 93.7227L41.8619 92.5621L42.224 91.5192L42.5272 90.9137L42.8388 90.182L43.024 89.6942L43.4451 88.8532L43.6303 88.4243L43.7567 87.9954L44.2114 87.0534L44.523 86.3806L44.7672 85.7667L45.2556 84.7911L45.5588 83.8744L45.803 83.3278L46.1735 82.411L46.5946 81.57L47.2094 80.6617L47.4536 80.3506L47.942 79.9217L48.1862 79.6188L49.1631 78.8872L49.8957 78.5255L50.1063 78.4246Z" fill="#FBB940"/>
<path id="Vector_45" d="M61.6349 109.374L63.8328 109.433L64.136 109.736L64.3802 110.038L64.6918 110.35L65.1129 110.837L65.357 111.14L65.6687 111.443V111.569H65.7865L66.0897 111.998L66.4013 112.301L66.8308 112.788L67.075 113.091L67.3782 113.402L67.8076 113.949L68.1108 114.252L68.9529 115.227V115.354H69.0708V115.471H69.1971V115.597H69.315V115.715H69.475L69.4077 116.085L68.675 118.768L68.5571 121.03L68.4897 121.089H66.4181V121.03L67.7571 120.963V120.787L68.0687 120.543L68.2455 119.811V118.97L68.4308 117.877L68.675 117.036L68.9192 116.422V116.001L68.8013 115.69L68.4897 115.328L67.5129 114.353L67.1508 113.798L66.7802 113.31L66.2918 112.889L65.7444 112.275L65.256 111.544V111.443H65.1297V111.325H65.0118V111.199L64.8265 111.14L64.5234 110.778V110.652H64.4223L64.0602 110.165L63.5718 109.862L63.1423 109.677L61.9802 109.551L61.677 109.492L61.6349 109.374Z" fill="#F9BA42"/>
<path id="Vector_46" d="M41.4661 42.4797L41.7103 42.5974L42.0134 43.8842L42.1987 44.557L42.4429 45.2886V45.5325H42.5271L42.7124 46.1381L42.8977 46.567V46.6847H43.024L43.1419 47.0464L43.445 47.1725L43.6893 47.6603L43.8745 47.778L44.1188 48.207L44.304 48.392V48.5097H44.4219L44.6661 48.9386L45.0367 49.4264L45.3398 49.7292L45.4661 49.9815L45.6514 50.0404L46.0725 50.5282L46.1988 50.7721L46.443 50.8898L46.9314 51.3187L47.6641 51.9915L48.1525 52.3616L48.3378 52.5382L48.4557 52.6055V52.7232L48.8851 52.7821L49.3736 53.1521V53.2699L49.0704 53.211L48.0346 52.6643L47.302 52.1766L46.502 51.5626L45.6598 50.8309L44.8177 49.9899L44.2703 49.3171L43.5966 48.4004L43.1082 47.5594L42.3756 46.1633L41.8198 44.6915L41.4576 43.2282L41.4661 42.4797Z" fill="#FEF3DB"/>
<path id="Vector_47" d="M37.0029 35.1544L37.306 35.2133L37.3734 41.748L37.1292 41.6218L36.4555 41.0163L35.8997 40.2173L35.5965 39.6118V39.1829L35.7228 39.124L35.7818 38.6362H35.8407L35.9671 39.4268L36.2113 39.9734L36.4555 40.2846H36.7586L36.8176 39.8557V36.4916L36.6997 35.8188H36.2702L35.9671 36.0627L35.7902 36.5925V38.4848L35.6639 38.3671L35.6049 37.0215V36.4748L35.4197 36.2309L35.546 35.9197L35.9755 35.4992L36.3965 35.2553L37.0029 35.1544Z" fill="#FEE5BA"/>
<path id="Vector_48" d="M61.8958 74.2195L62.258 74.2784L62.8138 74.5811L63.4201 74.9512L64.2622 75.3717L64.6243 75.6829L65.4243 76.0445L65.9128 76.4145L67.0075 76.9612V77.0874L67.3191 77.2051L67.6223 77.3901L67.9254 77.449L68.1107 77.634L68.6581 78.0041L69.1465 78.1807L69.9465 78.6685L70.7886 79.0974L71.7655 79.7113L72.6076 80.1991L73.3992 80.6869L75.0835 81.6625L75.6982 82.0241L75.8835 82.2091L75.9424 82.5203L75.7572 82.4531H75.5803L74.6624 81.9064L71.5465 80.073L67.0833 77.449L65.618 76.608L64.5738 75.994L61.8285 74.312L61.8958 74.2195Z" fill="#FEE3B7"/>
<path id="Vector_49" d="M41.2808 33.0182L41.3397 33.1444H41.685L41.8618 33.321L41.7439 34.4227L41.8029 37.1729V39.0567L41.7439 40.0996V42.0507L41.685 42.2358L41.4408 42.2946V41.9919H41.3144L41.2555 41.1929V35.6422L41.2808 33.0182Z" fill="#FEF3D9"/>
<path id="Vector_50" d="M50.9484 82.9408L51.0073 83.1847L50.7042 83.7987L50.3926 84.8331L50.0305 86.3637L49.6599 87.5243L49.4747 88.071L48.742 89.4755L48.4978 90.081L48.0094 90.88L47.8915 90.8127V90.3249L48.0094 90.2661L48.1947 89.6605L48.4389 89.1055L48.5652 89.0466L48.4389 88.8027L48.6241 88.4999L48.6831 88.0121H48.8094V87.8944H48.9273L48.8683 87.6505L48.9273 87.4066H49.0536L49.1715 86.86L49.2304 86.5572L49.3568 86.1283L49.4157 85.6405L49.9042 84.421L50.3926 83.5043L50.7631 83.0754L50.9484 82.9408Z" fill="#FEF6E0"/>
<path id="Vector_51" d="M79.9089 104.185L80.1531 104.303L81.13 105.034L82.8142 106.136L86.4775 108.575L87.1511 109.13L87.3954 109.492L87.6396 109.618V109.761L87.1511 109.702L84.5237 107.927L81.9974 106.287L80.1026 105.001L80.0352 104.698L79.791 104.572V104.269L79.9089 104.185Z" fill="#FEE7BF"/>
<path id="Vector_52" d="M73.1803 35.8861L73.5509 35.9449L73.6098 36.13H73.7362L73.913 36.5L73.9804 36.9878V38.2745L73.8541 39.0651L73.6688 39.8052L73.3656 40.2257L73.0625 40.3519L72.9361 40.293L72.8772 39.7379L72.9361 36.1972L73.0625 35.9533L73.1803 35.8861Z" fill="#FDE0C2"/>
<path id="Vector_53" d="M54.8473 105.278L55.0916 105.404L55.4621 105.951L56.0095 106.565L56.3126 106.927L56.9863 107.482L57.66 107.969L58.8811 108.642V108.819L58.3337 108.945L57.8453 108.819L57.5337 108.76L57.1126 108.516L56.4389 107.969L56.1358 107.658L55.521 107.112L55.0916 106.809L54.7884 106.506L54.3589 106.136L54.4178 105.892L54.6621 105.463H54.7884L54.8473 105.278Z" fill="#FCBB43"/>
<path id="Vector_54" d="M26.7374 95.0263L27.2847 95.0851L29.4237 95.8252L29.55 96.0019L29.7269 97.6839L30.0974 99.4584L30.4679 100.619V100.796L30.0974 100.678L29.9121 100.375L29.9711 99.9462H29.8953L29.6511 99.2734L29.4658 98.5417L29.3479 98.2978L29.0532 97.1456L28.809 96.3551L28.3205 95.9262L27.5205 95.7412L26.9142 95.4383L26.4847 95.3206L26.3584 95.1356L26.7374 95.0263Z" fill="#FEE7BE"/>
<path id="Vector_55" d="M29.6679 104.429L29.9121 104.488L30.0974 104.547L30.0384 104.732L27.3436 106.506L24.7162 108.272L23.032 109.374L22.7288 109.551L22.4257 109.492L22.4846 109.248L22.973 108.886L23.5878 108.516L24.1941 108.087L24.8678 107.658L25.6004 107.17L25.912 106.927L26.3331 106.683L27.0068 106.262L27.5542 105.892L28.1689 105.463L29.2721 104.732L29.6679 104.429Z" fill="#FEE7BF"/>
<path id="Vector_56" d="M86.6879 88.4327H86.8142L86.8732 88.7439L87.0585 90.0811L86.57 90.325L85.4668 90.7539L85.2227 90.6951L85.4079 90.51L85.2227 90.0811L85.1637 89.7783V88.9373L86.5027 88.5084L86.6879 88.4327Z" fill="#FFD8A9"/>
<path id="Vector_57" d="M84.2458 84.5303H84.3637V84.9004L84.2458 85.0182L84.431 84.9593L84.3637 85.1443L82.2247 85.876L79.5973 86.717L78.3762 87.1459L78.132 87.0281L77.5172 85.8003V85.6237L77.8288 85.6825V85.8676L78.073 85.9853L78.3172 86.3553L78.5025 86.8431L78.8057 86.717V86.5993L79.2351 86.5404L79.9678 86.1703L81.1299 85.7414L82.8142 85.1359L83.2437 84.9509L84.1616 84.5808L84.2458 84.5303Z" fill="#FEE7BF"/>
<path id="Vector_58" d="M79.2351 100.888L79.2941 101.132L79.353 101.561L79.412 102.595L79.7236 104.185L79.7825 104.546L80.0857 104.673L80.153 104.917L79.8415 104.79L78.9235 104.185L78.0814 103.571L78.1404 103.268L78.7551 102.108L79.2351 100.888Z" fill="#FDD7A8"/>
<path id="Vector_59" d="M30.5269 101.351L30.7711 101.41L31.3774 102.696L31.7479 103.361V103.546L30.6448 104.277L30.2237 104.589L29.9711 104.462L30.2237 103.428L30.3416 102.999L30.4006 102.326V101.536L30.5269 101.351Z" fill="#FFD8A8"/>
<path id="Vector_60" d="M61.0538 52.7316L61.2981 52.7905V52.9166L60.3802 53.4044L59.1591 53.8922L57.6938 54.3212L56.0095 54.6239H54.6621V54.5062L54.4853 54.565L53.3821 54.5062L53.1969 54.4389V54.3212L52.9526 54.2623H53.4747L53.7779 54.38H54.8811L55.8579 54.195L56.4727 54.0772L57.4496 53.8922L58.8559 53.5222L59.5886 53.2783L60.018 53.1017L60.6244 52.8578L61.0538 52.7316Z" fill="#FEE8BF"/>
<path id="Vector_61" d="M44.7672 13.1787H45.0535L45.2387 13.5488V14.0954L44.8682 14.6505L44.3798 15.0121L44.1945 15.071H43.7061L43.4029 14.8944L43.2177 14.3393V14.1627L43.6471 13.7927L44.7672 13.1787Z" fill="#FDF8F1"/>
<path id="Vector_62" d="M34.948 115.471L35.1333 115.539L34.948 115.782H35.1333L35.0154 116.085L34.2743 116.876L33.7269 117.549L32.9943 118.339L32.5648 118.827L32.0764 119.323L31.3437 119.87L30.3669 120.416L29.9374 120.475L30.1816 120.114L30.8553 119.685L32.0764 118.768L32.7501 117.978L33.1795 117.549L33.609 117.061L34.2154 116.388L34.6448 115.841L34.948 115.471Z" fill="#FEE7BF"/>
<path id="Vector_63" d="M43.5461 106.018H43.664L43.605 106.262L42.805 107.103L42.2576 107.776L41.525 108.567L40.9776 109.239L40.1776 110.08L39.6302 110.753L39.0239 111.418L38.9565 111.544L38.4091 111.729L38.2828 111.603L38.5944 111.418L38.7123 111.485L38.6534 111.241L39.1418 110.753L39.6892 110.013L40.0008 109.651H40.1187L40.245 109.408L40.5481 109.105H40.666L40.7924 108.861L41.2808 108.188H41.4071L41.525 107.944L42.0724 107.389L42.4429 107.213L42.6282 106.901L42.8724 106.481L43.3019 106.052L43.5461 106.018Z" fill="#FEE6BD"/>
<path id="Vector_64" d="M42.3839 67.3821L42.9313 67.6849L43.546 68.0549L44.0934 68.3577L44.4556 68.5427V68.6605L44.7671 68.7866L45.744 69.3333L46.4177 69.7622V69.88H46.5356V70.0061L46.3503 70.1238H45.8956L44.3713 69.1483L42.8387 68.2316L42.4766 68.0549L41.9292 67.9877L41.8618 67.8699L42.1734 67.7437H42.4766L42.3839 67.3821Z" fill="#FABB44"/>
<path id="Vector_65" d="M88.5237 117.002L88.6416 117.12L88.7089 117.734L88.7679 117.919L88.3384 118.465L87.791 119.079L87.2352 119.567L86.1994 120.231L85.0373 120.719H84.7341V120.602L85.0373 120.358L85.3405 120.231L85.5257 120.055L86.0731 119.744L86.8142 119.197L87.4205 118.709L87.7237 118.28H87.85L87.9679 118.036L88.3384 117.607L88.4647 117.364L88.5237 117.002Z" fill="#FEE8C1"/>
<path id="Vector_66" d="M85.8291 94.7234L85.9554 94.7823V94.9673L86.1407 95.0851V95.3962L85.8291 95.3374L84.5491 95.7579L84.0606 95.9429L83.1427 96.2457L82.1069 96.6157L81.9806 96.6746H81.3069V96.5568L81.4922 96.3718L84.5491 95.2112L85.8291 94.7234Z" fill="#FEE6BE"/>
<path id="Vector_67" d="M49.2641 85.9937L49.382 86.1788H49.2641V86.2965L49.382 86.3638H49.2641V86.7927L49.0199 87.3982H48.8935V87.8944H48.7757V88.0206H48.6493V88.5084L48.4641 88.87V89.1139L48.043 90.1568V90.3334H47.8577L47.7988 90.2157H47.6725L47.5546 90.6446L47.3693 90.7623V91.0735L47.184 91.2501H47.0577L46.9988 91.4351L46.9398 91.3174L47.8577 89.1812L48.6493 87.4066L49.2641 85.9937Z" fill="#FDEBD3"/>
<path id="Vector_68" d="M46.2325 92.9406L46.3504 93.1256L46.2915 93.4368L46.1736 93.5545V93.9834L45.9294 94.345L45.7441 94.959L45.6851 95.2029L45.3736 95.2618V95.3879L45.4999 95.4468L45.4409 95.6907L45.2557 95.7496L45.1967 96.1784L44.9441 96.4812L44.8851 96.7924L44.6999 97.2129V97.3979L44.3967 97.4652V97.9866H44.2788L44.2114 98.2305L44.2788 98.3483L44.0346 98.7183L43.9672 98.9622L43.6051 99.0799L43.7904 98.5333L44.9441 95.9094L45.9883 93.5293L46.2325 92.9406Z" fill="#FDE5C8"/>
<path id="Vector_69" d="M54.8474 18.0902L55.0326 18.2752L55.3358 19.0069L55.639 19.5536L56.0095 19.8647L55.8832 19.9236L55.4621 19.7386H54.241L53.9968 19.7975L54.0558 19.4358L54.241 19.3686L54.3589 19.0658L54.8474 18.0902Z" fill="#30363D"/>
<path id="Vector_70" d="M50.022 72.0834H50.4515L53.1968 73.7654V73.8831L53.0115 74.0093H52.6326L51.6557 73.3953L51.0999 73.0253L50.3672 72.6048V72.4786L50.123 72.3609L50.022 72.0834Z" fill="#FDBB44"/>
<path id="Vector_71" d="M76.212 117.49L76.7594 117.851L77.3742 118.465L77.7447 118.894L77.8626 118.953V119.079H77.9889V119.197L78.2921 119.323L78.6542 119.567V119.685L78.9658 119.811L79.6984 120.231L80.3047 120.543L80.6753 120.602L80.8605 120.845L80.4311 120.787L79.4542 120.416L78.4773 119.87L77.6352 119.197L76.8436 118.406L76.2878 117.734L76.212 117.49Z" fill="#FEE3B7"/>
<path id="Vector_72" d="M47.824 90.081H47.883V90.4175L47.5798 91.0903H47.4535L47.3946 91.5192L46.7798 92.9825L46.4766 93.4115L46.2914 93.3442V92.7975L46.9061 91.393L47.3356 91.0314V90.6613L47.5798 90.5352L47.6388 90.2913L47.6977 90.1736H47.824V90.081Z" fill="#FEF3DD"/>
<path id="Vector_73" d="M76.052 97.2213H76.212V97.6502L75.9089 98.8697L75.4204 100.156L74.991 101.073L74.8646 101.317L74.5615 101.25L74.4352 100.947L74.991 100.274L75.4204 99.4331L75.8415 98.0875H75.9678L75.9089 97.7259L76.052 97.2213Z" fill="#FBB843"/>
<path id="Vector_74" d="M47.942 51.9411H48.1273V52.0588L48.3715 52.1849L48.6746 52.4289L49.3484 52.8578L49.5926 52.9755V53.1017L49.8957 53.2194L50.6284 53.4633L51.1168 53.7072L51.6726 53.9511L51.6052 54.1361L50.9989 54.01L49.4662 53.4044L49.3484 53.2783V53.1605L48.9189 52.8578L48.6157 52.6727L48.422 52.5718V52.4541L48.1778 52.3279L47.9336 52.084L47.942 51.9411Z" fill="#FEE7C0"/>
<path id="Vector_75" d="M21.053 102.536H21.112L21.053 103.327L20.3204 108.331L20.1941 109.004L20.0762 109.307H20.0172L20.0762 108.575L20.9183 102.688L21.053 102.536Z" fill="#FDD39B"/>
<path id="Vector_76" d="M72.574 35.1544L73.1213 35.2133L73.0624 35.5245L72.8772 35.8861L72.8182 36.4328L72.6919 39.6118L72.6329 40.2173H72.574V35.1544Z" fill="#FFF3E0"/>
<path id="Vector_77" d="M46.2325 93.4451L46.4177 93.504L46.2914 94.0507L45.9882 94.7824L45.803 95.0851L45.6177 95.6402L45.1967 96.6746L44.8261 97.2886L44.5819 97.3475L44.6998 97.1625L44.944 96.4308L45.1293 96.128L45.1967 95.8841L45.4409 95.6402L45.3735 95.3963V95.2702H45.4998L45.5588 95.1524L45.6851 94.9674L45.9293 94.2357L46.1061 93.9329V93.5629L46.2325 93.4451Z" fill="#FFF7E4"/>
<path id="Vector_78" d="M56.9274 82.0914L57.3568 82.1503V82.2765L57.0453 82.5203L57.1716 82.882L57.2305 84.8331L57.1716 85.7499L56.9863 85.9937L56.9274 85.1527V82.0914Z" fill="#FEEAC5"/>
<path id="Vector_79" d="M38.2238 111.754L38.527 111.872L38.4091 112.175L37.6764 113.016L37.1291 113.688L36.8848 113.806V113.621L36.6406 113.688V113.562L36.8175 113.377H36.9438L37.0617 113.133L37.3733 112.831L37.9796 112.04L38.2238 111.754Z" fill="#FEE7BF"/>
<path id="Vector_80" d="M36.6323 113.705L36.6912 113.823H36.8091L36.6912 114.134L35.9586 114.925L35.4028 115.597H35.2259L35.3438 115.412H35.0406L35.4028 114.984L35.9586 114.378L36.3796 113.823L36.6323 113.705Z" fill="#FEE7BF"/>
<path id="Vector_81" d="M22.3162 94.0507H22.9309L23.6636 94.1768V94.2946L24.093 94.3534L23.9667 94.4796H23.7225V94.7235L23.4193 94.7824L23.1751 94.4796H22.8046L22.6193 94.6646H22.5014V94.8412L22.3751 94.7824L22.3162 94.7235V94.0507Z" fill="#FEF3DD"/>
<path id="Vector_82" d="M79.6563 100.4L79.7826 100.459V101.073L79.7237 101.435L79.7826 101.746L79.6563 102.234L79.4795 102.41L79.4121 102.049H79.2942V101.494L79.2352 101.132L79.3531 100.703L79.6563 100.4Z" fill="#FEEAC3"/>
<path id="Vector_83" d="M41.2218 31.1848H41.7692L41.466 31.6726V32.2866L41.525 32.7155V32.9594L42.0724 33.0182V33.0771H41.3397L41.2808 35.6422H41.2218V31.1848Z" fill="#FDD8A5"/>
<path id="Vector_84" d="M37.1881 40.2173H37.247L37.3059 40.5285L37.3733 41.748L37.1291 41.6218L36.4554 41.0163L36.2701 40.7724L36.3291 40.5285L36.5144 40.6462V40.7976L37.0028 40.7303L37.1291 40.5537L37.1881 40.2173Z" fill="#FEECCB"/>
<path id="Vector_85" d="M73.1804 35.3394L73.6099 35.3983L74.0983 35.7683L74.4015 36.13L74.4689 36.4328V38.0223H74.4015L74.3426 37.1056L74.2247 37.0467L73.9804 36.2057L73.9131 35.9618H73.7952L73.492 35.659L73.2478 35.5413L73.1804 35.3394Z" fill="#FDE2BD"/>
<path id="Vector_86" d="M21.6678 117.919L21.971 118.221L22.0889 118.524L22.3331 118.65L22.7626 119.138L22.8889 119.441L23.3099 119.744L23.251 119.87L22.9478 119.811L22.7626 119.685L22.5773 119.382L22.5184 119.197H22.4005V119.079L22.1562 118.953V118.827L21.912 118.709V118.583H21.7857V118.465H21.6678L21.4152 118.163V117.978L21.6678 117.919Z" fill="#FEE9C2"/>
<path id="Vector_87" d="M77.5172 85.6321L77.8288 85.6909V85.8759L78.073 85.9937L78.3172 86.3638L78.5615 86.9104L78.7467 87.0366L78.2583 87.1543L77.9467 86.6665L77.5172 85.8255V85.6321Z" fill="#FEE5BB"/>
<path id="Vector_88" d="M36.7586 77.264V77.4491H36.6322L36.5059 77.6929L36.0764 78.1808L35.3438 78.7358L34.308 79.2825L33.3901 79.5264H32.228L31.7985 79.4002L32.0427 79.3414L32.2869 79.4002H33.2048L34.2406 79.0974L35.2848 78.5508L36.2617 77.8191L36.5649 77.3902L36.7586 77.264Z" fill="#FDDFB4"/>
<path id="Vector_89" d="M49.4072 61.7641L49.5335 61.8903V62.4369L49.4072 63.2779L49.222 63.6396L49.163 63.3957L49.2893 63.0929L49.222 62.9079L49.1041 62.849V63.3957L48.8598 63.6396L48.6746 63.6985L48.8598 63.1518L49.1041 62.2351L49.3483 62.1762L49.4072 61.7641Z" fill="#FEE9C1"/>
<path id="Vector_90" d="M46.2324 92.9406L46.3504 93.1256L46.2914 93.4368L46.1735 93.5545V93.9834L45.9293 94.345L45.744 94.959L45.6851 95.2029L45.3735 95.3291L45.1967 95.4468L45.3735 94.9001L46.2324 92.9406Z" fill="#FDE4C6"/>
<path id="Vector_91" d="M48.801 67.3821L48.9189 67.441L48.6747 67.7437L48.5568 68.4166L48.4305 68.6605L48.1273 68.6016L47.8831 68.4166L47.942 68.1727L48.2452 67.626L48.6157 67.4999L48.801 67.3821Z" fill="#FEE7C0"/>
<path id="Vector_92" d="M88.5828 109.374H88.6417L88.768 109.862L88.827 109.618L88.9533 109.374L89.0712 109.677L88.8859 110.223H88.768L88.8859 110.652L88.9533 111.199L89.0712 111.384L89.2565 112.788V113.125L89.1301 113.192L88.768 110.989L88.5828 109.828V109.374Z" fill="#FFF0DE"/>
<path id="Vector_93" d="M87.2353 109.761H87.3616L87.4205 110.005L87.1174 110.501L86.9911 110.745H86.8732L86.7469 110.989L86.629 111.048L86.57 111.409L86.4437 111.535L86.3258 111.291L86.1995 111.233L87.1174 109.887L87.2353 109.761Z" fill="#FDEAD3"/>
<path id="Vector_94" d="M37.0029 35.1544H37.2471V37.4756H37.1882L37.1292 36.6346V35.9029H37.0029L36.6997 35.4151L36.3881 35.5413L36.1439 35.474L36.3881 35.2974L37.0029 35.1544Z" fill="#FEEED9"/>
<path id="Vector_95" d="M57.2305 73.9083L57.719 74.1522L57.7779 74.3373L57.2895 75.1278L56.9863 75.3128H56.8431L56.9105 75.0689L57.0874 74.7662L57.3316 74.2784L57.2305 73.9083Z" fill="#FEBE48"/>
<path id="Vector_96" d="M65.4245 105.404H66.0308L66.4603 105.522V105.892L66.334 106.018L66.1571 105.951L66.0898 106.077L65.5424 105.707L64.936 105.522V105.463L65.4245 105.404Z" fill="#FDD5A3"/>
<path id="Vector_97" d="M50.6283 70.065H50.7546V70.2332L51.0578 70.2921V70.5359L50.6957 71.1415L50.3841 71.3265H50.2073L50.3252 70.8387H50.4515L50.5694 70.5359L50.6283 70.065Z" fill="#FEC047"/>
<path id="Vector_98" d="M47.6388 89.7194L47.8241 89.7783V89.9633L48.0683 89.9044L48.1272 89.7783L48.0683 90.3249H47.883L47.8241 90.2072H47.6978L47.5798 90.6361L47.3946 90.7539V91.065L47.2093 91.2416H47.083L47.024 91.4267L46.9651 91.3089L47.6388 89.7194Z" fill="#FDE9CF"/>
<path id="Vector_99" d="M43.5461 106.018H43.664L43.605 106.262L42.805 107.103L42.5608 107.347V107.103L42.805 106.557L43.3019 106.069L43.5461 106.018Z" fill="#FEE3B7"/>
<path id="Vector_100" d="M72.6919 36.4327H72.7508V38.1148L72.6919 39.6454L72.6329 40.251H72.574V37.7279L72.6329 36.5084L72.6919 36.4327Z" fill="#FFF0DE"/>
<path id="Vector_101" d="M20.0762 109.374H20.1352L20.0762 110.038L19.891 111.384L19.7731 112.545H19.7057V111.325L19.9499 109.433L20.0762 109.374Z" fill="#FECF8E"/>
<path id="Vector_102" d="M44.2788 97.4063L44.3967 97.5914L44.4557 97.8941L44.2788 97.9614L44.2114 98.2053L44.2788 98.323L44.0346 98.6931L43.9672 98.937L43.6051 99.0547L43.7904 98.508L44.2788 97.4063Z" fill="#FDE4C6"/>
<path id="Vector_103" d="M55.2179 71.4694L55.3358 71.5956L55.1505 71.8394L55.0326 72.1423L54.9737 72.5039L54.4178 72.445L54.6031 71.9572L54.8473 71.5956L55.2179 71.4694Z" fill="#FCE2BC"/>
<path id="Vector_104" d="M49.264 85.9937L49.382 86.1788H49.264V86.2965L49.382 86.3638H49.264V86.7927L49.0198 87.3982H48.8935L48.8346 87.5244H48.6493L48.8346 86.9693L49.264 85.9937Z" fill="#FDE9CE"/>
<path id="Vector_105" d="M61.4496 112.545L61.6938 112.671L62.1822 113.091L62.5528 113.705L62.4854 113.823L62.1233 113.52V113.402L61.8791 113.276L61.6349 113.091V112.788L61.4496 112.73V112.545Z" fill="#FEC246"/>
<path id="Vector_106" d="M72.6919 40.7976L73.1213 40.9154H73.2477L73.1803 41.1592L72.6919 41.5882H72.5066V41.1004H72.6329L72.6919 40.7976Z" fill="#FEEFD2"/>
<path id="Vector_107" d="M23.1583 119.853H23.5204L24.6826 120.459L24.7415 120.644L24.1352 120.459L23.2173 119.971L23.1583 119.853Z" fill="#FEE1B1"/>
<path id="Vector_108" d="M46.5357 64.6908H46.8388L46.7209 65.3048L46.3504 65.2459L45.9883 65.0021V64.8759L46.5357 64.6908Z" fill="#FDE3C2"/>
<path id="Vector_109" d="M68.414 31.1848H68.5403V32.3875L68.414 32.4464L68.2287 31.782L68.1108 31.4119L68.414 31.1848Z" fill="#FDE1C2"/>
<path id="Vector_110" d="M44.6997 97.3475H44.8261L44.6408 97.8941L44.3966 98.3819L44.2113 98.4492L44.1523 98.2053L44.2787 97.9614L44.3966 97.8941L44.3376 97.7764L44.3966 97.4736L44.6997 97.3475Z" fill="#FEF7E5"/>
<path id="Vector_111" d="M46.7799 64.7581H46.9062L47.0241 65.187L47.2683 65.4898L47.4536 65.6748L47.3357 65.7337L46.9062 65.5487L46.5946 65.3637L46.7209 65.3048V64.817L46.7799 64.7581Z" fill="#FEE5BE"/>
<path id="Vector_112" d="M37.1881 40.2173H37.247V40.7976L37.1291 40.9742L36.6996 41.0415L36.5733 40.9742L36.5144 41.1004L36.2701 40.7976L36.3291 40.5537L36.5144 40.6715V40.7976L37.0028 40.7303L37.1291 40.5537L37.1881 40.2173Z" fill="#FFEED8"/>
<path id="Vector_113" d="M44.8261 96.4895L44.944 96.7335L44.8261 96.8596L44.6998 97.2213V97.4063L44.3966 97.4736L44.3376 97.5913L44.3966 97.1035L44.6408 96.6157L44.8261 96.4895Z" fill="#FDE7CD"/>
<path id="Vector_114" d="M64.3213 116.203L64.6244 116.514L64.8686 116.817L64.936 117.187L64.8097 117.246V117.002L64.4391 116.876L64.1949 116.514L64.2623 116.329L64.3213 116.203Z" fill="#FDB948"/>
<path id="Vector_115" d="M60.5906 60.0569H60.6579L60.7169 62.008L60.5906 62.1342L60.4727 61.4025V60.7886L60.5906 60.0569Z" fill="#FFF0DE"/>
<path id="Vector_116" d="M35.4112 36.2561L35.5376 36.4327L35.4786 38.4512H35.3523V36.3738L35.4112 36.2561Z" fill="#FFD89B"/>
<path id="Vector_117" d="M22.3162 109.862L22.5014 109.921L22.7456 110.038L22.9309 110.165L22.8635 110.535H22.6193L22.2572 110.106L22.3162 109.862Z" fill="#FEE9C0"/>
<path id="Vector_118" d="M60.5317 57.5506H60.717V58.8374H60.658L60.5907 58.1646L60.3464 58.0384L60.2875 57.7946L60.3464 57.6179L60.5317 57.5506Z" fill="#FEEFDB"/>
<path id="Vector_119" d="M62.6707 114.008L62.9738 114.134L63.1591 114.311L63.3443 114.622L63.4033 114.925L63.1001 114.74H62.9149L62.797 114.437L62.7296 114.193L62.6707 114.008Z" fill="#FEC24B"/>
<path id="Vector_120" d="M21.7857 97.4063H21.8447L21.7857 98.0202L21.6678 98.9958L21.4825 99.1808L21.5415 98.3819L21.6678 97.5408L21.7857 97.4063Z" fill="#FDD199"/>
<path id="Vector_121" d="M19.7057 113.217L19.832 113.402L19.9499 114.925L19.832 115.169L19.7057 114.327V113.217Z" fill="#FECE8B"/>
<path id="Vector_122" d="M52.9526 54.3211H53.1968V54.4388L54.6621 54.5061V54.6239H55.2179V54.6828H54.5442L53.3231 54.565L52.7084 54.4388L52.9526 54.3211Z" fill="#FED095"/>
<path id="Vector_123" d="M21.053 102.536H21.112L21.053 103.327L20.9267 103.941L20.8088 104.244H20.7499L20.8088 103.512L20.9267 102.671L21.053 102.536Z" fill="#FFD296"/>
<path id="Vector_124" d="M70.435 98.138L70.494 98.2642L70.7971 98.3819L70.9824 98.4492L71.1087 98.8108L70.7971 98.7519L70.2498 98.3231V98.2053L70.435 98.138Z" fill="#FDBD47"/>
<path id="Vector_125" d="M21.9709 95.3963L22.0888 95.6402L22.0298 96.3719L21.912 97.0447L21.7856 97.3475H21.7267L21.7856 96.6747L21.9709 95.3963Z" fill="#FED08F"/>
<path id="Vector_126" d="M21.2972 100.829H21.3561L21.2972 101.494L21.1709 102.234L21.053 102.536H20.994L21.053 101.805L21.1709 100.964L21.2972 100.829Z" fill="#FED194"/>
<path id="Vector_127" d="M51.6726 53.9511L52.2789 54.0772L52.6494 54.195V54.38L52.1021 54.3211L51.6052 54.195L51.6726 53.9511Z" fill="#FEE1B3"/>
<path id="Vector_128" d="M63.4623 114.984L63.8918 115.354L64.136 115.782L64.077 115.9L63.6475 115.715L63.5297 115.412L63.4623 114.984Z" fill="#FEC04A"/>
<path id="Vector_129" d="M20.3204 107.658H20.3793L20.3204 108.331L20.1941 109.004L20.0762 109.307H20.0172L20.0762 108.575L20.1941 107.784L20.3204 107.658Z" fill="#FED196"/>
<path id="Vector_130" d="M58.2748 73.2355L58.3337 73.4205L57.8453 74.2616L57.6011 74.1943L57.66 73.8915L57.9043 73.7065H58.0895L58.2074 73.3449L58.2748 73.2355Z" fill="#FEE3B6"/>
<path id="Vector_131" d="M75.9341 92.3434L76.1193 92.5284L76.1783 92.705V93.2012L76.052 93.319L75.8751 93.0162V92.5284L75.9341 92.3434Z" fill="#FEBE44"/>
<path id="Vector_132" d="M38.6533 25.3902H39.0239V25.4491L38.3165 25.6594L37.828 26.021L37.6512 26.3322L37.4659 26.6938H37.407V26.391L37.4659 26.206H37.5838L37.7101 25.9621L38.1396 25.6005L38.6533 25.3902Z" fill="#424A52"/>
<path id="Vector_133" d="M47.7566 68.4753L47.824 68.6015L48.0682 68.6604L47.883 68.7193L47.7566 69.0304L47.5798 69.2071L47.3945 69.1482L47.5124 68.8454L47.5798 68.7193H47.6977L47.7566 68.4753Z" fill="#F0AF44"/>
<path id="Vector_134" d="M49.0452 57.5506L49.5926 57.6768V57.8618H49.4073V57.9796L49.1041 58.1057L49.0452 57.5506Z" fill="#FEECD1"/>
<path id="Vector_135" d="M43.5461 105.556H44.0935V105.682L44.2788 105.741L43.9083 105.985L43.7904 106.052V105.867L43.5461 105.741V105.556Z" fill="#FFD7A5"/>
<path id="Vector_136" d="M21.4151 99.2397H21.4741L21.533 99.7275L21.4067 100.518L21.2888 100.829H21.2299L21.2888 100.098L21.4151 99.2397Z" fill="#FECD88"/>
<path id="Vector_137" d="M52.9526 54.2539H53.4747L53.7779 54.3716L54.6958 54.4305L54.519 54.5566L53.4158 54.4977L53.2305 54.4305V54.3127L52.9526 54.2539Z" fill="#FFECC5"/>
<path id="Vector_138" d="M49.0451 62.7985H49.1041V63.4125L48.8598 63.6564L48.6746 63.7153L48.9188 62.9836H49.0451V62.7985Z" fill="#FDE5C7"/>
<path id="Vector_139" d="M72.574 35.1544L73.1213 35.2133L73.0624 35.3983L72.7508 35.5833H72.574V35.1544Z" fill="#FEF2DB"/>
<path id="Vector_140" d="M63.0411 114.622L63.4622 114.983L63.5885 115.227L63.5296 115.471L63.2854 115.227L63.0411 114.866V114.622Z" fill="#FBB148"/>
<path id="Vector_141" d="M54.7295 78.3658L55.3358 78.4247L55.0916 78.6686L54.7884 78.7358L54.6031 78.5508V78.4247L54.7295 78.3658Z" fill="#FCB63D"/>
<path id="Vector_142" d="M49.8368 104.614L50.081 104.732L49.2894 105.16H49.1631L49.222 104.975L49.6515 104.673L49.8368 104.614Z" fill="#FDD273"/>
<path id="Vector_143" d="M48.8009 52.7905L49.104 52.9166L49.4072 53.1605V53.2783L49.104 53.2194L48.6156 52.9755V52.8578L48.8009 52.7905Z" fill="#FFEED9"/>
<path id="Vector_144" d="M87.1596 110.711H87.3449L86.9743 111.443L86.7301 111.384L86.7891 111.14H86.9154L87.0333 110.896L87.1596 110.711Z" fill="#FEEAC3"/>
<path id="Vector_145" d="M49.2641 85.9937L49.382 86.1788H49.2641V86.2965L49.382 86.3638H49.2641V86.7927L48.8936 86.9105L49.0788 86.3638L49.2641 85.9937Z" fill="#FDE3BF"/>
<path id="Vector_146" d="M65.2644 86.8516L65.4497 87.0955L65.8118 87.9365V88.0627H65.6939L65.2644 87.1459V86.8516Z" fill="#F7BE5F"/>
<path id="Vector_147" d="M20.5645 116.632H20.6824V116.758L20.9267 116.691V116.876L20.8088 117.061L20.4382 116.943V116.691L20.5645 116.632Z" fill="#FEF6DF"/>
<path id="Vector_148" d="M72.6919 40.7976L73.1213 40.9826L73.0624 41.1004H72.9361L72.8771 41.2265L72.5066 41.2854V41.1004H72.6329L72.6919 40.7976Z" fill="#FFF0DE"/>
<path id="Vector_149" d="M46.7377 64.6908L46.8556 64.7581L46.7966 65.0021L46.7377 65.3048L46.3672 65.2459L46.2493 65.1198H46.4935L46.6114 64.817L46.7377 64.6908Z" fill="#FDEAD1"/>
<path id="Vector_150" d="M80.8858 96.6158L81.248 96.6746L81.189 96.8596L80.8858 96.9774L80.7006 96.9185V96.6746L80.8858 96.6158Z" fill="#FEE5BA"/>
<path id="Vector_151" d="M88.5827 117.919L88.6416 118.095L88.2122 118.583L88.1532 118.406L88.3385 118.036L88.5827 117.919Z" fill="#FEECD0"/>
<path id="Vector_152" d="M54.4179 72.5039H54.6621L54.5442 72.7477H54.4179L54.3 72.9917L54.0558 73.1178L54.1737 72.6889H54.3589L54.4179 72.5039Z" fill="#F8BB4A"/>
<path id="Vector_153" d="M20.0761 109.374H20.1351L20.0761 110.038L19.9498 110.291H19.8909L19.9498 109.45L20.0761 109.374Z" fill="#FDD39C"/>
<path id="Vector_154" d="M46.2325 92.9406L46.3504 93.1256L46.2914 93.4368L46.0472 93.7395H45.8956L46.0725 93.1928L46.2325 92.9406Z" fill="#FDDFBA"/>
<path id="Vector_155" d="M76.052 97.2213H76.212V97.6502L76.0267 97.8941L75.9088 97.8352L76.0267 97.2885L76.052 97.2213Z" fill="#FDBB43"/>
<path id="Vector_156" d="M47.2683 90.5689H47.3356L47.3946 91.0651L47.2093 91.2417H47.083L47.024 91.4268L46.9651 91.309L47.2683 90.5689Z" fill="#FDDEB7"/>
<path id="Vector_157" d="M21.1119 117.431L21.4151 117.607L21.5414 117.919L21.3561 117.851L21.2972 117.978L21.1119 117.792L21.053 117.549L21.1119 117.431Z" fill="#FEEAC3"/>
<path id="Vector_158" d="M36.7586 77.264V77.4491H36.6323L36.506 77.6929L36.0765 78.1808H35.9586L36.0765 77.9368L36.6913 77.3313L36.7586 77.264Z" fill="#FEDDA4"/>
<path id="Vector_159" d="M65.1128 117.851L65.2981 118.095V118.221H65.5423L65.6012 118.465L65.4244 118.65L65.1128 118.036V117.851Z" fill="#FDC05C"/>
<path id="Vector_160" d="M65.2644 117.734L65.5086 117.978L65.5675 118.221H65.2644L65.1465 117.919L65.2644 117.734Z" fill="#FEC145"/>
<path id="Vector_161" d="M63.8917 83.6893H63.9507V84.0005H64.077L64.3212 84.606V84.7322H64.1949L63.8917 84.0594L63.8328 83.7566L63.8917 83.6893Z" fill="#F6B760"/>
<path id="Vector_162" d="M35.2343 115.354L35.4112 115.412L35.2933 115.597L35.1669 115.841L34.9227 115.782L35.049 115.539L35.2343 115.354Z" fill="#FDE1C3"/>
<path id="Vector_163" d="M20.8678 103.941L20.9267 104.185L20.8678 104.673L20.6825 104.79V104.37L20.8678 103.941Z" fill="#FDD9AD"/>
<path id="Vector_164" d="M71.4119 98.937L71.715 98.9958L71.8414 99.1136L71.774 99.2986L71.4119 99.1808V98.937Z" fill="#F8B643"/>
<path id="Vector_165" d="M85.8291 94.7234L85.9554 94.7823V94.9673L86.1406 95.0851L86.0733 95.2701L85.7701 95.0851V94.9673L85.5259 94.8412L85.8291 94.7234Z" fill="#FDDDB7"/>
<path id="Vector_166" d="M84.2459 84.7743L84.3638 84.9004L84.0017 85.1443L83.7574 85.2032V84.9593L84.2459 84.7743Z" fill="#FDE0C2"/>
<path id="Vector_167" d="M72.8435 36.3739H72.9024V37.2906L72.7845 37.2317V36.8028L72.7172 36.4327L72.8435 36.3739Z" fill="#FEEAC3"/>
<path id="Vector_168" d="M35.5965 35.8861L35.7228 35.9449L35.6555 36.4327L35.4786 36.3738L35.4113 36.13L35.5965 35.8861Z" fill="#FDE4C6"/>
<path id="Vector_169" d="M29.8954 120.416L30.0806 120.543L29.4069 120.786H29.1627V120.694L29.8954 120.416Z" fill="#FFE0AF"/>
<path id="Vector_170" d="M25.8195 94.8413H26.3668L26.3079 95.0851H25.9458V94.9086L25.8195 94.8413Z" fill="#FEEAC3"/>
<path id="Vector_171" d="M86.0142 83.7987L86.1406 84.0426V84.5304L86.0732 84.5893H85.77L85.9553 84.4126L86.0142 83.7987Z" fill="#FDF8F1"/>
<path id="Vector_172" d="M52.6326 20.9917H52.8179L52.6916 21.3618L52.5063 21.3029L52.2621 21.3618L52.5063 21.059L52.6326 20.9917Z" fill="#3E454D"/>
<path id="Vector_173" d="M23.251 111.325L23.6216 111.384L23.4363 111.51L22.8889 111.687L23.1331 111.384L23.251 111.325Z" fill="#FEEAC3"/>
<path id="Vector_174" d="M64.3213 116.203L64.6244 116.514L64.6918 116.691L64.3802 116.573L64.1949 116.514L64.2623 116.329L64.3213 116.203Z" fill="#FFC54A"/>
<path id="Vector_175" d="M34.948 115.471L35.1332 115.539L34.948 115.782H35.1332L35.0743 115.959H34.948L34.7711 115.715L34.948 115.471Z" fill="#FEE9C9"/>
<path id="Vector_176" d="M30.1564 104.126L30.2237 104.244H30.6448L30.4006 104.488L30.2237 104.547L30.1564 104.488V104.126Z" fill="#FFD478"/>
<path id="Vector_177" d="M35.8407 78.1218H35.967L35.8407 78.3657L35.5375 78.6096L35.2933 78.5507L35.8407 78.1218Z" fill="#FDE0BB"/>
<path id="Vector_178" d="M51.4284 69.5183H51.5463L51.4874 69.8211L51.3021 70.0061V69.8799H51.1842V69.7033L51.4284 69.5183Z" fill="#FEE2B4"/>
</g>
<defs>
<clipPath id="clip0_264_3187">
<rect width="111" height="125" fill="white"/>
</clipPath>
</defs>
</svg>
