<svg width="76" height="85" viewBox="0 0 76 85" fill="none" xmlns="http://www.w3.org/2000/svg">
<g clip-path="url(#clip0_629_2636)">
<path d="M37.9972 83.5875C58.7063 83.5875 75.4943 66.7142 75.4943 45.9C75.4943 25.0857 58.7063 8.2124 37.9972 8.2124C17.288 8.2124 0.5 25.0857 0.5 45.9C0.5 66.7142 17.288 83.5875 37.9972 83.5875Z" fill="white"/>
<path d="M36.9388 0H38.1394L39.3742 0.205889L40.2049 0.457522L40.8649 0.70343L41.6502 1.12092L42.2647 1.53268L42.68 1.87009L43.0954 2.24181L43.6303 2.77939L44.04 3.32268L44.4952 4.02611L44.9902 5.06123L45.3202 6.10207L45.4454 6.51383L46.316 6.97133L47.1808 7.54322L47.7157 7.95499L48.2847 8.45253L49.1496 9.32752L49.5251 9.78504L50.0202 10.4484L50.5152 11.2376L51.0842 12.3814L51.4597 13.3307L51.7499 14.2858L51.9548 15.2409L52.0799 16.236L52.1198 17.0709L52.1596 22.2179L52.575 22.5896L52.9846 23.1615L53.2748 23.7849L53.4 24.2824L53.4399 24.6999V26.0667L53.3602 26.9017L53.1497 27.6852L52.905 28.3085L52.575 28.9319L52.1994 29.4294L51.7499 29.9727L51.1809 30.4245L50.6119 30.802L48.8765 31.6712L48.6716 31.7113L48.5464 32.0887L48.0913 33.0838L47.6759 33.873L47.2264 34.5765L46.811 35.1483L46.3558 35.6859L46.0656 36.0176L45.2406 36.8926L44.7853 37.2643L44.2505 37.6761L44.2107 41.5363L44.6602 41.6622L56.3076 45.5624L57.1327 45.9399L57.7927 46.3516L58.2081 46.6833L58.6178 47.0551L58.9933 47.4325L59.4883 48.0959L59.8582 48.7193L60.1882 49.5085L60.3931 50.1719L60.558 51.0812L62.6235 65.6072L62.6634 65.8588V66.1905L62.0488 66.3163L61.4286 66.3964L61.6733 68.1121L61.7587 68.8612L61.8383 68.9813L62.7487 68.8612H63.0787L63.3689 70.8114L63.9038 74.5858L63.9891 75.295L64.029 75.9126V77.4968L63.9436 78.4918L63.7388 79.4069L63.4941 80.1503L63.0389 81.1054L62.7487 81.5629L62.3333 82.1348L61.7643 82.7581L61.4343 83.0899L60.8653 83.5416L60.2053 83.9591L59.5851 84.2908L58.7202 84.6225L57.8098 84.8741L57.1099 84.9942H55.5793L54.4413 84.7483L53.5309 84.4566L52.501 83.9591L51.8808 83.5416L51.4256 83.2157L51.0102 82.8439L50.4754 82.3063L50.1852 81.9747L49.8096 81.5572L49.565 81.2255L49.4796 81.1854V83.7875L49.3999 84.1192L49.1951 84.491L48.8651 84.7826L48.4497 84.9885H26.7025L26.2018 84.7025L25.9173 84.4109L25.7523 84.0392L25.7067 83.6617L23.1064 83.7017L22.6967 83.9534L22.031 84.2851L21.462 84.5367L20.4719 84.8227L19.6014 84.9885H18.0764L16.9384 84.7426L15.8004 84.3709L14.9697 83.9534L14.5998 83.7017L14.3552 83.6617H5.90551L5.82585 84.0792L5.45031 83.9934L3.6352 83.3701L3.30518 83.2042L3.43036 82.7925L4.05057 80.9681L4.6651 79.1781L5.28531 77.3538L5.90551 75.5695L6.77609 73.036L7.39061 71.2517L7.84581 69.965L8.09617 70.0107L9.08623 70.3424L9.25124 69.9249L9.91128 67.9748L9.99663 67.6831L9.54143 67.5573L8.83587 67.3114L8.79604 67.1856L9.21141 65.9846L9.83162 64.1546L10.4461 62.3703L11.3167 59.8425L11.6866 58.8017L12.1019 57.6007L12.8018 55.5248L13.3367 53.9864L14.2869 51.207L14.6624 50.2119L14.9071 49.7144L15.2826 48.8451L15.6525 48.176L16.0622 47.6041L16.6312 46.9807L17.0466 46.609L17.6156 46.1915L18.2756 45.8198L19.0608 45.4881L30.2132 41.7537L30.8733 41.5421L30.9131 41.502V37.7276L30.5432 37.3959L30.1279 37.0642L29.593 36.5609L28.8078 35.7774L28.3526 35.2055L27.9372 34.6679L27.4422 33.8787L26.8732 32.735L26.4578 31.7799L24.4777 30.7848L23.9087 30.3673L23.5445 30.0299L23.334 29.8641L22.9642 29.4066L22.6341 28.949L22.1789 28.0798L21.9343 27.3306L21.8091 26.7072L21.7693 26.3755V24.5512L21.8888 23.9279L22.1391 23.3045L22.4691 22.807L22.9642 22.2694L23.0495 22.1836L23.0893 16.6248L23.169 15.7498L23.2942 15.0064L23.5445 13.9655L23.8746 12.9705L24.3298 11.9353L24.7793 11.1061L25.3483 10.2311L25.6385 9.85939L25.8035 9.89941L26.3725 10.3569L26.6627 10.5628L26.8277 10.4827L27.1179 10.1053H27.2032L27.2829 9.93944L27.9031 9.32181L27.7779 9.11021L27.3227 8.61265L27.1179 8.36675L27.2032 8.20089L27.8177 7.70335L28.5233 7.20009L29.3882 6.70255L29.7637 6.49667L29.8832 6.12495L30.0938 5.41579L30.5034 4.42071L30.9586 3.6315L31.4537 2.96811L31.8235 2.55635L32.1137 2.22466L32.4437 1.93299L32.9843 1.51552L33.5988 1.10376L34.2645 0.772054L34.8335 0.520422L35.6187 0.274513L36.6486 0.0629169L36.9388 0Z" fill="#020202"/>
<path d="M33.6384 39.1344L34.0083 39.2202L35.0382 39.5119L35.9087 39.6777L36.6313 39.752L37.2516 39.7978H37.9514L38.987 39.712L39.9771 39.5462L40.8021 39.3403L41.4223 39.1287H41.5873V41.9881L41.6272 42.7373L41.7922 43.1948L42.0426 43.4808L42.6116 43.7724L55.3742 48.0502L56.0343 48.3819L56.4496 48.6735L56.8593 49.0452L57.1894 49.417L57.5649 50.0403L57.8096 50.7037L57.9746 51.5787L58.7598 57.0975V57.4806L57.0528 58.0525L55.2775 58.6244L53.4624 59.2478L53.2974 59.1677L52.4723 57.5035L52.057 56.6342L51.7725 56.1767L51.3571 55.8851L50.7881 55.5534L49.6501 54.8899L48.66 54.318L47.4651 53.6146L46.5547 53.0771L45.7695 52.6196L44.1592 51.6645L43.3342 51.167L40.9387 49.7544L40.3185 49.3827L40.199 49.4227L39.63 50.4178L39.2601 51.0411L38.9699 51.4986V51.6245L39.5389 51.9562L39.9941 52.2478L40.3697 52.4537L41.3597 53.0256L42.4977 53.689L43.0667 54.0207L44.2048 54.6841L45.1948 55.256L45.815 55.6334L46.5206 56.0452L47.0156 56.2968V56.3769L47.2204 56.4226V56.5027L47.4253 56.5885L47.8805 56.8344L48.1309 56.9602V57.0402L48.3357 57.126L48.5861 57.2518L49.0356 57.5435L49.5306 57.7894V57.8752L49.7411 57.9553L49.9061 58.1211L50.4012 59.0762L51.3912 61.0664L51.5563 61.4438L51.7212 61.9013L51.8863 62.4732L51.9716 62.7248L52.0911 63.2967L52.1765 64.3376V65.1268L52.0911 65.956L51.8863 66.9111L51.6416 67.6545L51.3059 68.4437L51.101 68.8612L50.8962 68.8155L50.0711 68.2436L49.946 68.2035V68.1178L49.781 68.0777L49.4509 67.8261L49.2461 67.706L48.9559 67.4944L48.7511 67.3686L48.0853 66.9168L47.8805 66.7052L47.4708 65.7502L47.2603 65.2526L46.9701 64.6292L46.6002 63.76L46.4352 63.4283L46.3101 63.0966L46.1052 62.599L45.65 61.604L45.0298 60.1513L44.4949 58.9447L43.8747 57.4921L43.4651 56.4169L43.135 55.7478L42.805 55.2102L42.3896 54.6727L41.9344 54.2151L41.3142 53.7576L40.6144 53.4259L40.1592 53.2601L39.4991 53.1343H38.6342L38.1335 53.2601L37.684 53.5117L37.519 53.4659L36.9784 53.22L36.5688 53.1343H35.7437L34.9585 53.3001L34.3383 53.5517L33.7693 53.8834L33.3596 54.2151L32.9442 54.5869L32.489 55.1587L32.0793 55.8221L31.7095 56.6113L31.499 57.229L31.2543 57.8009L31.1291 58.0925L30.9641 58.4642L30.7593 58.9618L30.4292 59.751L30.139 60.3744L29.974 60.7862L29.7692 61.2036L29.6042 61.6154L28.8986 63.1938L28.6938 63.7371L28.5288 64.0688L28.0736 65.1039L27.8687 65.6415L27.6582 65.6872L27.0892 65.3555L26.5942 65.0639L25.9341 64.7322L24.6539 64.1088L24.1133 63.8572L22.6112 63.1995L21.991 62.9536L20.9212 62.5819L20.0507 62.2902L18.9752 61.9585L18.2754 61.7927L17.6153 61.6268L16.5399 61.3752L15.8799 61.2093L15.9197 60.7976L17.1203 52.4137L17.3252 51.0411L17.4902 50.4178L17.8202 49.7143L18.1957 49.2168L18.5656 48.7993L19.0606 48.4276L19.7206 48.0959L20.466 47.8043L23.4362 46.8092L24.1418 46.6033L24.5116 46.4775L24.8018 46.3516L25.5017 46.1458L26.4917 45.8141L26.9071 45.6482L28.0451 45.2708L28.3353 45.3165L28.7052 45.5624L29.2742 45.8941L29.8944 46.2716L30.2642 46.4775L30.5089 46.6033V46.6833L30.7194 46.7691L31.3795 47.1408L31.9997 47.5126H32.1647L32.4094 47.1008L32.6199 46.7234H32.6996L32.7394 46.5575L33.388 45.4709L33.4279 45.3051L31.8176 44.35L31.5729 44.1842V44.0984L32.893 43.6409L33.2629 43.395L33.4734 43.0633L33.5929 42.6458L33.6384 39.1344Z" fill="#FCB649"/>
<path d="M37.559 16.9336L37.7638 17.0594L38.4296 17.7228L38.8791 18.0945L39.5846 18.6321L40.2049 19.0496L40.9844 19.5071L41.6501 19.8388L42.2646 20.1305L43.2604 20.5022L44.2903 20.7939L45.5705 21.0398L46.811 21.2056L46.8508 21.2514V22.967L46.811 28.4457L46.6858 29.3207L46.4809 30.19L46.2306 30.9392L45.7754 31.9743L45.2405 32.8893L44.7455 33.5527L44.2106 34.1761L43.7099 34.6736L43.2604 35.0454L42.7198 35.4628L42.185 35.7945L41.2746 36.2921L40.4495 36.6238L39.4595 36.9154L38.3215 37.1213L37.7866 37.1613H37.3314L36.5063 37.0813L35.3683 36.8296L34.5035 36.538L33.6784 36.1662L32.9785 35.7945L32.4835 35.4628L31.943 35.0454L31.374 34.5478L30.805 33.9759L30.4351 33.5184L29.9799 32.895L29.6499 32.3232L29.1549 31.3738L28.7793 30.373L28.5346 29.3779L28.4095 28.5086L28.3696 27.9654V21.1599L28.4493 21.1198L29.3199 21.0398L30.5546 20.8282L31.6926 20.5365L32.8306 20.1247L33.6556 19.753L34.4409 19.3355L35.2659 18.838L35.3854 18.7979V18.7122L35.761 18.4663L36.256 18.0888L36.7908 17.6313L37.3314 17.1338L37.559 16.9336Z" fill="#FDDFC1"/>
<path d="M38.9647 55.7649L39.4597 55.8107L39.9547 56.0566L40.3701 56.3883L40.7399 56.8858L41.07 57.5549L41.4853 58.6987L42.0202 59.9054L42.7201 61.4838L43.4655 63.1995L44.2905 65.1096L45.0359 66.8253L45.6049 68.152L45.8154 68.5238L46.0203 68.7353L46.4755 69.0671L57.3832 76.3529L57.9522 76.7247H58.0376L58.3221 76.2671L58.6521 75.7696L59.3576 74.7345L59.3975 74.5686L57.6222 73.362L55.9152 72.2468L53.8042 70.8342L53.2352 70.4167L53.275 70.2108L53.6904 69.4216L54.1001 68.3865L54.3903 67.3857L54.5951 66.3506L54.6406 65.8931L54.8455 65.7672L55.6705 65.4813L58.6862 64.3375L59.5511 64.0058L59.7161 64.0516L60.0461 66.5393L60.5867 66.4993L61.3662 66.4135L61.4914 66.911L61.7418 68.9069L61.7816 69.0728L60.4615 69.2787L61.3264 75.5065L61.3662 76.1242V77.4109L61.2865 78.2859L61.0817 79.0294L60.7915 79.6527L60.5013 80.1503L60.1713 80.5678L59.8015 80.9852L59.4259 81.3169L58.726 81.7687L57.9408 82.1004L57.1158 82.312L56.7459 82.352H55.8754L55.1356 82.2262L54.4756 82.0203L53.8099 81.6887L53.3604 81.397L52.9052 81.0253L52.4101 80.5277L52.0346 80.0702L51.4997 79.4983L51.1299 79.0408L50.6348 78.5032L50.2593 78.0457L49.8041 77.5482L49.5196 77.2165L49.0246 76.6446L48.649 76.2271L48.3588 75.8954L47.8638 75.3235L47.494 74.9118L47.2038 74.5801L46.7087 74.0082L46.3389 73.5964L46.0487 73.259L45.5537 72.6871L45.1838 72.2696L44.9733 72.0638L44.5978 71.7778L44.3929 71.732L42.2819 71.692L41.5422 71.5262L40.8822 71.1945L40.5066 70.9028L39.9718 70.3653L39.5564 69.7419L39.2719 69.1185L39.1467 68.8269L39.0216 68.3751L38.9419 67.5858V55.8621L38.9647 55.7649Z" fill="#FDDFC1"/>
<path d="M36.0627 55.7649H36.2278L36.2676 55.8507V67.2199L36.2278 68.009L36.0627 68.7582L35.8124 69.4216L35.4937 70.0621L35.1637 70.4739L34.5947 71.0458L34.0257 71.3775L33.5307 71.5833L32.9105 71.7092L30.845 71.7492L30.4751 71.835L30.1451 72.0409L30.02 72.0866L29.9403 72.2525L29.3997 72.8244L29.0299 73.2819L28.5349 73.8195L28.165 74.277L27.6245 74.8488L27.2546 75.3063L26.8449 75.7582L26.5547 76.0898L25.4793 77.3366L25.0639 77.7941L24.6941 78.2516L24.1592 78.8235L23.7894 79.281L23.374 79.7385L23.0838 80.0702L22.549 80.6936L22.1336 81.111L21.6386 81.4827L20.9785 81.8545L20.3185 82.1061L19.6186 82.272L19.2431 82.312H18.4237L17.6783 82.1862L16.8134 81.8945L16.1932 81.5628L15.6982 81.1911L15.2828 80.8194L14.8276 80.3218L14.3781 79.5727L14.0481 78.7834L13.8717 78.0686L13.8262 77.7312V75.701L14.0367 74.1225L15.3568 64.8694L15.5218 63.9143L15.977 63.9544L17.2572 64.206L18.5375 64.5377L20.0226 65.0352L20.4323 65.2011L20.4778 65.2811L20.5973 66.4249L20.8476 67.6316L21.098 68.4208L21.428 69.2901L21.7979 69.9935L21.9629 70.3252V70.451L21.2175 70.9486L19.4422 72.1552L17.6271 73.3562L16.8419 73.8995L16.0965 74.3971L15.812 74.5629L15.8518 74.7688L16.307 75.4322L16.802 76.1814L17.1719 76.7532L17.3767 76.6732L18.987 75.5923L20.7623 74.3913L22.5831 73.1847L24.3584 71.9837L26.1735 70.777L27.9488 69.576L28.899 68.9527L29.2689 68.661L29.4794 68.4151L29.8891 67.5001L30.4296 66.2534L31.1693 64.5377L31.7383 63.2052L32.4837 61.4895L33.0527 60.1627L33.7526 58.5443L34.168 57.4634L34.5378 56.76L34.9134 56.3025L35.3629 55.9708L35.7384 55.8049L36.0627 55.7649Z" fill="#FDDFC1"/>
<path d="M33.6386 39.1344L34.0084 39.2202L35.0383 39.5119L35.9089 39.6777L36.6315 39.752L37.2517 39.7978H37.9516L38.9872 39.712L39.9773 39.5462L40.8023 39.3403L41.4225 39.1287H41.5875V41.9881L41.6273 42.7373L41.7924 43.1948L42.0427 43.4808L42.6117 43.7724L55.3744 48.0502L56.0344 48.3819L56.4498 48.6735L56.8595 49.0452L57.1895 49.417L57.5651 50.0403L57.8097 50.7037L57.9747 51.5787L58.76 57.0975V57.4806L57.053 58.0525L55.2777 58.6244L53.4626 59.2478L53.2976 59.1677L52.4725 57.5035L52.0571 56.6342L51.7726 56.1767L51.3573 55.8851L50.7883 55.5534L49.6503 54.8899L48.6602 54.3181L47.4653 53.6146L46.5549 53.0771L45.7697 52.6196L44.1594 51.6645L43.3344 51.167L40.9389 49.7544L40.3187 49.3827L40.1992 49.4227L39.6302 50.4178H39.4765L39.2717 50.2977L38.9815 50.1719L38.0711 49.6L37.8663 49.4341L37.6159 49.3541L37.4964 49.2683L37.2859 49.2283L37.4111 48.8966L37.6159 48.5648L37.9459 48.0273L37.9061 47.9015L36.8307 47.2781L35.926 46.7405L35.7211 46.6948L35.1521 47.7356L35.0269 47.7757V47.7585H34.8221V47.6727L34.6571 47.6327L33.997 47.261L33.0866 46.6891L32.8818 46.5232L32.9216 46.3574L33.4167 45.4881L33.4565 45.3222L31.8462 44.3672L31.6016 44.2014V44.1156L32.9216 43.6581L33.2915 43.4121L33.502 43.0804L33.6215 42.663L33.6386 39.1344Z" fill="#FDDFC1"/>
<path d="M34.2587 7.96655H40.6145L41.65 8.05233L42.7198 8.29824L43.7098 8.62993L44.5804 9.04742L45.4055 9.54496L45.9005 9.91668L46.3557 10.2941L46.9247 10.8317L47.2149 11.1634L47.6302 11.661L48.0854 12.3244L48.4155 12.8962L48.7853 13.6855L49.0755 14.4746L49.3202 15.4697L49.4454 16.299L49.4852 16.8709V19.3986L49.4055 19.4844L49.2405 19.107L48.9105 18.821L48.7057 18.6952L48.2903 18.6094L46.7199 18.4893L45.3599 18.2777L44.4894 18.0718L43.2546 17.6544L42.2589 17.2026L41.3143 16.6593L40.7453 16.2475L40.2901 15.8701L39.7553 15.3725L39.3797 14.9608L38.8847 14.2116L38.5547 13.7541L38.2645 13.5082L37.98 13.3824H37.1549L36.9046 13.5082L36.4892 13.9199L36.2445 14.2516L35.9543 14.3774L35.7495 14.6291L35.2089 15.0008L34.5091 15.4183L33.3711 15.9158L31.886 16.4134L30.9357 16.6593L29.5758 16.9109L26.8901 17.2826L26.3894 17.4485L26.0594 17.6944L25.9399 17.906L25.8147 18.1519H25.7749V16.2418L25.9399 15.2467L26.2244 14.2116L26.5544 13.3824L26.9698 12.5531L27.2998 12.0556L27.755 11.4322L27.5502 11.3464L26.8446 10.7745L26.8048 10.6487L26.7251 10.6087L27.095 10.1912L27.1348 10.1054H27.2202L27.2998 9.93956L27.92 9.32193L28.085 9.40199L28.7053 10.0654L28.8703 10.2312L29.1149 10.0654L29.6157 9.69365L29.8205 9.56784L30.2302 9.27617L30.7992 8.94448L31.6641 8.57275L32.5346 8.28109L33.4849 8.0752L34.2587 7.96655Z" fill="#414951"/>
<path d="M39.4764 55.9021L39.7267 55.9479L40.0966 56.1938L40.3469 56.3996L40.7168 56.8972L41.0468 57.5663L41.4622 58.7101L41.997 59.9168L42.7197 61.4838L43.4651 63.1994L44.2901 65.1096L45.0355 66.8252L45.6045 68.152L45.815 68.5237L46.0199 68.7353L46.4751 69.067L57.3828 76.3529L57.9518 76.7246H58.0372L58.3217 76.2671L58.6517 75.7696L59.3573 74.7344L59.3971 74.5686L57.6218 73.3619L55.9148 72.2467L53.8038 70.8341L53.2348 70.4167L53.2746 70.2108L53.69 69.4216L54.0997 68.3865L54.3899 67.3857L54.5947 66.3505L54.6402 65.893L54.8451 65.7672L55.6701 65.4813L58.6858 64.3375L59.5507 64.0058L59.7157 64.0515L60.0457 66.5393L60.5863 66.4992L61.3658 66.4134L61.491 66.911L61.7414 68.9069L61.7812 69.0728L60.4611 69.2786L61.326 75.5065L61.3658 76.1241V77.4109L61.2862 78.2859L61.0813 79.0293L60.7911 79.6527L60.501 80.1503H60.4213L60.3758 80.0302V79.5726L60.2108 79.4468L59.9661 79.321L59.3971 78.9493L58.9419 78.6576L58.2022 78.1601L56.3074 76.9248L55.397 76.3529L54.572 75.781L53.5421 75.1176L51.9944 74.1225L51.5392 73.8309L50.0143 72.8358L49.1039 72.2639L48.4438 71.8464L47.8748 71.4747L47.0953 70.9771L46.5263 70.5997L45.6159 70.0278L45.2062 69.7361L44.7112 69.3644L44.421 69.0728L44.0909 68.5752L43.6756 67.6201L42.7709 65.0867L42.3555 63.9429L41.8206 62.5303L41.5304 61.7011L40.9614 60.2085L40.5518 59.0075L40.0567 57.6349L39.8917 57.2174L39.5617 56.3082L39.4365 55.9364L39.4764 55.9021Z" fill="#FFF1DE"/>
<path d="M35.1237 56.1538L35.2489 56.1938L35.0839 56.5656L35.0384 56.7772H34.9587L34.8335 57.3148L34.6685 57.8123L34.4238 58.6816L33.9231 60.2199L33.5931 61.2151L33.3086 62.1301L32.8932 63.4168L32.3982 64.8694L31.9828 66.0704L31.4878 67.563L31.2033 68.398L30.8676 68.9356L30.6627 69.1872L30.2075 69.5589L29.2345 70.2223L28.5347 70.6798L28.2445 70.8457L27.5446 71.3032L26.6342 71.875L25.9742 72.2925L25.1491 72.8301L24.6939 73.1218L23.9087 73.6193L23.2487 74.0368L22.2814 74.6373L21.7465 74.9747L21.0409 75.4265L20.0509 76.0498L19.351 76.5074L17.7407 77.5882L17.0807 78.0458L16.6255 78.3317L16.3751 78.4975H16.2955V78.5833L15.7549 78.915L14.725 79.5384L14.6397 79.7042H14.4405L14.1503 79.1323L13.9455 78.4689L13.8203 77.7198V75.6896L14.0308 74.1112L15.3509 64.858L15.5159 63.9029L15.9711 63.9429L17.2514 64.1946L18.5316 64.5263L20.0167 65.0238L20.4264 65.1897L20.4719 65.2697L20.5914 66.4135L20.8418 67.6202L21.0921 68.4094L21.4222 69.2787L21.792 69.9821L21.957 70.3138V70.4396L21.2116 70.9372L19.4364 72.1439L17.6212 73.3448L16.836 73.8881L16.0906 74.3856L15.8061 74.5515L15.846 74.7574L16.3012 75.4208L16.7962 76.1699L17.166 76.7418L17.3709 76.6618L18.9811 75.5809L20.7564 74.3799L22.5772 73.1732L24.3525 71.9723L26.1676 70.7656L27.9429 69.5646L28.8931 68.9412L29.263 68.6496L29.4735 68.4037L29.8832 67.4887L30.4238 66.2419L31.1635 64.5263L31.7325 63.1938L32.4779 61.4781L33.0469 60.1513L33.7467 58.5329L34.1621 57.452L34.5319 56.7486L34.9075 56.2911L35.1237 56.1538Z" fill="#FFEFDD"/>
<path d="M12.8246 63.7715H12.9099L12.8644 64.1432L12.6596 65.2241L12.5344 65.9676L12.4547 66.7567L12.2897 67.7976L11.9995 69.7878L11.8743 70.617L11.7947 71.2804L11.5841 72.733L11.4647 73.7738L11.3395 74.4772L11.2996 74.9748L11.2143 75.3923V78.0058L11.2996 78.6292L11.5045 79.4985L11.6695 79.996L11.8345 80.4135L12.3295 81.3285L12.6596 81.8261L12.9896 82.2378L13.4448 82.7353L13.7748 83.067L14.3097 83.4845L14.4747 83.6104L14.4348 83.6904H5.90552L5.82586 84.1079L5.45031 84.0221L3.6352 83.3988L3.30518 83.2329L3.43036 82.8211L4.05057 80.9968L4.6651 79.2068L5.28531 77.3825L5.90552 75.5982L6.77609 73.0647L7.39061 71.2804L7.84581 69.9937L8.09617 70.0394L9.08623 70.3711L9.25125 69.9536L9.91128 68.0035L9.99664 67.7575L10.4063 67.8777L10.7819 68.0035L11.0664 68.0892H11.2769L11.5216 67.3801L11.6866 66.9684L11.9369 66.2192L12.1019 65.8017L12.432 64.7666L12.5571 64.4749L12.7221 63.9373L12.8246 63.7715Z" fill="#EF7422"/>
<path d="M34.9247 73.8311H35.1296V73.9168L35.2946 73.9569L35.7099 74.3286L36.1595 74.706L36.7797 75.2436L37.3202 75.7411L37.8152 76.1987L38.2249 76.5704L39.2605 77.6112L39.545 77.9429L40.0002 78.4405L40.3757 78.898L40.8253 79.4356L41.3943 80.2248L41.8096 80.8481L42.4241 81.9233L42.5493 82.1749V82.3407H28.3243L28.2845 80.8024L28.074 80.0989L27.9089 79.4756L27.7041 78.8522L27.7439 78.6864L28.239 78.1488L28.6145 77.6913L29.1494 77.1194L29.5192 76.6619L29.9346 76.2044L30.2248 75.8727L30.5946 75.4552L30.7198 75.2894H30.7995L30.8848 75.0835L31.3798 74.5459L31.505 74.38L33.0698 74.3343L33.8152 74.2142L34.4354 74.0483L34.9247 73.8311Z" fill="#F58C84"/>
<path d="M33.7864 8.01221H37.5817L37.6272 9.72788V10.5171L37.5817 12.0555L37.4622 12.513L37.1322 13.1306L37.007 13.2564L36.9216 13.468L36.4664 13.9198L36.2218 14.2515L35.9316 14.3773L35.7267 14.629L35.1862 15.0007L34.4863 15.4182L33.3483 15.9157L31.8632 16.4133L30.913 16.6592L29.5531 16.9108L26.8674 17.2825L26.3894 17.4484L26.0594 17.6943L25.9399 17.9059L25.8147 18.1518H25.7749V16.2417L25.9399 15.2466L26.2244 14.2115L26.5544 13.3823L26.9698 12.553L27.2998 12.0555L27.755 11.4321L27.5502 11.3463L26.8446 10.7744L26.8048 10.6486L26.7251 10.6086L27.095 10.1911L27.1348 10.1053H27.2202L27.2998 9.93947L27.92 9.32184L28.085 9.4019L28.7053 10.0653L28.8703 10.2311L29.1149 10.0653L29.6157 9.69357L29.8205 9.56775L30.2302 9.27608L30.7992 8.94439L31.6641 8.57267L32.5346 8.281L33.4849 8.07511L33.7864 8.01221Z" fill="#575A65"/>
<path d="M41.9802 53.9521H42.2647L43.05 54.2838L43.619 54.6613L44.1538 55.033L44.609 55.3247L45.3544 55.7765L46.2591 56.3484L49.1497 58.064L49.4797 58.3099L49.73 58.6016L49.9349 58.9333L50.1852 59.0591L50.2251 59.265L50.3502 59.0992L51.3403 61.0893L51.5053 61.4668L51.6703 61.9243L51.8353 62.4962L51.9207 62.7478L52.0402 63.3197L52.1255 64.3606V65.1497L52.0402 65.979L51.8353 66.9341L51.5907 67.6775L51.255 68.4667L51.0501 68.8842L50.8453 68.8384L50.0202 68.2665L49.895 68.2265V68.1407L49.73 68.1007L49.4 67.8491L49.1952 67.729L48.905 67.5174L48.7001 67.3916L48.0344 66.9398L47.8296 66.7282L47.4199 65.7731L47.2094 65.2756L46.9192 64.6522L46.5493 63.7829L46.3843 63.4512L46.2591 63.1195L46.0543 62.622L45.5991 61.6269L44.9789 60.1743L44.444 58.9676L43.8238 57.515L43.4141 56.4399L43.0841 55.7708L42.7541 55.2332L42.7086 55.1531H42.7939V54.9015L42.6289 54.8214V54.7356L42.5037 54.6956L42.2135 54.3181L42.1339 54.2781V54.1523L41.9233 54.1123L41.9802 53.9521Z" fill="#FCB64A"/>
<path d="M16.4603 64.0803L16.87 64.1204L18.5258 64.5379L20.0109 65.0354L20.4206 65.2012L20.4661 65.2813L20.5856 66.4251L20.836 67.6318L21.0863 68.421L21.4163 69.2903L21.7862 69.9937L21.9512 70.3254V70.4512L21.2058 70.9487L19.4305 72.1554L17.6154 73.3564L16.8302 73.8997L16.0848 74.3972L15.8003 74.5631L15.8401 74.7689L16.2953 75.4324L16.5855 75.8899H16.2498L15.6808 76.1815L15.311 76.4274L14.742 76.7591L14.5769 76.7191L14.5371 76.6791V76.1358L14.7021 75.2665L14.9468 73.7338L15.1175 72.8589L15.4475 70.8687L15.897 68.1694L16.2726 65.8017L16.5628 64.2691L16.6424 64.229L16.4376 64.1433L16.4603 64.0803Z" fill="#FDDFC1"/>
<path d="M58.4926 64.4119L58.578 64.4519V64.5777L58.7032 64.6578L58.9933 66.5279L59.8582 71.509L60.3134 74.2083L60.5581 75.6609L60.7686 76.9477V77.1536L60.6036 77.2336L60.0631 76.8219L59.568 76.3644L59.3234 76.1985L59.1583 76.0327L59.0332 75.9469V75.8668H58.9478L58.9933 75.5351L59.2778 75.2835L59.4428 74.9518L59.5282 74.7459V74.6373H59.4428L59.238 74.4314L57.4229 73.2304L53.8268 70.8228L53.2578 70.4053L53.2976 70.1994L53.713 69.4102L54.1227 68.3751L54.4129 67.3742L54.6177 66.3391L54.6632 65.8816L54.8681 65.7558L55.6931 65.4698L57.0986 64.898L58.4926 64.4119Z" fill="#FBDFC1"/>
<path d="M7.86875 69.9707L8.11911 70.0164L9.35954 70.4282L9.76921 70.594L10.2642 70.7199L10.3496 70.8056V71.0515L10.2244 71.3032L10.0992 71.755L9.97405 72.0466L9.68955 72.8759L9.31402 74.0197L9.149 74.4314L8.94416 75.0948L8.77916 75.5123L8.57432 76.0842L8.44913 76.4616L8.15895 77.371L8.03377 77.6626L7.91427 78.0401L7.66391 78.8236L7.4989 79.241L7.29406 79.9044L7.12905 80.3219L6.71368 81.5229L6.46901 82.3121L6.304 82.7296L5.96829 83.6389L5.8488 84.0563L5.47326 83.9706L3.65815 83.3472L3.32812 83.1814L3.45331 82.7696L4.07351 80.9453L4.68804 79.1553L5.30825 77.3309L5.92846 75.5466L6.79904 73.0131L7.41355 71.2288L7.86875 69.9707Z" fill="#020202"/>
<path d="M37.5593 16.9336L37.7641 17.0594L38.4298 17.7228L38.8794 18.0945L39.5849 18.6321L40.2051 19.0496L40.9847 19.5071L41.6504 19.8388L42.2649 20.1305L43.2607 20.5022L44.2905 20.7939L45.5708 21.0398L46.8112 21.2056L46.8511 21.2514V22.967L46.8112 28.4457L46.6861 29.3207L46.4812 30.19L46.2308 30.9392L45.7756 31.9743L45.2408 32.8893L44.7458 33.5527L44.2109 34.1761L43.7102 34.6736L43.2607 35.0454L42.7201 35.4628L42.5153 35.5429V35.297L42.6404 34.8795L42.8453 34.5478H42.9306L43.0103 34.3819L43.3005 34.0503H43.3801L43.4655 33.8444L43.6305 33.6328L44.0004 33.0151L44.3759 32.306L44.5807 31.8485L44.8709 31.1451L45.0359 30.7276L45.3204 29.6124L45.4456 28.989L45.4855 28.4171L45.531 27.6737L45.5708 26.3012L45.531 24.7685L45.4855 22.9842V22.4409L45.4456 22.3208L45.2408 22.235L44.6206 22.1092L43.6305 21.8175L42.7201 21.4858L41.8552 21.1141L40.7172 20.4907L40.3019 20.1991L40.2222 20.159V20.079L40.0572 19.9932L39.8068 19.8274L39.3971 19.4556L39.0671 19.164L38.5266 18.6264V18.5921L38.4071 18.552L38.1169 18.2203L37.9064 17.9687L37.7414 17.557L37.7015 17.3454L37.5365 17.3911L37.2065 17.8029L36.7911 18.4663L36.3416 18.9638L35.8864 19.4213L35.4312 19.7988L35.141 20.0447H35.0614V20.1305L34.4411 20.5422L33.8209 20.9197L33.1609 21.2514L32.5008 21.5373L31.7156 21.829L30.6402 22.1206L29.7355 22.3265L28.9503 22.4523L28.9048 22.4924H28.4097L28.3699 24.2366H28.3301V21.2056L28.4097 21.1656L29.2803 21.0855L30.515 20.8739L31.653 20.5823L32.791 20.1705L33.6161 19.7988L34.4013 19.3813L35.2264 18.8837L35.3459 18.8437V18.7579L35.7214 18.512L36.2164 18.1346L36.7513 17.677L37.2918 17.1795L37.5593 16.9336Z" fill="#FFDAAC"/>
<path d="M37.5592 71.5891L37.7243 71.6749L37.9746 72.0466L38.3445 72.4641L38.5493 72.71L39.0045 73.0875L39.4597 73.4192L40.2449 73.8309L41.1951 74.1626L41.8552 74.2885L42.2649 74.3285L43.5906 74.3742L43.7955 74.5401L44.0003 74.826L44.2109 75.0376L44.4954 75.3693L44.6604 75.5752L44.8709 75.7811V75.8669H44.9506L45.1554 76.1585L45.3659 76.3644L45.6561 76.6961L45.8211 76.902L46.026 77.1136L46.3161 77.4853L46.521 77.6912L47.09 78.3546V78.4404H47.1697V78.5204H47.255V78.6062H47.3347V78.6863H47.4428L47.3973 78.9379L46.9022 80.7623L46.8226 82.3006L46.777 82.3406H45.3773L44.9221 81.1397L44.5067 80.2647L43.9719 79.3497L43.437 78.5662L42.777 77.6912L42.4014 77.2337L41.9064 76.6618L40.7684 75.4151L40.1084 74.7517L40.023 74.7116V74.6373H39.9434V74.5572L39.7783 74.4715L39.2093 73.8996L38.7997 73.5221L38.4696 73.2304L38.0543 72.8587L37.7641 72.6529L37.5592 72.4469L37.269 72.1953L37.3089 72.0295L37.4739 71.7378H37.5592V71.5891Z" fill="#FCB649"/>
<path d="M28.0622 45.2766L28.3524 45.3224L28.7223 45.5683L29.1376 45.8199L29.2173 45.9858L29.1774 46.0658L28.4321 46.2774L27.0721 46.7292L25.9341 47.0609L23.2086 47.8959L22.5088 48.1017L21.8373 48.3305L21.2683 48.5822L20.7278 48.9139L20.3181 49.2455L19.9027 49.6173L19.3679 50.3264L19.0379 50.9498L18.7875 51.5731L18.5428 52.6082L18.2128 54.5584L17.9624 56.011L17.1374 61.0722V61.4039H16.7675L15.897 61.198L15.9368 60.7863L17.1374 52.4024L17.3422 51.0298L17.5072 50.4065L17.8373 49.7031L18.2128 49.2055L18.5827 48.788L19.0777 48.4163L19.7377 48.0846L20.4831 47.7929L23.4533 46.7979L24.1589 46.592L24.5287 46.4662L24.8189 46.3404L25.5188 46.1344L26.5088 45.8028L26.9242 45.6369L28.0622 45.2766Z" fill="#FEDA74"/>
<path d="M42.8452 43.9497L43.3402 44.0355L55.3575 48.0387L56.0176 48.3704L56.4329 48.6621L56.8426 49.0338L57.1727 49.4055L57.5482 50.0289L57.7929 50.6923L57.9579 51.5672L58.7431 57.086V57.4806L57.6677 57.8523L57.5027 57.8123L57.3377 57.8523L57.4628 57.6464L57.3832 56.943L57.0475 54.9071L56.7174 52.997L56.4329 51.6302L56.1029 50.8009L55.7274 50.1776L55.5624 49.966V49.8859H55.4827L55.2324 49.5943V49.5142H55.1527V49.4284L54.9877 49.3483L54.4927 48.9308L53.9237 48.5991L53.3034 48.3075L52.5182 48.0158L51.0331 47.564L50.0431 47.2724L48.723 46.8949L47.6476 46.5632L46.7372 46.3173L45.7073 45.9856L44.5693 45.6082L44.0003 45.3222L43.6304 44.9448L43.4256 44.533L43.0956 44.2413L42.8452 44.0355V43.9497Z" fill="#FFEFDD"/>
<path d="M24.2616 48.7251L24.7567 48.7651L25.172 48.8909L25.5874 49.1826L25.9174 49.5543L26.0825 49.9661L26.1223 50.0919V51.087L25.9174 51.7103L25.6273 52.2822H25.5419L25.5021 52.4481H25.4224L25.3371 52.654H25.2517L25.1664 52.8198L24.8762 53.1515L24.3811 53.529L23.6813 53.9007L23.061 54.0666H22.2758L21.7808 53.9007L21.3654 53.609L21.1208 53.3174L20.9159 52.9056L20.8306 52.6139V51.9906L20.9956 51.2872L21.3256 50.6238L21.6158 50.2063L21.9856 49.7888L22.401 49.4171L22.7709 49.1712L23.1862 49.0454V48.9596L23.6813 48.7937L24.2616 48.7251Z" fill="#FDFDFC"/>
<path d="M29.5076 22.3723L29.6328 22.4124L29.6726 26.896L29.7125 28.0397L29.7978 29.0406L30.0027 30.1843L30.2075 30.9278L30.418 31.5512L30.583 31.9686L30.9131 32.7578L31.3683 33.5871L31.6983 34.0846L31.8633 34.2905V34.4163H31.943L32.1933 34.748L32.3128 34.8738V34.9539H32.3982V35.0397H32.4835V35.1198L32.6884 35.2055L33.1435 35.623L33.2232 35.663V35.7488L33.3882 35.8346L33.8434 36.1263L33.8833 36.2464L33.6784 36.2063L32.9785 35.8346L32.4835 35.5029L31.943 35.0855L31.374 34.5879L30.805 34.016L30.4351 33.5585L29.9799 32.9351L29.6499 32.3632L29.1549 31.4139L28.7793 30.4131L28.5346 29.418L28.4095 28.5487L28.3696 28.0054V24.231L28.4095 22.4467H29.0695L29.5076 22.3723Z" fill="#FFEFDD"/>
<path d="M36.0624 14.2744H36.1876L36.1022 14.526L35.7324 15.0236L35.3568 15.4411L34.9073 15.8929L34.3383 16.3504L33.7181 16.7678L32.9784 17.1796L32.3127 17.5113L31.2429 17.9288L30.3724 18.1804L29.3425 18.3863L27.9769 18.5521L26.8389 18.6322L26.4292 18.758L26.0537 19.0097L25.8488 19.3814L25.7692 19.5472L25.7236 19.1755V16.7278H25.7692L25.809 18.0946L25.974 17.7229L26.304 17.4312L26.6739 17.3054L28.4491 17.0595L30.1049 16.8079L31.095 16.602L32.233 16.3103L33.4279 15.8929L34.2985 15.5211L35.1235 15.0636L35.6584 14.6919L35.8632 14.486L36.0624 14.2744Z" fill="#30363D"/>
<path d="M39.0042 14.3601L39.1692 14.4402V14.526L39.4594 14.606L39.9544 15.0235L40.5234 15.3552L41.0924 15.6469L41.6614 15.8527L42.0313 16.0186L42.9019 16.3103L43.9716 16.6019L45.6274 16.9336L46.8223 17.0995L47.4823 17.1795L48.5577 17.3454L49.1267 17.557L49.3372 17.7228L49.3771 18.0145L49.4169 16.8707H49.4567V19.3985L49.3771 19.4842L49.2121 19.1068L48.8821 18.8208L48.6772 18.695L48.2618 18.6092L46.6914 18.4892L45.3315 18.2776L44.4609 18.0717L43.2262 17.6542L42.2304 17.2024L41.2859 16.6591L40.7169 16.2473L40.2617 15.8699L39.7268 15.3723L39.3513 14.9606L38.9814 14.4173L39.0042 14.3601Z" fill="#30363D"/>
<path d="M43.3003 44.0754L43.5905 44.1155L55.3574 48.0615L56.0175 48.3932L56.4328 48.6849L56.8425 49.0566L57.1725 49.4283L57.5481 50.0517L57.7927 50.7151L57.9578 51.5901L58.743 57.1088V57.4805L57.6676 57.8523L57.5026 57.8122L57.3376 57.8523L57.4627 57.6464L57.5481 57.1488L57.7529 57.1088L57.9976 57.023L58.0431 56.943V56.068L57.9976 55.6962L57.9578 55.6104L57.9179 54.9471L57.6676 53.2886L57.4229 52.0018L57.2124 51.0868L57.0075 50.5149L56.8823 50.4749L56.5978 50.0574L56.5523 49.8915L56.3076 49.8058L56.1028 49.6857L56.0573 49.5198L55.7671 49.434L55.6476 49.3082L55.6874 49.2282H55.8126L55.6476 48.8965L55.1924 48.6048L54.5324 48.3131L53.7073 48.0215L53.1383 47.7355L52.4384 47.4839L50.868 46.9463L48.9277 46.323L48.1027 46.0313L47.3971 45.8254L46.7769 45.6138L45.9518 45.3679L45.252 45.1163L44.4667 44.8303L43.9319 44.5787L43.5165 44.3728L43.3117 44.1612L43.3003 44.0754Z" fill="#FEF5E0"/>
<path d="M36.8989 2.69922H38.2588L38.9246 2.81933L39.7041 3.11098L40.4495 3.52847L40.9047 3.86016L41.3997 4.31768L41.7696 4.72944L42.0598 5.14691L42.2248 5.39283V5.47861L41.8549 5.43858L41.4851 5.27272L40.7397 4.85526L39.9545 4.48351L39.0896 4.19186L38.4296 4.06604L38.0142 4.02601H37.064L36.0739 4.19186L35.0838 4.52355L34.2986 4.89527L33.6784 5.31276L33.2232 5.43858H32.9785L33.0582 5.27272L33.5532 4.56359L34.2588 3.86016L34.9188 3.40265L35.539 3.07094L36.2787 2.81933L36.8989 2.69922Z" fill="#30363D"/>
<path d="M45.3203 68.2722L45.656 68.4381L45.9007 68.644L46.4697 69.0614L57.3831 76.353L57.9521 76.7248H58.0375L58.322 76.2672L58.652 75.7697L59.3576 74.7346L59.5226 74.6488L59.5624 74.8146L59.3576 75.1521L59.2722 75.3179H59.1926L59.1072 75.4837L59.0275 75.5238L58.9877 75.7697L58.9422 75.8555H59.0275L59.1527 76.1014H59.0674V76.353L58.8227 76.5589H58.7374V76.6447L58.2537 76.9249L58.0887 77.0907H57.7189L57.3888 76.965L56.9735 76.6733L56.7231 76.5074L56.3931 76.3416L55.8241 75.9241L55.5737 75.7583L55.3689 75.7182L54.8738 75.3465L54.2138 74.889L52.962 74.0655L52.5466 73.7738L52.0118 73.4421L51.6021 73.1505L51.2265 72.9445L51.3119 72.8588H51.1867L51.0615 72.8187L51.0217 72.6929L50.5665 72.407L50.2763 72.1954L50.2365 72.1553L49.7813 71.9037L49.7187 71.7779L49.3033 71.4862L49.1383 71.3604L48.8083 71.1545V71.0688L48.6035 71.0287L48.3531 70.8229L48.2336 70.7828L48.1482 70.697H48.0231L47.7784 70.4454L47.528 70.2796H47.4427L47.3972 70.1995L47.0672 69.9078H46.942L46.9021 69.742L46.6575 69.6619L46.5721 69.5761L46.2421 69.3302L45.8722 69.0386L45.4171 68.581L45.3317 68.4152L45.3203 68.2722Z" fill="#FEF5E0"/>
<path d="M58.8679 64.8293H58.993L59.0727 64.9094H59.1581L59.2775 65.3669H59.3913L59.4312 65.447L59.5165 66.0704L59.636 66.5279L59.966 66.7337V66.8195L60.2562 66.7795L60.3018 66.7337H60.5066L60.5464 66.7795L60.8764 66.8195V66.9453L61.0016 67.3171L61.0414 67.523H61.0983L61.178 67.9805H61.0983L61.013 68.0663L60.9732 68.1863L61.0528 68.438V68.5638L61.0983 68.6439L60.7683 68.7697L60.4781 68.8955L60.2733 68.9755L60.2278 69.2272L60.1481 69.4331L60.1879 70.4282L60.2278 71.0001L60.2733 71.0401L60.353 71.9494L60.3928 72.0752V72.8644L60.3131 72.9902V72.8644H60.2278V73.2819L60.2733 73.362H60.353V73.0703L60.4781 73.2361L60.518 73.362V73.9052L60.353 73.9453V74.4028L60.2733 74.2369L59.9831 72.5213L59.5677 70.0336L59.4027 69.1185L58.7825 65.487L58.7427 64.9151L58.8679 64.8293Z" fill="#FFF0DE"/>
<path d="M35.7041 46.689L35.9089 46.729L36.9844 47.3523L37.9289 47.9242L37.9744 48.0501L37.3542 49.0852L37.1892 49.3769L36.899 49.8344L36.7738 50.0803L36.6942 50.2061L36.4836 50.1661L35.7439 49.7486L34.6059 49.0451L34.4409 48.9594L34.4808 48.7535L34.8108 48.2159L35.3058 47.3867L35.7041 46.689Z" fill="#040404"/>
<path d="M30.253 67.0254L30.3326 67.0654L30.2928 67.277L30.0424 68.1863L29.9229 68.4379L29.7579 68.7296H29.6726L29.6327 68.8497L29.0637 69.2272L28.7337 69.353L28.324 69.6389L27.7835 70.0564H27.7038V70.1365L27.0836 70.594L26.5431 70.9714L25.883 71.4232L24.893 72.0923L24.5629 72.3382L24.4833 72.424H24.3979L24.2329 72.5899L24.1931 72.5441L24.1077 72.6699H23.9882L23.9029 72.8358H23.8232L23.6127 73.0874L23.4875 73.0417L23.4079 73.1675V73.0874H23.3225L23.2827 73.2933L22.6625 73.7108L22.378 73.8766L21.7122 74.2884L21.1432 74.6601L20.0052 75.4093H19.9199V75.4951L19.2997 75.8668L18.6852 76.2786L18.23 76.616L17.9398 76.7818L17.8146 76.7361L17.4447 76.9019H17.3594V76.9877H17.2854V76.9248H16.9554L16.6254 76.8447L16.21 76.3872L16.0848 76.4273L15.9653 76.3472L16.0052 76.1356L16.1303 75.9698V75.8897L16.5002 75.8497L16.705 76.0555L17.0351 76.5531L17.1602 76.759L17.3651 76.6789L18.9754 75.598L20.7506 74.3971L22.5714 73.1903L24.3467 71.9894L26.1618 70.7827L27.9371 69.5817L28.8873 68.9584L29.2572 68.6667L29.4677 68.4208L29.8774 67.5058L29.9229 67.38L30.2074 67.2542L30.253 67.0254Z" fill="#FEF4DE"/>
<path d="M59.0731 60.1343H59.1584L59.1983 60.3459L59.3235 61.2552L58.9934 61.421L58.0432 61.7985L57.5482 61.9643L57.1726 62.1302L56.6036 62.336L56.1086 62.5419L55.6079 62.7078L55.1584 62.9194L54.8284 63.0395H54.6178L54.413 62.0043L54.3276 61.7527L54.4528 61.6727L55.0218 61.5068L55.3518 61.381L56.0972 61.1351L56.5069 60.9692L57.0418 60.8034L58.1798 60.4259L58.965 60.18L59.0731 60.1343Z" fill="#F58E82"/>
<path d="M28.9275 11.5808H29.4225L29.7582 11.7467L30.0427 12.0784L30.0882 12.2042V12.7761L29.9232 13.1935L29.6728 13.5653L29.3428 13.897L28.7738 14.1886L28.6543 14.2287H28.0853L27.6756 14.0228L27.4651 13.6911L27.4253 13.5653V13.0277L27.5903 12.6102L27.9203 12.1527L28.2503 11.861L28.7454 11.6151L28.9275 11.5808Z" fill="#FDFBF8"/>
<path d="M33.6387 39.1344L34.0085 39.2202L35.0384 39.5119L35.909 39.6777L36.6316 39.752L37.2518 39.7978H37.9517L38.9873 39.712L39.9773 39.5462L40.8024 39.3403L41.4226 39.1287H41.5876V41.9881L41.6274 42.7373L41.7925 43.1948L42.0428 43.4808L42.6118 43.7724L43.1125 43.9383V43.9783H42.8906L43.1012 44.1899L43.2206 44.4816L43.141 44.5616L43.1012 44.3958L42.8508 44.3157L42.0258 43.8582L41.6957 43.5665L41.4454 43.2349L41.2405 42.8174L41.1153 41.8223V40.4097L41.1552 40.1638V39.752L41.0357 39.6262H40.7057L40.0456 39.7978L39.0499 40.0037L38.6402 40.0837L37.9346 40.1695H37.0697L36.1195 40.0437L34.8791 39.7978L34.6743 39.712L34.3044 39.5862L34.054 39.6262L33.9744 39.7978V41.5821L33.889 41.5363L33.8492 41.2046L33.8094 41.0388V40.3239L33.7639 40.2381V40.6556L33.724 40.9015H33.6842L33.6387 39.1344Z" fill="#FEE7BF"/>
<path d="M25.502 23.905L25.7068 23.945L25.7523 28.3886L25.5873 28.3029L25.1321 27.8911L24.7566 27.3478L24.5517 26.936L24.4266 26.4785L24.3867 26.1468V24.7343L24.5119 24.4426L24.8021 24.1567L25.0866 23.9908L25.502 23.905Z" fill="#FDE0C2"/>
<path d="M49.5363 23.905L49.9062 23.945L50.3215 24.1109L50.6914 24.4426L50.7711 24.5684L50.8166 24.7743V25.8552L50.7312 26.6043L50.4866 27.2677L50.1964 27.7252L49.8208 28.137L49.5363 28.3486L49.4111 28.3029L49.451 27.8453L49.4908 23.945L49.5363 23.905Z" fill="#FEE5BC"/>
<path d="M39.7896 52.2537L40.1594 52.3337L43.0499 54.0494L44.1879 54.7128L45.178 55.2847L45.7982 55.6621L46.5038 56.0739L46.9988 56.3255V56.4056L47.2036 56.4514V56.5314L47.4085 56.6172L47.8637 56.8631L48.114 56.9889V57.069L48.3189 57.1548L48.5692 57.2806L49.0187 57.5722L49.5138 57.8182V57.9039L49.7243 57.984L49.8893 58.1498L50.3445 59.0249L50.299 59.3108L50.1795 59.1907V59.0649L49.9291 58.9391L49.6389 58.4816L49.3089 58.1899L46.4184 56.4742L45.508 55.9023L44.4383 55.2389L43.9433 54.9072L43.5279 54.6156L43.0727 54.3239L42.2875 53.9922H42.003L41.9574 54.118L42.168 54.1581V54.2839L42.333 54.3697L42.5777 54.7014L42.828 54.9072V55.1589L42.663 55.0731L42.333 54.6613L41.9176 54.2439L41.2974 53.7863L40.5975 53.4547L40.4724 53.3746L40.8422 53.2888L40.8024 53.0829H40.7227L40.5975 52.9571L40.1822 52.6254V52.5396L39.9773 52.4595L39.7896 52.2537Z" fill="#F9BA44"/>
<path d="M39.5845 55.948L39.8291 55.988L40.2047 56.2797L40.4095 56.4856L40.6542 56.7772L40.9444 57.2748L41.5134 58.7674L42.0084 59.9112L42.7197 61.4839L43.4651 63.1996L44.2901 65.1097L44.9501 66.6481V66.8139H44.7453L44.6201 66.4822L44.3754 66.0647L44.2104 65.693L44.1251 65.5272V65.4013H44.0284L43.6585 64.6521L43.2033 63.7028L42.7936 62.7878L42.4181 61.9586L41.8832 60.7119L41.3142 59.2993L41.2687 59.1792L41.1891 59.0934L41.1435 58.9676L41.024 58.8475L40.9785 58.5558L40.859 58.43L40.8135 58.2241H40.7338L40.4437 57.3491L40.1535 56.8916L40.1136 56.7715H40.0454L39.7552 56.3541L39.5902 56.1081L39.5845 55.948Z" fill="#FEF4DD"/>
<path d="M38.9077 55.8623H38.9475L38.9874 60.1801L39.0272 66.6539L39.0727 67.3973L39.3572 68.2323L39.6872 68.9757L39.9774 69.4333L40.188 69.6849V69.7649H40.2676L40.353 69.9708H40.4326L40.5578 70.1367V70.2225H40.6375L40.8878 70.5141L41.5081 70.9717V71.0517L41.7129 71.0917L42.3331 71.3434L43.363 71.5492L43.858 71.5893V71.6751H45.0984L45.3886 71.7551V72.0068L45.3033 72.0925L45.1838 72.0468L45.1383 72.1326L44.7684 71.8809L44.3587 71.7551L42.2477 71.7151L41.5081 71.5492L40.848 71.2176L40.4725 70.9259L39.9376 70.3883L39.5222 69.7649L39.2377 69.1416L39.1125 68.8499L38.9874 68.3982L38.9077 67.6089V55.8623Z" fill="#FED29A"/>
<path d="M36.2388 55.8623H36.2786V67.2315L36.2388 68.0207L36.0738 68.7699L35.8234 69.4333L35.4934 70.0623L35.1634 70.4741L34.5944 71.046L34.0254 71.3777L33.5304 71.5836L32.9101 71.7094H30.9414V71.6694L31.7665 71.6293L32.3867 71.5436L33.0069 71.3376L33.3767 71.1718L33.7466 70.9659L34.2018 70.5885L34.657 70.131L35.0268 69.6792L35.3569 69.1816L35.6072 68.7241L35.8974 68.3066L36.1819 67.4374L36.2274 67.0599V58.1842L36.2388 55.8623Z" fill="#FFD7A3"/>
<path d="M23.2314 66.4021L23.4363 66.4479L24.1419 66.7796L25.0864 67.2313L25.5416 67.483L25.9171 67.6889L25.8716 67.8147L25.6668 67.9405L24.5288 68.7297L24.2784 68.8956H24.1589L23.8289 68.2722L23.6184 67.7003L23.4534 67.2886L23.2883 66.5794L23.2314 66.4021Z" fill="#F58D81"/>
<path d="M36.0627 55.7649H36.2278V58.1726L36.1879 66.7223L36.0229 66.768L35.9774 66.5164L35.8977 64.7321L35.8579 62.6161V59.6709L35.8977 57.3834V55.885L36.0627 55.7649Z" fill="#FEEAC3"/>
<path d="M25.6269 81.1797H25.7066V83.5874L25.6668 83.6674H23.8517L23.2314 83.6274L23.3965 83.4615L23.9313 83.0441L24.7564 82.2148L25.1319 81.7573L25.5018 81.3455L25.6269 81.1797Z" fill="#EA7424"/>
<path d="M34.3553 53.3289H34.6854L34.5659 53.4547L33.9001 53.7864L33.5303 54.038L32.9954 54.4955L32.5004 55.0674L32.0452 55.8166L31.6754 56.6058L31.4648 57.2234L31.2201 57.7953L31.095 58.087L30.93 58.4587L30.7251 58.9563L30.3951 59.7455L30.1049 60.3688L29.9399 60.7806L29.7351 61.1981L29.57 61.6098L28.8645 63.1882L28.6596 63.7315L28.4946 64.0632L28.0394 65.0984L27.8346 65.6359L27.6241 65.6817L27.4192 65.5559L27.3794 65.39L27.5842 65.3042L27.9541 64.6409L28.1646 64.2691L28.3695 63.7315L28.7848 62.9423L29.0295 62.2332L29.2343 61.8214L29.4449 61.3239L29.57 60.9922L29.8545 60.4203L29.9797 60.1286L30.0651 59.837L30.3723 59.1965L30.5829 58.7389L30.7479 58.3214L31.0779 57.6581L31.2827 57.0347L31.4478 56.663L31.6981 56.0396L31.9826 55.4677L32.398 54.8501L32.563 54.6385L32.893 54.3468L33.058 54.1409L33.7181 53.6434L34.2131 53.3975L34.3553 53.3289Z" fill="#FBB940"/>
<path d="M42.145 74.3743L43.6301 74.4143L43.835 74.6202L44 74.8261L44.2105 75.0377L44.495 75.3694L44.66 75.5753L44.8705 75.7811V75.8669H44.9502L45.155 76.1586L45.3656 76.3645L45.6557 76.6961L45.8208 76.902L46.0256 77.1136L46.3158 77.4854L46.5206 77.6913L47.0896 78.3546V78.4404H47.1693V78.5205H47.2547V78.6063H47.3343V78.6863H47.4424L47.3969 78.938L46.9019 80.7623L46.8222 82.3007L46.7767 82.3407H45.3769V82.3007L46.2816 82.2549V82.1348L46.4922 81.969L46.6117 81.4714V80.8996L46.7369 80.1561L46.9019 79.5842L47.0669 79.1667V78.8808L46.9872 78.6692L46.7767 78.4233L46.1167 77.7599L45.872 77.3824L45.6216 77.0507L45.2916 76.7648L44.9217 76.3473L44.5917 75.8498V75.7811H44.5064V75.7011H44.4267V75.6153L44.3015 75.5753L44.0967 75.3293V75.2436H44.0284L43.7837 74.9118L43.4537 74.706L43.1635 74.5802L42.3783 74.4944L42.1735 74.4543L42.145 74.3743Z" fill="#F9BA42"/>
<path d="M28.5174 28.8862L28.6824 28.9663L28.8873 29.8413L29.0124 30.2988L29.1774 30.7963V30.9622H29.2344L29.3595 31.374L29.4847 31.6656V31.7457H29.5701L29.6497 31.9916L29.8546 32.0774L30.0196 32.4091L30.1448 32.4891L30.3098 32.7808L30.4349 32.9066V32.9867H30.5146L30.6796 33.2783L30.93 33.61L31.1348 33.8159L31.2202 33.9875L31.3453 34.0275L31.6298 34.3592L31.7152 34.5251L31.8802 34.6051L32.2102 34.8968L32.7053 35.3543L33.0353 35.6059L33.1605 35.726L33.2401 35.7718V35.8518L33.5303 35.8919L33.8603 36.1435V36.2236L33.6555 36.1836L32.9556 35.8118L32.4606 35.4801L31.92 35.0626L31.351 34.5651L30.782 33.9932L30.4122 33.5357L29.957 32.9123L29.627 32.3405L29.1319 31.3911L28.7564 30.3903L28.5117 29.3952L28.5174 28.8862Z" fill="#FEF3DB"/>
<path d="M25.5019 23.905L25.7067 23.945L25.7522 28.3886L25.5872 28.3029L25.132 27.8911L24.7565 27.3478L24.5516 26.936V26.6444L24.637 26.6044L24.6768 26.2726H24.7166L24.802 26.8102L24.967 27.1819L25.132 27.3936H25.3368L25.3767 27.1019V24.8143L25.297 24.3568H25.0068L24.802 24.5227L24.6825 24.883V26.1697L24.5971 26.0896L24.5573 25.1746V24.8029L24.4321 24.637L24.5175 24.4255L24.8077 24.1395L25.0922 23.9737L25.5019 23.905Z" fill="#FEE5BA"/>
<path d="M42.3214 50.4692L42.5661 50.5093L42.9416 50.7151L43.3513 50.9668L43.9203 51.2527L44.1649 51.4643L44.7055 51.7102L45.0355 51.9619L45.7752 52.3336V52.4194L45.9858 52.4994L46.1906 52.6253L46.3954 52.6653L46.5206 52.7911L46.8905 53.0427L47.2205 53.1629L47.761 53.4946L48.33 53.7862L48.9901 54.2037L49.5591 54.5354L50.0939 54.8671L51.2319 55.5305L51.6473 55.7764L51.7725 55.9022L51.8123 56.1138L51.6871 56.0681H51.5677L50.9474 55.6963L48.8421 54.4496L45.8264 52.6653L44.8364 52.0934L44.1308 51.6759L42.2759 50.5321L42.3214 50.4692Z" fill="#FEE3B7"/>
<path d="M28.3926 22.4524L28.4324 22.5382H28.6657L28.7852 22.6583L28.7055 23.4075L28.7453 25.2775V26.5586L28.7055 27.2677V28.5945L28.6657 28.7203L28.5007 28.7603V28.5545H28.4153L28.3755 28.0112V24.2367L28.3926 22.4524Z" fill="#FEF3D9"/>
<path d="M34.9244 56.3997L34.9642 56.5655L34.7593 56.983L34.5488 57.6864L34.3042 58.7273L34.0538 59.5165L33.9286 59.8882L33.4336 60.8433L33.2686 61.255L32.9386 61.7983L32.8589 61.7525V61.4209L32.9386 61.3808L33.0637 60.969L33.2287 60.5916L33.3141 60.5516L33.2287 60.3857L33.3539 60.1798L33.3937 59.8482H33.4791V59.7681H33.5588L33.5189 59.6023L33.5588 59.4364H33.6441L33.7238 59.0647L33.7636 58.8588L33.8489 58.5671L33.8888 58.2354L34.2188 57.4062L34.5488 56.7828L34.7992 56.4912L34.9244 56.3997Z" fill="#FEF6E0"/>
<path d="M54.4923 70.8457L54.6573 70.9258L55.3173 71.4233L56.4553 72.1725L58.9305 73.831L59.3857 74.2084L59.5507 74.4543L59.7157 74.5401V74.6373L59.3857 74.5973L57.6104 73.3906L55.9034 72.2754L54.6231 71.4005L54.5776 71.1945L54.4126 71.1088V70.9029L54.4923 70.8457Z" fill="#FEE7BF"/>
<path d="M49.946 24.4026L50.1964 24.4426L50.2362 24.5684H50.3216L50.4411 24.8201L50.4866 25.1518V26.0268L50.4013 26.5643L50.2761 27.0676L50.0712 27.3535L49.8664 27.4393L49.781 27.3993L49.7412 27.0218L49.781 24.6142L49.8664 24.4483L49.946 24.4026Z" fill="#FDE0C2"/>
<path d="M37.559 71.5891L37.724 71.6749L37.9744 72.0466L38.3443 72.4641L38.5491 72.71L39.0043 73.0875L39.4595 73.4192L40.2846 73.8767V73.9968L39.9147 74.0826L39.5847 73.9968L39.3741 73.9567L39.0896 73.7909L38.6344 73.4192L38.4296 73.2076L38.0142 72.8358L37.724 72.63L37.5192 72.4241L37.229 72.1725L37.2688 72.0066L37.4339 71.7149H37.5192L37.559 71.5891Z" fill="#FCBB43"/>
<path d="M18.5656 64.6179L18.9355 64.658L20.3807 65.1612L20.4661 65.2813L20.5856 66.4251L20.8359 67.6318L21.0863 68.421V68.5411L20.8359 68.461L20.7108 68.2552L20.7506 67.9635H20.6994L20.5344 67.506L20.4092 67.0084L20.3295 66.8426L20.1304 66.0591L19.9654 65.5215L19.6353 65.2298L19.0948 65.104L18.6851 64.8981L18.3949 64.8181L18.3096 64.6923L18.5656 64.6179Z" fill="#FEE7BE"/>
<path d="M20.5457 71.0115L20.7108 71.0515L20.8359 71.0915L20.7961 71.2174L18.9753 72.4241L17.2 73.625L16.062 74.3742L15.8572 74.4943L15.6523 74.4543L15.6922 74.2884L16.0222 74.0425L16.4376 73.7909L16.8472 73.4992L17.3024 73.2075L17.7975 72.8758L18.008 72.71L18.2925 72.5442L18.7477 72.2582L19.1176 72.0066L19.5329 71.7149L20.2783 71.2174L20.5457 71.0115Z" fill="#FEE7BF"/>
<path d="M59.0729 60.1343H59.1582L59.198 60.3459L59.3232 61.2552L58.9932 61.421L58.2478 61.7127L58.0828 61.6727L58.208 61.5468L58.0828 61.2552L58.043 61.0493V60.4774L58.9477 60.1857L59.0729 60.1343Z" fill="#FFD8A9"/>
<path d="M57.4228 57.4807H57.5024V57.7323L57.4228 57.8124L57.548 57.7724L57.5024 57.8982L56.0572 58.3957L54.2819 58.9676L53.4569 59.2593L53.2918 59.1792L52.8765 58.3443V58.2242L53.087 58.2642V58.39L53.252 58.4701L53.417 58.7217L53.5422 59.0534L53.747 58.9676V58.8876L54.0372 58.8475L54.5323 58.5959L55.3175 58.3042L56.4555 57.8925L56.7457 57.7667L57.3659 57.515L57.4228 57.4807Z" fill="#FEE7BF"/>
<path d="M54.0373 68.604L54.0772 68.7698L54.117 69.0615L54.1568 69.7649L54.3674 70.8458L54.4072 71.0917L54.612 71.1775L54.6575 71.3433L54.447 71.2576L53.8268 70.8458L53.2578 70.4283L53.2976 70.2225L53.713 69.4333L54.0373 68.604Z" fill="#FDD7A8"/>
<path d="M21.1265 68.9185L21.2915 68.9585L21.7012 69.8335L21.9516 70.2853V70.4111L21.2062 70.9086L20.9217 71.1202L20.751 71.0345L20.9217 70.331L21.0013 70.0394L21.0412 69.5818V69.0443L21.1265 68.9185Z" fill="#FFD8A8"/>
<path d="M41.7526 35.8574L41.9176 35.8975V35.9832L41.2974 36.3149L40.4723 36.6466L39.4823 36.9383L38.3443 37.1442H37.4339V37.0641L37.3144 37.1041L36.569 37.0641L36.4438 37.0183V36.9383L36.2788 36.8983H36.6316L36.8364 36.9783H37.5818L38.2419 36.8525L38.6572 36.7724L39.3173 36.6466L40.2675 36.395L40.7625 36.2292L41.0527 36.1091L41.4624 35.9432L41.7526 35.8574Z" fill="#FEE8BF"/>
<path d="M30.7481 8.96143H30.9416L31.0668 9.21306V9.58478L30.8164 9.96223L30.4864 10.2081L30.3612 10.2482H30.0312L29.8264 10.1281L29.7012 9.75064V9.63053L29.9914 9.37891L30.7481 8.96143Z" fill="#FDF8F1"/>
<path d="M24.1136 78.5205L24.2388 78.5663L24.1136 78.7321H24.2388L24.1591 78.938L23.6584 79.4756L23.2885 79.9331L22.7935 80.4707L22.5033 80.8024L22.1733 81.1398L21.6783 81.5115L21.0182 81.8832L20.728 81.9233L20.893 81.6774L21.3482 81.3857L22.1733 80.7623L22.6285 80.2248L22.9187 79.9331L23.2089 79.6014L23.6186 79.1439L23.9087 78.7721L24.1136 78.5205Z" fill="#FEE7BF"/>
<path d="M29.9229 72.0925H30.0026L29.9628 72.2584L29.4222 72.8303L29.0524 73.2878L28.5573 73.8254L28.1875 74.2829L27.647 74.8548L27.2771 75.3123L26.8674 75.7641L26.8219 75.8498L26.452 75.9757L26.3667 75.8899L26.5772 75.7641L26.6569 75.8098L26.6171 75.644L26.9471 75.3123L27.3169 74.809L27.5275 74.5631H27.6071L27.6925 74.3973L27.8973 74.1914H27.977L28.0623 74.0255L28.3923 73.568H28.4777L28.5573 73.4022L28.9272 73.0247L29.1776 72.9046L29.3027 72.693L29.4678 72.4071L29.7579 72.1154L29.9229 72.0925Z" fill="#FEE6BD"/>
<path d="M29.1379 45.8198L29.5078 46.0257L29.9231 46.2773L30.293 46.4832L30.5377 46.609V46.6891L30.7482 46.7749L31.4082 47.1466L31.8634 47.4383V47.5184H31.9431V47.6041L31.8179 47.6842H31.5107L30.4808 47.0208L29.4452 46.3974L29.2005 46.2773L28.8307 46.2316L28.7852 46.1515L28.9957 46.0657H29.2005L29.1379 45.8198Z" fill="#FABB44"/>
<path d="M60.3134 79.5613L60.3931 79.6414L60.4386 80.0588L60.4784 80.1847L60.1883 80.5564L59.8184 80.9739L59.4429 81.3055L58.743 81.7574L57.9578 82.0891H57.7529V82.009L57.9578 81.8431L58.1626 81.7574L58.2878 81.6372L58.6576 81.4256L59.1584 81.0539L59.568 80.7222L59.7729 80.4306H59.8582L59.9379 80.2647L60.1883 79.9731L60.2736 79.8072L60.3134 79.5613Z" fill="#FEE8C1"/>
<path d="M58.4926 64.4119L58.5779 64.4519V64.5777L58.7031 64.6578V64.8694L58.4926 64.8293L57.6277 65.1153L57.2977 65.2411L56.6774 65.447L55.9776 65.6986L55.8922 65.7387H55.437V65.6586L55.5622 65.5328L57.6277 64.7436L58.4926 64.4119Z" fill="#FEE6BE"/>
<path d="M33.7868 58.4758L33.8664 58.6017H33.7868V58.6817L33.8664 58.7275H33.7868V59.0191L33.6217 59.4309H33.5364V59.7683H33.4567V59.8541H33.3714V60.1858L33.2462 60.4317V60.5976L32.9617 61.3067V61.4268H32.8365L32.7967 61.3467H32.7113L32.6317 61.6384L32.5065 61.7184V61.9301L32.3813 62.0501H32.296L32.2561 62.176L32.2163 62.0959L32.8365 60.6433L33.3714 59.4366L33.7868 58.4758Z" fill="#FDEBD3"/>
<path d="M31.7382 63.1995L31.8178 63.3253L31.778 63.5369L31.6983 63.6169V63.9086L31.5333 64.1545L31.4082 64.572L31.3683 64.7378L31.1578 64.7779V64.8636L31.2431 64.9037L31.2033 65.0696L31.0781 65.1096L31.0383 65.4012L30.8676 65.6071L30.8278 65.8187L30.7026 66.1047V66.2305L30.4978 66.2762V66.6308H30.4181L30.3726 66.7966L30.4181 66.8767L30.2531 67.1283L30.2076 67.2942L29.9629 67.3743L30.0881 67.0025L30.8676 65.2183L31.5732 63.5998L31.7382 63.1995Z" fill="#FDE5C8"/>
<path d="M37.5591 12.3013L37.6843 12.4271L37.8891 12.9246L38.0939 13.2964L38.3443 13.5079L38.2589 13.548L37.9744 13.4222H37.1494L36.9844 13.4622L37.0242 13.2163L37.1494 13.1705L37.229 12.9647L37.5591 12.3013Z" fill="#30363D"/>
<path d="M34.2988 49.0166H34.589L36.444 50.1604V50.2405L36.3188 50.3262H36.0627L35.4027 49.9087L35.0271 49.6571L34.5321 49.3712V49.2854L34.3671 49.2053L34.2988 49.0166Z" fill="#FDBB44"/>
<path d="M51.9946 79.8931L52.3645 80.139L52.7799 80.5564L53.0302 80.8481L53.1099 80.8881V80.9739H53.1952V81.054L53.4001 81.1398L53.6447 81.3056V81.3857L53.8553 81.4715L54.3503 81.7574L54.76 81.969L55.0103 82.0091L55.1355 82.1749L54.8453 82.1349L54.1853 81.8832L53.5252 81.5115L52.9562 81.054L52.4214 80.5164L52.0458 80.0589L51.9946 79.8931Z" fill="#FEE3B7"/>
<path d="M32.8134 61.2551H32.8532V61.4839L32.6484 61.9414H32.5631L32.5232 62.2331L32.1078 63.2282L31.903 63.5198L31.7778 63.4741V63.1024L32.1932 62.1473L32.4834 61.9014V61.6497L32.6484 61.564L32.6882 61.3981L32.7281 61.3181H32.8134V61.2551Z" fill="#FEF3DD"/>
<path d="M51.8864 66.1106H51.9945V66.4022L51.7897 67.2315L51.4597 68.1065L51.1695 68.7298L51.0841 68.8957L50.8793 68.8499L50.7939 68.6441L51.1695 68.1865L51.4597 67.6146L51.7442 66.6996H51.8295L51.7897 66.4537L51.8864 66.1106Z" fill="#FBB843"/>
<path d="M32.8934 35.3198H33.0186V35.3999L33.1836 35.4857L33.3884 35.6515L33.8436 35.9432L34.0086 36.0232V36.109L34.2135 36.1891L34.7085 36.3549L35.0385 36.5208L35.414 36.6866L35.3685 36.8124L34.9588 36.7267L33.9233 36.3149L33.8436 36.2291V36.1491L33.5534 35.9432L33.3486 35.8174L33.2177 35.7487V35.6687L33.0527 35.5829L32.8877 35.417L32.8934 35.3198Z" fill="#FEE7C0"/>
<path d="M14.7253 69.7249H14.7651L14.7253 70.2624L14.2302 73.6652L14.1449 74.1227L14.0652 74.3286H14.0254L14.0652 73.8311L14.6342 69.8278L14.7253 69.7249Z" fill="#FDD39B"/>
<path d="M49.5366 23.905L49.9065 23.945L49.8667 24.1567L49.7415 24.4026L49.7016 24.7743L49.6163 26.936L49.5765 27.3478H49.5366V23.905Z" fill="#FFF3E0"/>
<path d="M31.7383 63.5427L31.8635 63.5828L31.7781 63.9545L31.5733 64.452L31.4481 64.6579L31.3229 65.0354L31.0384 65.7388L30.7881 66.1563L30.623 66.1963L30.7027 66.0705L30.8677 65.573L30.9929 65.3671L31.0384 65.2012L31.2034 65.0354L31.1579 64.8695V64.7838H31.2433L31.2831 64.7037L31.3684 64.5778L31.5335 64.0803L31.6529 63.8744V63.6228L31.7383 63.5427Z" fill="#FFF7E4"/>
<path d="M38.9644 55.8223L39.2545 55.8623V55.9481L39.044 56.1139L39.1294 56.3598L39.1692 57.6866L39.1294 58.31L39.0042 58.4758L38.9644 57.904V55.8223Z" fill="#FEEAC5"/>
<path d="M26.327 75.9927L26.5319 76.0727L26.4522 76.2786L25.9572 76.8505L25.5873 77.308L25.4223 77.3881V77.2623L25.2573 77.308V77.2223L25.3768 77.0964H25.4622L25.5418 76.9306L25.7524 76.7247L26.162 76.1871L26.327 75.9927Z" fill="#FEE7BF"/>
<path d="M25.2517 77.3196L25.2915 77.3997H25.3712L25.2915 77.6112L24.7965 78.1488L24.4209 78.6063H24.3015L24.3811 78.4805H24.1763L24.4209 78.1889L24.7965 77.7771L25.081 77.3997L25.2517 77.3196Z" fill="#FEE7BF"/>
<path d="M15.5786 63.9546H15.994L16.489 64.0404V64.1204L16.7792 64.1605L16.6939 64.2463H16.5288V64.4121L16.324 64.4521L16.159 64.2463H15.9086L15.7835 64.3721H15.7038V64.4922L15.6184 64.4521L15.5786 64.4121V63.9546Z" fill="#FEF3DD"/>
<path d="M54.3216 68.2722L54.407 68.3123V68.7297L54.3671 68.9756L54.407 69.1872L54.3216 69.5189L54.2021 69.639L54.1566 69.3931H54.0769V69.0157L54.0371 68.7698L54.1168 68.4781L54.3216 68.2722Z" fill="#FEEAC3"/>
<path d="M28.3525 21.2058H28.7224L28.5176 21.5375V21.955L28.5574 22.2467V22.4125L28.9272 22.4525V22.4926H28.4322L28.3924 24.2368H28.3525V21.2058Z" fill="#FDD8A5"/>
<path d="M25.627 27.3477H25.6669L25.7067 27.5593L25.7522 28.3885L25.5872 28.3027L25.132 27.891L25.0068 27.7251L25.0467 27.5593L25.1718 27.6393V27.7423L25.5019 27.6965L25.5872 27.5764L25.627 27.3477Z" fill="#FEECCB"/>
<path d="M49.9463 24.0308L50.2365 24.0708L50.5665 24.3224L50.7713 24.5683L50.8169 24.7742V25.8551H50.7713L50.7315 25.2317L50.6519 25.1917L50.4868 24.6198L50.4413 24.454H50.3617L50.1568 24.2481L49.9918 24.168L49.9463 24.0308Z" fill="#FDE2BD"/>
<path d="M15.1404 80.1846L15.3453 80.3904L15.4249 80.5963L15.5899 80.6821L15.8801 81.0138L15.9655 81.2197L16.25 81.4256L16.2102 81.5114L16.0053 81.4713L15.8801 81.3855L15.755 81.1797L15.7151 81.0538H15.6355V80.9738L15.4704 80.888V80.8022L15.3054 80.7221V80.6364H15.2201V80.5563H15.1404L14.9697 80.3504V80.2246L15.1404 80.1846Z" fill="#FEE9C2"/>
<path d="M52.8765 58.2297L53.087 58.2698V58.3956L53.252 58.4756L53.417 58.7273L53.582 59.099L53.7072 59.1848L53.3772 59.2649L53.1667 58.9332L52.8765 58.3613V58.2297Z" fill="#FEE5BB"/>
<path d="M25.3368 52.5396V52.6654H25.2514L25.1661 52.8312L24.8759 53.1629L24.3808 53.5404L23.681 53.9121L23.0608 54.0779H22.2755L21.9854 53.9922L22.1504 53.9521L22.3154 53.9922H22.9356L23.6355 53.7863L24.341 53.4146L25.0011 52.917L25.2059 52.6253L25.3368 52.5396Z" fill="#FDDFB4"/>
<path d="M33.8832 41.9995L33.9686 42.0853V42.457L33.8832 43.0289L33.758 43.2748L33.7182 43.109L33.8036 42.9031L33.758 42.7773L33.6784 42.7372V43.109L33.5134 43.2748L33.3882 43.3149L33.5134 42.9431L33.6784 42.3198L33.8434 42.2797L33.8832 41.9995Z" fill="#FEE9C1"/>
<path d="M31.7379 63.1995L31.8176 63.3253L31.7778 63.5369L31.6981 63.6169V63.9086L31.5331 64.1545L31.4079 64.572L31.3681 64.7378L31.1576 64.8236L31.0381 64.9037L31.1576 64.532L31.7379 63.1995Z" fill="#FDE4C6"/>
<path d="M33.4737 45.8198L33.5534 45.8599L33.3884 46.0657L33.3087 46.5233L33.2234 46.6891L33.0185 46.6491L32.8535 46.5233L32.8933 46.3574L33.0982 45.9857L33.3486 45.8999L33.4737 45.8198Z" fill="#FEE7C0"/>
<path d="M60.353 74.3743H60.3929L60.4782 74.706L60.518 74.5401L60.6034 74.3743L60.683 74.5802L60.5579 74.9519H60.4782L60.5579 75.2436L60.6034 75.6153L60.683 75.7411L60.8082 76.6961V76.9249L60.7229 76.9707L60.4782 75.4723L60.353 74.6831V74.3743Z" fill="#FFF0DE"/>
<path d="M59.4426 74.6375H59.5279L59.5677 74.8033L59.3629 75.1407L59.2775 75.3066H59.1979L59.1125 75.4724L59.0329 75.5125L58.993 75.7584L58.9077 75.8441L58.828 75.6783L58.7427 75.6383L59.3629 74.7232L59.4426 74.6375Z" fill="#FDEAD3"/>
<path d="M25.5018 23.905H25.6668V25.4834H25.627L25.5871 24.9115V24.414H25.5018L25.2969 24.0823L25.0864 24.1681L24.9214 24.1224L25.0864 24.0022L25.5018 23.905Z" fill="#FEEED9"/>
<path d="M39.1695 50.2576L39.4995 50.4234L39.5393 50.5492L39.2093 51.0868L39.0045 51.2126H38.9077L38.9532 51.0468L39.0727 50.8409L39.2377 50.5092L39.1695 50.2576Z" fill="#FEBE48"/>
<path d="M44.7055 71.675H45.1152L45.4054 71.7551V72.0068L45.32 72.0925L45.2005 72.0468L45.155 72.1326L44.7852 71.8809L44.3755 71.7551V71.7151L44.7055 71.675Z" fill="#FDD5A3"/>
<path d="M34.7083 47.6443H34.7937V47.7587L34.9985 47.7987V47.9645L34.7539 48.3763L34.5433 48.5021H34.4238L34.5035 48.1704H34.5888L34.6685 47.9645L34.7083 47.6443Z" fill="#FEC047"/>
<path d="M32.6886 61.0093L32.8138 61.0493V61.1751L32.9788 61.1351L33.0186 61.0493L32.9788 61.4211H32.8536L32.8138 61.341H32.7284L32.6488 61.6327L32.5236 61.7127V61.9243L32.3984 62.0444H32.3131L32.2732 62.1702L32.2334 62.0902L32.6886 61.0093Z" fill="#FDE9CF"/>
<path d="M29.923 72.0925H30.0027L29.9629 72.2584L29.4223 72.8303L29.2573 72.9961V72.8303L29.4223 72.4585L29.758 72.1268L29.923 72.0925Z" fill="#FEE3B7"/>
<path d="M49.6163 24.7742H49.6561V25.9179L49.6163 26.9588L49.5765 27.3706H49.5366V25.6549L49.5765 24.8256L49.6163 24.7742Z" fill="#FFF0DE"/>
<path d="M14.0648 74.3743H14.1046L14.0648 74.8261L13.9396 75.7411L13.86 76.5303H13.8145V75.7011L13.9795 74.4143L14.0648 74.3743Z" fill="#FECF8E"/>
<path d="M30.4181 66.2363L30.4978 66.3622L30.5376 66.568L30.4181 66.6138L30.3726 66.7796L30.4181 66.8597L30.2531 67.1113L30.2076 67.2772L29.9629 67.3572L30.0881 66.9855L30.4181 66.2363Z" fill="#FDE4C6"/>
<path d="M37.8096 48.5991L37.8893 48.6849L37.7641 48.8508L37.6844 49.0567L37.6446 49.3026L37.269 49.2625L37.3942 48.9308L37.5592 48.6849L37.8096 48.5991Z" fill="#FCE2BC"/>
<path d="M33.7865 58.4758L33.8661 58.6017H33.7865V58.6817L33.8661 58.7275H33.7865V59.0191L33.6215 59.4309H33.5361L33.4963 59.5167H33.3711L33.4963 59.1392L33.7865 58.4758Z" fill="#FDE9CE"/>
<path d="M42.02 76.5303L42.185 76.6161L42.515 76.902L42.7654 77.3195L42.7199 77.3996L42.4752 77.1937V77.1136L42.3102 77.0278L42.1452 76.902V76.6961L42.02 76.6561V76.5303Z" fill="#FEC246"/>
<path d="M49.6164 27.7424L49.9066 27.8225H49.9919L49.9464 27.9883L49.6164 28.28H49.4912V27.9483H49.5766L49.6164 27.7424Z" fill="#FEEFD2"/>
<path d="M16.1475 81.5H16.3921L17.1774 81.9117L17.2172 82.0376L16.8075 81.9117L16.1873 81.5801L16.1475 81.5Z" fill="#FEE1B1"/>
<path d="M31.9431 43.9897H32.1479L32.0683 44.4072L31.8179 44.3672L31.5732 44.2014V44.1156L31.9431 43.9897Z" fill="#FDE3C2"/>
<path d="M46.7258 21.2058H46.8112V22.0236L46.7258 22.0636L46.6006 21.6118L46.521 21.3602L46.7258 21.2058Z" fill="#FDE1C2"/>
<path d="M30.7024 66.1963H30.7877L30.6625 66.568L30.4975 66.8997L30.3724 66.9455L30.3325 66.7796L30.4179 66.6138L30.4975 66.568L30.4577 66.488L30.4975 66.2821L30.7024 66.1963Z" fill="#FEF7E5"/>
<path d="M32.1081 44.0354H32.1935L32.2731 44.3271L32.4381 44.5329L32.5633 44.6588L32.4836 44.6988L32.1935 44.573L31.9829 44.4472L32.0683 44.4071V44.0754L32.1081 44.0354Z" fill="#FEE5BE"/>
<path d="M25.627 27.3477H25.6669V27.7423L25.5872 27.8624L25.297 27.9081L25.2117 27.8624L25.1718 27.9481L25.0068 27.7423L25.0467 27.5764L25.1718 27.6565V27.7423L25.5019 27.6965L25.5872 27.5764L25.627 27.3477Z" fill="#FFEED8"/>
<path d="M30.788 65.6128L30.8677 65.7787L30.788 65.8644L30.7027 66.1104V66.2362L30.4978 66.2819L30.458 66.362L30.4978 66.0303L30.6629 65.6986L30.788 65.6128Z" fill="#FDE7CD"/>
<path d="M43.9603 79.0181L44.1652 79.2297L44.3302 79.4356L44.3757 79.6872L44.2904 79.7272V79.5614L44.04 79.4756L43.875 79.2297L43.9205 79.1039L43.9603 79.0181Z" fill="#FDB948"/>
<path d="M41.4395 40.8386H41.485L41.5249 42.1654L41.4395 42.2512L41.3599 41.7536V41.3362L41.4395 40.8386Z" fill="#FFF0DE"/>
<path d="M24.4266 24.6541L24.5119 24.7741L24.4721 26.1467H24.3867V24.7341L24.4266 24.6541Z" fill="#FFD89B"/>
<path d="M15.5784 74.7061L15.7036 74.7461L15.8686 74.8262L15.9938 74.9119L15.9483 75.1636H15.7832L15.5386 74.8719L15.5784 74.7061Z" fill="#FEE9C0"/>
<path d="M41.3999 39.1345H41.5251V40.0095H41.4852L41.4397 39.552L41.2747 39.4662L41.2349 39.3004L41.2747 39.1803L41.3999 39.1345Z" fill="#FEEFDB"/>
<path d="M42.8452 77.5254L43.05 77.6112L43.1752 77.7313L43.3004 77.9429L43.3402 78.1488L43.1354 78.0229H43.0102L42.9306 77.8171L42.885 77.6512L42.8452 77.5254Z" fill="#FEC24B"/>
<path d="M15.22 66.2363H15.2598L15.22 66.6538L15.1403 67.3172L15.0151 67.443L15.055 66.8997L15.1403 66.3278L15.22 66.2363Z" fill="#FDD199"/>
<path d="M13.8145 76.9878L13.8998 77.1136L13.9795 78.1487L13.8998 78.3146L13.8145 77.7427V76.9878Z" fill="#FECE8B"/>
<path d="M36.2788 36.9385H36.4438V37.0185L37.4339 37.0643V37.1443H37.8094V37.1844H37.3542L36.5291 37.1043L36.1138 37.0185L36.2788 36.9385Z" fill="#FED095"/>
<path d="M14.7249 69.7249H14.7647L14.7249 70.2624L14.6395 70.6799L14.5599 70.8858H14.52L14.5599 70.3883L14.6395 69.8164L14.7249 69.7249Z" fill="#FFD296"/>
<path d="M48.091 66.7339L48.1308 66.8197L48.3357 66.8997L48.4608 66.9455L48.5462 67.1914L48.3357 67.1514L47.9658 66.8597V66.7796L48.091 66.7339Z" fill="#FDBD47"/>
<path d="M15.3452 64.8694L15.4248 65.0353L15.385 65.5328L15.3054 65.9903L15.22 66.1962H15.1802L15.22 65.7387L15.3452 64.8694Z" fill="#FED08F"/>
<path d="M14.8899 68.564H14.9297L14.8899 69.0157L14.8046 69.519L14.7249 69.7249H14.6851L14.7249 69.2273L14.8046 68.6555L14.8899 68.564Z" fill="#FED194"/>
<path d="M35.4137 36.6868L35.8234 36.7725L36.0737 36.8526V36.9784L35.7039 36.9384L35.3682 36.8526L35.4137 36.6868Z" fill="#FEE1B3"/>
<path d="M43.3799 78.1887L43.6701 78.4404L43.8351 78.732L43.7953 78.8121L43.5051 78.6863L43.4254 78.4804L43.3799 78.1887Z" fill="#FEC04A"/>
<path d="M14.2302 73.2075H14.2701L14.2302 73.665L14.1449 74.1225L14.0652 74.3284H14.0254L14.0652 73.8309L14.1449 73.2933L14.2302 73.2075Z" fill="#FED196"/>
<path d="M39.8746 49.8003L39.9145 49.9261L39.5844 50.498L39.4194 50.4523L39.4593 50.2463L39.6243 50.1205H39.7495L39.8291 49.8746L39.8746 49.8003Z" fill="#FEE3B6"/>
<path d="M51.8069 62.7935L51.9321 62.9193L51.9719 63.0394V63.3768L51.8866 63.4569L51.7671 63.251V62.9193L51.8069 62.7935Z" fill="#FEBE44"/>
<path d="M26.617 17.2654H26.8674V17.3054L26.3894 17.4484L26.0594 17.6943L25.9399 17.9059L25.8147 18.1518H25.7749V17.9459L25.8147 17.8201H25.8944L25.9797 17.6543L26.2699 17.4084L26.617 17.2654Z" fill="#424A52"/>
<path d="M32.7681 46.5632L32.8136 46.649L32.9786 46.6891L32.8535 46.7291L32.7681 46.9407L32.6486 47.0608L32.5234 47.0208L32.6031 46.8149L32.6486 46.7291H32.7283L32.7681 46.5632Z" fill="#F0AF44"/>
<path d="M33.6387 39.1345L34.0085 39.2203V39.3461H33.8834V39.4262L33.6785 39.512L33.6387 39.1345Z" fill="#FEECD1"/>
<path d="M29.9229 71.7778H30.2927V71.8636L30.4179 71.9036L30.1675 72.0695L30.0879 72.1153V71.9894L29.9229 71.9036V71.7778Z" fill="#FFD7A5"/>
<path d="M14.9699 67.4829H15.0097L15.0496 67.8146L14.9642 68.3522L14.8846 68.5638H14.8447L14.8846 68.0662L14.9699 67.4829Z" fill="#FECD88"/>
<path d="M36.2788 36.8926H36.6316L36.8364 36.9727L37.4566 37.0127L37.3371 37.0984L36.5918 37.0584L36.4666 37.0127V36.9326L36.2788 36.8926Z" fill="#FFECC5"/>
<path d="M33.6385 42.7031H33.6784V43.1206L33.5134 43.2865L33.3882 43.3265L33.5532 42.829H33.6385V42.7031Z" fill="#FDE5C7"/>
<path d="M49.5366 23.905L49.9065 23.945L49.8667 24.0709L49.6561 24.1967H49.5366V23.905Z" fill="#FEF2DB"/>
<path d="M43.0952 77.9429L43.3797 78.1888L43.4651 78.3546L43.4252 78.5205L43.2602 78.3546L43.0952 78.1087V77.9429Z" fill="#FBB148"/>
<path d="M37.4794 53.2888L37.8891 53.3289L37.7241 53.4947L37.5192 53.5405L37.394 53.4147V53.3289L37.4794 53.2888Z" fill="#FCB63D"/>
<path d="M34.1735 71.1375L34.3385 71.2175L33.8036 71.5092H33.7183L33.7581 71.3834L34.0483 71.1775L34.1735 71.1375Z" fill="#FDD273"/>
<path d="M33.4738 35.8975L33.6786 35.9832L33.8835 36.1491V36.2292L33.6786 36.1891L33.3486 36.0233V35.9432L33.4738 35.8975Z" fill="#FFEED9"/>
<path d="M59.3918 75.2834H59.5169L59.2666 75.781L59.1016 75.741L59.1414 75.5751H59.2267L59.3064 75.4092L59.3918 75.2834Z" fill="#FEEAC3"/>
<path d="M33.7865 58.4758L33.8662 58.6017H33.7865V58.6817L33.8662 58.7275H33.7865V59.0191L33.5361 59.0992L33.6613 58.7275L33.7865 58.4758Z" fill="#FDE3BF"/>
<path d="M44.5977 59.0591L44.7228 59.2249L44.9675 59.7968V59.8826H44.8879L44.5977 59.2592V59.0591Z" fill="#F7BE5F"/>
<path d="M14.3949 79.3096H14.4746V79.3954L14.6396 79.3496V79.4754L14.5599 79.6012L14.3096 79.5212V79.3496L14.3949 79.3096Z" fill="#FEF6DF"/>
<path d="M49.6164 27.7424L49.9066 27.8682L49.8668 27.9483H49.7814L49.7416 28.0341L49.4912 28.0741V27.9483H49.5766L49.6164 27.7424Z" fill="#FFF0DE"/>
<path d="M32.0795 43.9897L32.1592 44.0355L32.1194 44.2014L32.0795 44.4072L31.8292 44.3672L31.7495 44.2814H31.9145L31.9942 44.0755L32.0795 43.9897Z" fill="#FDEAD1"/>
<path d="M55.1525 65.6987L55.3972 65.7388L55.3574 65.8646L55.1525 65.9446L55.0273 65.9046V65.7388L55.1525 65.6987Z" fill="#FEE5BA"/>
<path d="M60.3532 80.1846L60.393 80.3046L60.1028 80.6364L60.063 80.5163L60.1882 80.2646L60.3532 80.1846Z" fill="#FEECD0"/>
<path d="M37.2686 49.3027H37.4336L37.3539 49.4686H37.2686L37.1889 49.6344L37.0239 49.7202L37.1036 49.4285H37.2288L37.2686 49.3027Z" fill="#F8BB4A"/>
<path d="M14.0651 74.3743H14.105L14.0651 74.8261L13.9798 74.9976H13.9399L13.9798 74.4258L14.0651 74.3743Z" fill="#FDD39C"/>
<path d="M31.7383 63.1995L31.818 63.3253L31.7782 63.5369L31.6132 63.7428H31.5107L31.6302 63.371L31.7383 63.1995Z" fill="#FDDFBA"/>
<path d="M51.8863 66.1106H51.9944V66.4022L51.8692 66.5681L51.7896 66.5281L51.8692 66.1563L51.8863 66.1106Z" fill="#FDBB43"/>
<path d="M32.4382 61.5869H32.4838L32.5236 61.9243L32.3984 62.0444H32.3131L32.2732 62.1703L32.2334 62.0902L32.4382 61.5869Z" fill="#FDDEB7"/>
<path d="M14.7649 79.853L14.9698 79.9731L15.0551 80.1847L14.9299 80.139L14.8901 80.2248L14.7649 80.0989L14.7251 79.9331L14.7649 79.853Z" fill="#FEEAC3"/>
<path d="M25.3369 52.5396V52.6654H25.2516L25.1662 52.8312L24.876 53.1629H24.7964L24.876 52.9971L25.2914 52.5853L25.3369 52.5396Z" fill="#FEDDA4"/>
<path d="M44.4951 80.1389L44.6203 80.3048V80.3905H44.7853L44.8251 80.5564L44.7056 80.6822L44.4951 80.2647V80.1389Z" fill="#FDC05C"/>
<path d="M44.5977 80.0588L44.7627 80.2247L44.8026 80.3905H44.5977L44.5181 80.1847L44.5977 80.0588Z" fill="#FEC145"/>
<path d="M43.6702 56.9087H43.71V57.1203H43.7954L43.9604 57.5321V57.6178H43.8751L43.6702 57.1603L43.6304 56.9545L43.6702 56.9087Z" fill="#F6B760"/>
<path d="M24.3072 78.4404L24.4267 78.4804L24.347 78.6063L24.2617 78.7721L24.0967 78.7321L24.182 78.5662L24.3072 78.4404Z" fill="#FDE1C3"/>
<path d="M14.5998 70.6799L14.6396 70.8458L14.5998 71.1775L14.4746 71.2575V70.9716L14.5998 70.6799Z" fill="#FDD9AD"/>
<path d="M48.7515 67.2771L48.9563 67.3171L49.0417 67.3972L48.9961 67.523L48.7515 67.4429V67.2771Z" fill="#F8B643"/>
<path d="M58.4924 64.4119L58.5778 64.4519V64.5777L58.703 64.6578L58.6574 64.7836L58.4526 64.6578V64.5777L58.2876 64.4919L58.4924 64.4119Z" fill="#FDDDB7"/>
<path d="M57.4228 57.6465L57.5025 57.7323L57.2578 57.8981L57.0928 57.9382V57.7723L57.4228 57.6465Z" fill="#FDE0C2"/>
<path d="M49.7186 24.7341H49.7585V25.3575L49.6788 25.3175V25.0258L49.6333 24.7742L49.7186 24.7341Z" fill="#FEEAC3"/>
<path d="M24.5515 24.4026L24.6368 24.4426L24.5913 24.7743L24.4718 24.7343L24.4263 24.5684L24.5515 24.4026Z" fill="#FDE4C6"/>
<path d="M20.6996 81.8831L20.8248 81.9689L20.3696 82.1347H20.2046V82.0718L20.6996 81.8831Z" fill="#FFE0AF"/>
<path d="M17.9458 64.4919H18.3156L18.2758 64.6578H18.0311V64.5377L17.9458 64.4919Z" fill="#FEEAC3"/>
<path d="M58.6177 56.9832L58.703 57.149V57.4807L58.6575 57.5207H58.4526L58.5778 57.4006L58.6177 56.9832Z" fill="#FDF8F1"/>
<path d="M36.0624 14.2744H36.1876L36.1022 14.526L35.977 14.486L35.812 14.526L35.977 14.3202L36.0624 14.2744Z" fill="#3E454D"/>
<path d="M16.21 75.7012L16.4604 75.7412L16.3352 75.827L15.9653 75.9471L16.1303 75.7412L16.21 75.7012Z" fill="#FEEAC3"/>
<path d="M43.9603 79.0181L44.1652 79.2297L44.2107 79.3498L44.0002 79.2697L43.875 79.2297L43.9205 79.1039L43.9603 79.0181Z" fill="#FFC54A"/>
<path d="M24.1136 78.5205L24.2388 78.5663L24.1136 78.7321H24.2388L24.199 78.8522H24.1136L23.9941 78.6864L24.1136 78.5205Z" fill="#FEE9C9"/>
<path d="M20.876 70.8057L20.9215 70.8857H21.206L21.041 71.0516L20.9215 71.0916L20.876 71.0516V70.8057Z" fill="#FFD478"/>
<path d="M24.7165 53.1228H24.8019L24.7165 53.2886L24.5117 53.4545L24.3467 53.4145L24.7165 53.1228Z" fill="#FDE0BB"/>
<path d="M35.249 47.2725H35.3287L35.2888 47.4783L35.1637 47.6041V47.5184H35.084V47.3983L35.249 47.2725Z" fill="#FEE2B4"/>
</g>
<defs>
<clipPath id="clip0_629_2636">
<rect width="75" height="85" fill="white" transform="translate(0.5)"/>
</clipPath>
</defs>
</svg>
